<?xml version="1.0" encoding="UTF-8"?>
<!-- Created with Inkscape (http://www.inkscape.org/) -->
<svg width="80.683mm" height="81.286mm" version="1.1" viewBox="0 0 80.683 81.286" xmlns="http://www.w3.org/2000/svg">
 <g transform="translate(339.61 121.87)">
  <g fill="#e7e4e7">
   <path d="m-335.1-62.339c-0.0769-0.0099-0.15064-0.04798-0.20532-0.11218-0.29457-0.35031-0.44838-0.79551-0.43215-1.2538 0.0176-0.508 0.2473-0.99201 0.63006-1.3268 0.13441-0.11677 0.33761-0.10372 0.45473 0.03034 0.11748 0.13406 0.10372 0.33761-0.0303 0.45473-0.25294 0.22154-0.39864 0.52811-0.41028 0.86395-0.0106 0.29845 0.0896 0.58843 0.28152 0.81633 0.11465 0.13617 0.097 0.33972-0.0388 0.45438-0.0723 0.06033-0.16228 0.08396-0.24941 0.07303"/>
   <path d="m-336.73-62.396c-0.0769-0.0099-0.15099-0.04798-0.20531-0.11218-0.29493-0.35066-0.44803-0.79587-0.43216-1.2538 0.0173-0.50835 0.2473-0.99166 0.63006-1.3268 0.13406-0.11677 0.33761-0.10407 0.45509 0.03034 0.11712 0.13406 0.10336 0.33761-0.0303 0.45473-0.2533 0.22154-0.39899 0.52846-0.41063 0.86395-0.0102 0.29845 0.0896 0.58808 0.28151 0.81668 0.11466 0.13582 0.097 0.33972-0.0395 0.45402-0.072 0.06068-0.16228 0.08396-0.24871 0.07303"/>
   <path d="m-265.12-65.269c0.0776-0.0025 0.15699 0.02258 0.22119 0.07691 0.34855 0.29669 0.57397 0.71049 0.63394 1.1652 0.066 0.50412-0.0804 1.0192-0.40287 1.4125-0.11289 0.13723-0.31573 0.15804-0.45332 0.04516-0.13793-0.11324-0.15804-0.31609-0.0455-0.45367 0.21273-0.26 0.30621-0.58702 0.26212-0.91969-0.0388-0.29633-0.18521-0.5655-0.4124-0.75847-0.13582-0.11536-0.15205-0.31926-0.0363-0.45438 0.0607-0.07161 0.14605-0.11007 0.23319-0.1136"/>
   <path d="m-263.51-65.482c0.0776-0.0032 0.15698 0.02187 0.22119 0.07655 0.34854 0.29669 0.57361 0.71085 0.63359 1.1649 0.0663 0.50412-0.0804 1.0192-0.40288 1.4129-0.11253 0.13758-0.31538 0.1584-0.45332 0.04516-0.13793-0.11254-0.15804-0.31574-0.0455-0.45367 0.21272-0.26 0.30621-0.58667 0.26211-0.91969-0.0388-0.29598-0.18521-0.5655-0.4124-0.75882-0.13546-0.11536-0.15134-0.31891-0.036-0.45438 0.0607-0.07161 0.14605-0.10971 0.23319-0.11289"/>
  </g>
  <path d="m-308.65-107.34s3.5e-4 7.1e-4 7.1e-4 7.1e-4c1.7586-1.6552 3.9663-3.1824 6.6548-4.5163 0.90028-1.809 5.7094-7.148 6.363-6.6301 0.40252 0.31821-0.0878 2.6606-0.61172 4.7092 1.6538-0.23319 3.1743-0.14852 4.5985 0.15628 0.35172-0.49212 0.84102-1.0904 1.3931-1.7148 0.0603-0.32667 0.0931-0.66252 0.0931-1.0065 0-3.0529-2.4747-5.5273-5.527-5.5273-2.2401 0-4.1674 1.3332-5.0356 3.2484-1.0248-0.74083-2.2828-1.1786-3.6442-1.1786-3.4357 0-6.2212 2.7816-6.229 6.2156-0.74189-0.46426-1.6185-0.73343-2.5583-0.73343-2.6684 0-4.832 2.1636-4.832 4.832 0 0.45614 0.0646 0.89712 0.18239 1.3155-0.45297-0.0963-0.92216-0.14746-1.4037-0.14746-3.7218 0-6.7388 3.017-6.7388 6.738 0 2.128 0.98672 4.0238 2.5266 5.2589-1.632 0.9465-2.7302 2.7114-2.7302 4.7339 0 3.0212 2.4493 5.4705 5.4705 5.4705 1.6672 0 3.1588-0.74648 4.1621-1.9223 0.86748 0.55351 1.8926 0.87948 2.993 0.89923l0.40499-0.96449c-6.6492-13.955 4.4676-19.237 4.4676-19.237" fill="#8d7568"/>
  <g fill="#f2e6c7">
   <path d="m-263.6-101.05c0.39335-3.3895-0.15346-6.4615-1.3642-8.7189-0.20285-0.37783-0.75424-0.34114-0.90982 0.0586-0.44661 1.1444-1.4245 2.9834-3.3383 4.046 1.1592 1.5289 3.1387 3.6879 5.6123 4.6143"/>
   <path d="m-295.63-118.48c-0.6537-0.51788-5.4628 4.8211-6.363 6.6301-0.10901 0.21872-0.16087 0.38593-0.14112 0.48506 0.11501 0.57503 1.5797 1.1624 2.9559 1.2474 0.81456 0.0501 1.5981-0.0755 2.0521-0.48401 0 0 0.0416-0.13653 0.11112-0.37183 0.16087-0.54434 0.47237-1.6224 0.77329-2.7975 0.52388-2.0486 1.0142-4.391 0.61172-4.7092"/>
   <path d="m-285.45-119.39c-0.43956-0.37394-2.9651 1.9798-4.8006 4.0548-0.5521 0.62441-1.0414 1.2227-1.3931 1.7148-0.37394 0.52282-0.59231 0.92534-0.56268 1.107 0.0173 0.10442 0.0804 0.21096 0.17674 0.31644 0.75495 0.82232 3.6837 1.5614 4.801 0.62653 0 0 0.0395-0.1143 0.1069-0.31503 0.46884-1.3959 2.2934-6.9748 1.6718-7.5046"/>
  </g>
  <g fill="#8d7568">
   <path d="m-301.33-82.085 3.5e-4 3.52e-4s10.414 5.291 23.731 4.5547c-0.16298-1.7145-0.31327-3.2501-0.4445-4.5328-6.8806 2.7488-16.046 2.2102-23.287-0.02223"/>
   <path d="m-276.66-67.287c1.0749 0.04727 2.1131 0.04233 3.1104-6e-3 -0.94897-1.6838-2.5802-4.5752-3.7049-6.5444 0.19085 2.0673 0.39123 4.2817 0.59443 6.5504"/>
   <path d="m-317.91-76.683s-3.0939 4.5967-4.7029 6.9903c0.58138 0.09066 1.1426 0.16651 1.6736 0.22366l3.0293-7.214"/>
  </g>
  <g fill="#f2e6c7">
   <path d="m-286.05-57.054c-0.19191 1.6242-1.5893 2.8346-3.2247 2.8089l-16.731-0.26748-1.9487-0.03076c-1.2425-0.01926-2.3738-0.75103-2.8684-1.889-1.1014-2.54-1.47-6.8302-0.0279-10.598 0.079-0.20814 0.16299-0.41275 0.25294-0.61595 1.367-3.0798 4.0263-5.7146 8.5954-6.598 1.191-0.23213 2.5111-0.34502 3.9744-0.31432 5.383 0.11289 8.4709 2.3386 10.192 5.2797 0.3997 0.68368 0.72673 1.4058 0.98919 2.1502 0.0741 0.20461 0.14217 0.41275 0.20461 0.62054 1.022 3.3408 0.88195 7.0009 0.59161 9.4544"/>
   <path d="m-331.18-45.087-1.8919 4.5065h5.188c0.82303-3.6447-1.8246-4.3762-3.296-4.5065"/>
   <path d="m-323.54-44.125c-1.4743-0.17889-2.5224 2.1565-3.0043 3.5447h4.7752c-0.15099-1.5703-0.62547-3.4061-1.7709-3.5447"/>
   <path d="m-277.61-44.134c-1.5014-0.07302-2.0306 2.0468-2.2183 3.5542h4.0929c1e-3 -1.2838-0.23672-3.4753-1.8747-3.5542"/>
   <path d="m-282.56-44.43c-1.1554-0.08294-1.9477 2.342-2.2652 3.8498h3.8848c-0.0843-1.4602-0.40534-3.7634-1.6196-3.8498"/>
  </g>
  <path d="m-329.2-49.796 2.2779-5.4246c-1.2718 1.7964-2.8628 4.0266-3.7962 5.3721 0.48683 0.05965 0.99307 0.07937 1.5184 0.05249" fill="#8d7568"/>
  <path d="m-335.98-57.346c0.58314-0.21304 1.4206-0.50835 1.838-0.63955-0.3055-0.93595-0.76835-1.8338-1.3042-1.7742-0.83996 0.09278-1.3924 1.4383-1.6626 2.3915 0.37324 0.02039 0.74965 0.02783 1.1289 0.02219" fill="#f2e6c7"/>
  <path d="m-330.37-58.651c-0.38594-0.76976-0.8569-1.469-1.2464-1.4146-0.59655 0.08361-0.74013 1.3928-0.79093 2.3499 0.20073-0.0357 0.40005-0.07373 0.59796-0.11398 0.51823-0.29524 1.0527-0.60286 1.4393-0.82123" fill="#f2e6c7"/>
  <path d="m-330.16-58.209c-0.066-0.14676-0.13653-0.29598-0.21026-0.44238-0.38664 0.21837-0.9211 0.52599-1.4393 0.82123 0.56338-0.11356 1.1158-0.24172 1.6496-0.37885" fill="#ccbf9d"/>
  <path d="m-334-57.48c-0.0444-0.16605-0.0942-0.33609-0.14993-0.50504-0.41733 0.1312-1.2548 0.42651-1.838 0.63955 0.65969-0.0099 1.3254-0.05789 1.9879-0.13451" fill="#ccbf9d"/>
  <g fill="#f2e6c7">
   <path d="m-331.6-80.871c0-0.69709-1.0936-1.2622-2.4426-1.2622-0.36725 0-0.71438 0.04304-1.0266 0.11818l-0.20496 2.2331c0.3623 0.10936 0.78175 0.17321 1.2316 0.17321 1.349 0 2.4426-0.56515 2.4426-1.2622"/>
   <path d="m-332.2-77.759c0-0.69709-1.0932-1.2622-2.443-1.2622-0.24554 0-0.48225 0.0194-0.70591 0.05398l-0.21766 2.3767c0.28539 0.05997 0.5969 0.09384 0.92357 0.09384 1.3497 0 2.443-0.5648 2.443-1.2622"/>
   <path d="m-262.75-78.848c0.2794 0.62724 1.4764 0.70414 2.6903 0.18133l-0.4071-2.5368c-0.18627 0.05574-0.37571 0.12347-0.5655 0.20814-1.2326 0.54928-2.0017 1.5106-1.7177 2.1474"/>
   <path d="m-260.35-77.239c-1.2322 0.54892-2.0017 1.5102-1.7177 2.1474 0.27376 0.61489 1.4302 0.70026 2.6201 0.21026l-0.40887-2.5449c-0.16298 0.05186-0.32808 0.11359-0.49354 0.18732"/>
  </g>
  <path d="m-312.73-89.564c-2.5887-5.7912-1.5787-12.443 4.083-17.772-3.6e-4 0-7.1e-4 -7.1e-4 -7.1e-4 -7.1e-4s-11.117 5.2821-4.4676 19.237l0.50906-1.2121c-0.0427-0.08396-0.0857-0.16792-0.12382-0.25224" fill="#7a5f50"/>
  <path d="m-258.92-71.608-0.52529-3.2731c-1.1899 0.49001-2.3463 0.40464-2.6201-0.21026-0.28399-0.63712 0.48542-1.5984 1.7177-2.1474 0.16546-0.07373 0.33056-0.13547 0.49354-0.18732l-0.19897-1.2404c-1.2139 0.52282-2.4109 0.44591-2.6903-0.18133-0.28399-0.63676 0.48507-1.5981 1.7177-2.1474 0.18979-0.08467 0.37923-0.1524 0.5655-0.20814l-0.14147-0.88124c-5.8099 2.9877-11.638 4.2587-16.997 4.5547-13.317 0.73625-23.731-4.5547-23.731-4.5547l-3.5e-4 -3.52e-4c7.2411 2.2324 16.406 2.7711 23.287 0.02223 1.5476-0.61842 2.981-1.4016 4.2496-2.371 6.5479-5.0038 9.5684-11.214 10.196-16.618-2.4737-0.92639-4.4531-3.0854-5.6123-4.6143-1.4503 0.80539-3.4371 1.1649-6.1404 0.43603-4.2065-1.1342-7.7057-4.4626-11.768-6.6523-0.0674 0.20072-0.1069 0.31502-0.1069 0.31502-1.1172 0.93486-4.046 0.19579-4.801-0.62653-0.0963-0.10548-0.15945-0.21202-0.17674-0.31644-0.0296-0.18168 0.18874-0.5842 0.56268-1.107-1.4242-0.3048-2.9446-0.38947-4.5985-0.15628-0.30092 1.1751-0.61242 2.2532-0.77329 2.7975-0.0695 0.2353-0.11112 0.37183-0.11112 0.37183-0.45403 0.40851-1.2376 0.5341-2.0521 0.48401-1.3762-0.085-2.8409-0.6724-2.9559-1.2474-0.0197-0.0991 0.0321-0.26634 0.14112-0.48506-2.6885 1.3338-4.8962 2.861-6.6548 4.5163-5.6617 5.3287-6.6717 11.981-4.083 17.772 0.0381 0.08431 0.0811 0.16828 0.12382 0.25224l-0.50906 1.2121-0.40499 0.96449-2.3167 5.5178c-4.0104-0.27658-13.897-1.0467-19.063-2.2666l-0.17145 1.869c0.31221-0.07514 0.65934-0.11818 1.0266-0.11818 1.349 0 2.4426 0.56515 2.4426 1.2622s-1.0936 1.2622-2.4426 1.2622c-0.4498 0-0.86925-0.06385-1.2316-0.17321l-0.0748 0.81527c0.22366-0.03457 0.46037-0.05398 0.70591-0.05398 1.3497 0 2.443 0.56515 2.443 1.2622 0 0.69744-1.0932 1.2622-2.443 1.2622-0.32667 0-0.63818-0.03387-0.92357-0.09384l-0.33902 3.6996s7.6098 2.3114 13.296 3.1983c1.609-2.3936 4.7029-6.9903 4.7029-6.9903l-3.0293 7.214-0.75954 1.8098-3.2399 7.7156c-0.94262 0.38135-2.4973 0.97331-4.3427 1.4965-0.28751 0.08149-0.58244 0.16122-0.883 0.23848-0.53376 0.13712-1.0862 0.26529-1.6496 0.37885-0.19791 0.04025-0.39723 0.07828-0.59796 0.11398-0.44415 0.08004-0.89465 0.15032-1.3469 0.20712-0.079 0.0102-0.15839 0.01902-0.23777 0.02808-0.66251 0.07662-1.3282 0.1246-1.9879 0.13451-0.37924 0.0056-0.75565-0.0018-1.1289-0.02219-0.67204-0.03775-1.331-0.1203-1.9653-0.25933-0.35913-0.07899-0.64735 0.29129-0.47625 0.61666 1.0248 1.9421 3.9493 6.5628 8.8371 7.1628 0.93345-1.3455 2.5245-3.5757 3.7962-5.3721l-2.2779 5.4246-0.43215 1.0291-1.5452 3.6798c1.4714 0.13021 4.119 0.8618 3.296 4.5065h1.3356c0.4819-1.3883 1.53-3.7236 3.0043-3.5447 1.1455 0.13861 1.62 1.9744 1.7709 3.5447h11.749c0.92957-3.3535 2.7841-9.7057 4.0164-13.932l-1.9494-0.03115c-1.2414-0.01969-2.3731-0.75032-2.867-1.8894-2.0775-4.7889-1.5505-15.807 8.8194-17.812 1.1913-0.23072 2.5114-0.34431 3.974-0.31362 5.3834 0.11324 8.4716 2.3389 10.193 5.2797 2.2842 3.9031 2.1597 9.0657 1.7858 12.225-0.19192 1.6239-1.59 2.8346-3.2244 2.8081l-4.6546-0.07412c0.26917 4.2753 0.74577 11.198 0.82056 13.74h8.2815c0.3175-1.5078 1.1098-3.9328 2.2652-3.8498 1.2143 0.0864 1.5353 2.3896 1.6196 3.8498h1.1091c0.18768-1.5074 0.71684-3.6273 2.2183-3.5542 1.638 0.07895 1.8761 2.2704 1.8747 3.5542h1.3928s-1.0996-13.05-2.1795-25.176c-0.0459-0.51259-0.091-1.0227-0.13652-1.53-0.2032-2.2687-0.40358-4.4831-0.59443-6.5504 1.1246 1.9692 2.7559 4.8606 3.7049 6.5444 8.9472-0.43321 14.629-4.3159 14.629-4.3159" fill="#bbbaa9"/>
  <path d="m-297.92-102.73c0 2.226 1.4023 4.0386 3.1605 4.1307 0.0451 0.0018 0.0921 0.0035 0.13864 0.0035 1.8214 0 3.2974-1.8503 3.2974-4.1342 0-0.35631-0.0353-0.70097-0.10301-1.0298-0.36583-1.7844-1.6566-3.1027-3.1944-3.1027-1.8228 0-3.2992 1.8503-3.2992 4.1324" fill="#fff"/>
  <path d="m-295.44-100.98c0 0.92181 0.25788 1.7582 0.67698 2.3788 0.0451 0.0018 0.0921 0.0035 0.13864 0.0035 1.8214 0 3.2974-1.8503 3.2974-4.1342 0-0.35631-0.0353-0.70097-0.10301-1.0298-0.4191-0.4385-0.9398-0.69956-1.5053-0.69956-1.3829 0-2.5047 1.5586-2.5047 3.4812" fill="#1c8c9e"/>
  <path d="m-289.83-102.73c0 2.226 1.4023 4.0386 3.1605 4.1307 0.0451 0.0018 0.0917 0.0035 0.13864 0.0035 1.821 0 3.2978-1.8503 3.2978-4.1342 0-0.35631-0.0356-0.70097-0.10337-1.0298-0.36583-1.7844-1.657-3.1027-3.1944-3.1027-1.8228 0-3.2992 1.8503-3.2992 4.1324" fill="#fff"/>
  <path d="m-287.34-100.98c0 0.92181 0.25788 1.7582 0.67698 2.3788 0.0451 0.0018 0.0917 0.0035 0.13864 0.0035 1.821 0 3.2978-1.8503 3.2978-4.1342 0-0.35631-0.0356-0.70097-0.10337-1.0298-0.4191-0.4385-0.93945-0.69956-1.5053-0.69956-1.3829 0-2.5047 1.5586-2.5047 3.4812" fill="#1c8c9e"/>
  <path d="m-292.99-93.001c-7.1656-0.20708-11.033-4.1204-11.914-5.1304 0.5715-0.51823 0.93345-1.2633 0.93345-2.0937 0-0.2861-0.043-0.56939-0.1277-0.84067-0.0526-0.17039-0.23425-0.26494-0.40323-0.21237-0.17004 0.0533-0.26493 0.23354-0.21237 0.40357 0.0653 0.20955 0.0984 0.42828 0.0984 0.64947 0 1.2047-0.98001 2.1848-2.1844 2.1848-0.41804 0-0.82444-0.11853-1.1748-0.34255-0.14993-0.0956-0.34925-0.05186-0.4452 0.09807-0.096 0.14993-0.0519 0.34925 0.0981 0.4452 0.45438 0.28998 0.98037 0.4438 1.5219 0.4438 0.49636 0 0.96309-0.12947 1.3691-0.35525 0.87488 1.0407 4.8179 5.1749 12.422 5.3943 3e-3 3.53e-4 6e-3 3.53e-4 0.01 3.53e-4 0.17392 0 0.31715-0.13794 0.32208-0.31327 5e-3 -0.17745-0.13476-0.32597-0.31291-0.33126" fill="#523844"/>
  <path d="m-300.41-91.535c-0.45261 0.01658-1.3317-0.4953-1.7815-0.82374-0.14394-0.10478-0.34502-0.07373-0.45015 0.0702-0.10513 0.14358-0.0741 0.34502 0.0699 0.4505 0.13476 0.09842 1.3201 0.94827 2.141 0.94827 0.0159 0 0.0317-3.53e-4 0.0473-0.0011 0.1778-0.0074 0.31644-0.15769 0.30868-0.33549-7e-3 -0.1778-0.15416-0.31997-0.33514-0.30868" fill="#8d7568"/>
  <path d="m-286.84-67.129c-9.301 1.4954-19.032 0.14005-23.477-0.47872-0.0953-0.01305-0.18557-0.02575-0.27447-0.03881-0.0899 0.2032-0.17392 0.40781-0.25294 0.61595 0.14358 0.0194 0.29034 0.03986 0.43851 0.06103 2.9898 0.41592 8.3517 1.1638 14.384 1.1638 3.0318 0 6.2325-0.18838 9.3864-0.70273-0.0624-0.20779-0.13052-0.41592-0.20461-0.62054" fill="#ccbf9d"/>
  <path d="m-266.32-63.641c-0.0205-0.08255-0.0416-0.17462-0.0741-0.24836-0.0628-0.15487-0.14182-0.28363-0.22543-0.39793-0.16933-0.22578-0.34995-0.37077-0.5274-0.508-0.35595-0.25929-0.71049-0.43815-1.0619-0.59443-0.70273-0.30656-1.4055-0.52387-2.1082-0.71579-1.4051-0.37536-2.8138-0.64135-4.2256-0.86713-0.7045-0.11112-1.41-0.21096-2.116-0.30304 0.0367 0.4258 0.0755 0.85266 0.1143 1.2831 0.5976 0.09349 1.1927 0.19191 1.7854 0.29633 1.3783 0.24694 2.7496 0.53199 4.071 0.91228 0.65934 0.19191 1.3088 0.40958 1.8986 0.68016 0.29175 0.1337 0.56903 0.28822 0.78035 0.44979 0.10124 0.08043 0.19508 0.1644 0.23353 0.22719 0.0176 0.02399 0.0258 0.04198 0.0307 0.05186 3e-3 -0.0067 3e-3 -0.0035 5e-3 6e-3v0.0049c0-0.0032-2e-3 -0.0063-5e-3 -0.01094-4e-3 0.0078-0.0131 0.02716-0.0388 0.05927-0.0406 0.05962-0.13547 0.14041-0.23671 0.21625-0.21449 0.15593-0.49178 0.30268-0.78529 0.43145-0.59125 0.25823-1.2421 0.46108-1.9029 0.64029-1.3233 0.35454-2.6966 0.61383-4.0764 0.83467-0.43815 0.06914-0.87806 0.1337-1.318 0.19332-2.334 0.32561-4.6902 0.54504-7.0499 0.72072-0.89429 0.06738-1.7903 0.12876-2.6864 0.18027-1.9131 0.11465-3.8308 0.1965-5.7492 0.25612-2.8152 0.09384-5.6339 0.14217-8.4533 0.14676-2.8187 0.0099-5.6374-0.02893-8.4533-0.12241-2.8155-0.09172-5.631-0.23036-8.4356-0.44803-2.522-0.19685-5.0412-0.4385-7.5325-0.80257-0.27905-0.04057-0.55774-0.08396-0.83503-0.12735-1.3783-0.21943-2.751-0.47872-4.076-0.83326-0.65899-0.17745-1.3102-0.38206-1.9036-0.63853-0.29175-0.12876-0.57044-0.27552-0.78458-0.43145-0.1016-0.07585-0.19509-0.15804-0.23707-0.21625-0.0258-0.0321-0.0356-0.05151-0.0388-0.05927-3e-3 0.0046-5e-3 0.0078-5e-3 0.01094v-0.0049c2e-3 -0.0095 2e-3 -0.0127 5e-3 -6e-3 5e-3 -0.0099 0.013-0.02787 0.0307-0.05186 0.0388-0.06279 0.13229-0.14676 0.23354-0.22719 0.21308-0.16157 0.4886-0.31609 0.77999-0.45156 0.5902-0.27023 1.2397-0.48824 1.8986-0.68016 1.3215-0.38029 2.6935-0.66534 4.0711-0.91193 0.99659-0.17568 1.9971-0.33196 3.0011-0.47378l0.54821-1.3042c-1.2559 0.14217-2.5093 0.30833-3.7634 0.50624-1.4118 0.22578-2.8205 0.49001-4.2277 0.86536-0.70238 0.19191-1.4034 0.40781-2.1078 0.71437-0.35136 0.15769-0.70414 0.33514-1.0604 0.59443-0.17744 0.13723-0.35807 0.28363-0.52846 0.508-0.084 0.1143-0.16298 0.24306-0.22577 0.39793-0.0321 0.07373-0.0533 0.16581-0.0744 0.24836-0.0173 0.08855-0.024 0.18168-0.0289 0.27199 5e-3 0.09208 0.01 0.18556 0.0261 0.2727 0.0208 0.08361 0.042 0.17568 0.0727 0.25118 0.061 0.15663 0.14005 0.2854 0.22225 0.40146 0.16757 0.22895 0.34819 0.37853 0.52387 0.51717 0.35455 0.26776 0.70732 0.4512 1.0569 0.6156 0.70132 0.31926 1.4023 0.54998 2.1036 0.75459 1.3536 0.38806 2.7104 0.67345 4.0711 0.92004 0.0501 0.0099 0.0998 0.01764 0.14993 0.02752 2.8219 0.49671 5.6518 0.83785 8.4868 1.0975 5.6702 0.51569 11.355 0.72351 17.037 0.74609 1.422 0 2.8416-0.01087 4.263-0.03528 1.4203-0.02575 2.8416-0.07094 4.2612-0.12912 1.8634-0.07895 3.7282-0.18835 5.5894-0.32558 0.97543-0.07408 1.9502-0.15452 2.9252-0.24306 2.3516-0.22401 4.6997-0.49812 7.0432-0.87207 0.4819-0.07585 0.96238-0.15628 1.4425-0.24165 1.41-0.25294 2.8169-0.54328 4.221-0.94615 0.70097-0.20461 1.4019-0.43356 2.1033-0.75424 0.35136-0.16298 0.70273-0.34819 1.0573-0.61419 0.17569-0.14005 0.35596-0.28822 0.52353-0.51717 0.0822-0.11606 0.16121-0.24483 0.2226-0.40146 0.0307-0.07549 0.0515-0.16757 0.0727-0.25118 0.0159-0.08714 0.0222-0.18062 0.0254-0.2727-5e-3 -0.09031-0.0109-0.18344-0.0289-0.27199" fill="#ff6e95"/>
 </g>
</svg>
