<?xml version="1.0" encoding="UTF-8"?>
<!-- Created with Inkscape (http://www.inkscape.org/) -->
<svg width="74.307mm" height="88.597mm" version="1.1" viewBox="0 0 74.307 88.597" xmlns="http://www.w3.org/2000/svg">
 <g transform="translate(-113.8 -87.862)">
  <path d="m172.7 109.39c-0.37677-1.0668-0.82374-2.0761-1.3335-3.0268-11.763 1.7681-28.079 0.0127-35.669-1.0033-0.53269 0.98743-0.96767 2.0087-1.3518 3.0596 7.0714 0.99624 25.79 3.2251 38.354 0.97049" fill="#fff"/>
  <path d="m171.36 106.37c-0.57468-1.0714-1.2287-2.068-1.9509-2.988-10.552 1.2079-23.962-0.0402-31.678-0.99801-0.82303 0.95603-1.4841 1.9516-2.0398 2.9827 7.59 1.016 23.906 2.7714 35.669 1.0033" fill="#fe554c"/>
  <path d="m173.55 112.48c-0.22049-1.0756-0.5073-2.1036-0.85337-3.0833-12.564 2.2546-31.283 0.0258-38.354-0.97049-0.36795 1.0068-0.69074 2.0412-1.0079 3.1009 6.2452 0.91581 27.022 3.6004 40.215 0.95286" fill="#fe554c"/>
  <path d="m154.25 95.577c1.5776-0.64135 3.8047-1.5395 5.177-2.062-0.0363-2.0489-0.38558-4.3057-1.7064-5.1862-2.4194-1.6129-7.2595 0.95991-8.6325 7.6119 1.7096-0.33655 3.4442-0.45508 5.1618-0.36371" fill="#eaba55"/>
  <path d="m159.31 96.472c0.0596-0.73872 0.13652-1.8154 0.11641-2.957-1.3723 0.52246-3.5994 1.4206-5.177 2.062 1.7184 0.09137 3.4195 0.39158 5.0606 0.895" fill="#d69829"/>
  <path d="m169.6 100.56c0.7433-1.2234 1.3346-2.7379 0.64135-3.8894-1.0777-1.7903-5.7298 0.29069-7.5297 1.185 1.4355 0.73695 2.7912 1.6464 4.0333 2.721 0.89994-0.0215 2.1424-0.0423 2.855-0.0166" fill="#eaba55"/>
  <path d="m166.74 100.57c0.58596 0.50729 1.1465 1.0509 1.6782 1.6312 0.31221-0.38735 0.76694-0.97296 1.1769-1.6478-0.71261-0.0258-1.9551-5e-3 -2.855 0.0166" fill="#d69829"/>
  <path d="m169 102.86c-0.18838-0.22472-0.38135-0.44415-0.57785-0.65899-0.53163-0.58032-1.0922-1.124-1.6782-1.6312-1.2421-1.0746-2.5978-1.984-4.0333-2.721-0.59196-0.30374-1.1966-0.57891-1.8129-0.82374-0.52176-0.20743-1.0516-0.39335-1.5875-0.55774-1.6411-0.50341-3.3422-0.80363-5.0606-0.895-1.7177-0.09137-3.4523 0.02716-5.1618 0.36371-3.3355 0.65687-6.5737 2.1424-9.3966 4.5163-0.73942 0.6223-1.3843 1.2636-1.9526 1.9237 7.716 0.95779 21.126 2.2059 31.678 0.99801-0.13653-0.17392-0.27517-0.34537-0.41664-0.514" fill="#94901a"/>
  <path d="m175.01 119.65c1.5974-0.27658 3.3084-0.85478 3.4682-2.068 0.24025-1.8242-3.0667-2.8557-4.6112-3.1542 0.11288 0.9084 0.18026 1.8471 0.20002 2.8148 0.30586 0.74754 0.67839 1.687 0.94298 2.4074" fill="#eaba55"/>
  <path d="m174.01 119.79c0.31715-0.0349 0.65546-0.0804 1.0001-0.14005-0.26459-0.72038-0.63712-1.6598-0.94298-2.4074 0.0169 0.82762-2e-3 1.6771-0.0572 2.5474" fill="#d69829"/>
  <g fill="#696507">
   <path d="m132.8 137.07c-0.70203-0.44485-1.3635-0.9151-1.9865-1.403l-4.5752 0.25436c2.4698 1.3977 7.8038 4.0192 13.499 4.3138-2.5573-0.79763-4.9096-1.8796-6.9374-3.1651"/>
   <path d="m166.34 136.72c-2.6176 1.7671-5.3926 3.017-8.2155 3.8259 5.6289 0.40569 10.963-3.2882 13.404-5.2836-1.1035 9e-3 -2.2359 0.018-3.3877 0.0264-0.56092 0.51929-1.1614 0.99942-1.8009 1.4312"/>
   <path d="m130.84 142.75s-1.5818 4.0118-2.172 6.3553l2.0906-0.0533c-0.19861-3.4939 0.0434-6.15 0.0815-6.302"/>
  </g>
  <g fill="#eaba55">
   <path d="m157.43 171.52c-1.4566-0.0289-3.0879-0.16898-4.801-0.43039-2.4271-0.36724-5.0186-0.97331-7.512-1.8373-1.9487-0.67346-3.8358-1.5035-5.5379-2.4998-0.39652-0.23036-0.78316-0.47201-1.1571-0.72178-0.8509-0.56727-1.6408-1.1814-2.353-1.8436-1.676-1.5603-2.843-3.6894-3.6506-6.0022-0.0836-0.24165-0.16439-0.4833-0.24165-0.72848 0.32561-1.4972 0.7881-2.8593 1.3635-4.0696 0.0998-0.21096 0.20285-0.41557 0.30939-0.61701 0.8509-1.6069 1.9082-2.9139 3.1027-3.8746 1.3906-1.1187 2.9637-1.7681 4.614-1.8711 2.9623-0.1404 5.3862 0.45297 7.3656 1.5667 0.7299 0.41098 1.3988 0.89253 2.013 1.4358 0.61066 0.53834 1.1652 1.1363 1.6697 1.784 0.14499 0.1838 0.28363 0.37253 0.4191 0.56445 2.3206 3.2812 3.4745 7.6489 4.0033 11.879 0.0272 0.21449 0.0515 0.42863 0.0758 0.64171 0.25929 2.3386 0.33513 4.6157 0.31714 6.6238"/>
   <path d="m178.79 160.05c0.21025-1.053 0.27058-2.2454-0.33409-2.4578-0.85866-0.30162-2.0338 0.82409-2.6028 1.4496 0.5588 0.36018 1.1469 0.72213 1.7582 1.0763 0.45862-0.0247 0.89782-0.0483 1.1786-0.0681"/>
   <path d="m182.48 161.82c0.0607-0.84278-0.0212-1.8284-0.60607-2.0292-0.77046-0.26423-1.6834 0.78881-2.1678 1.4545 0.56233 0.27799 1.136 0.54116 1.7166 0.78317 0.38417-0.0787 0.76694-0.15487 1.0573-0.2085"/>
  </g>
  <path d="m178.64 160.69c0.0533-0.20108 0.10477-0.41874 0.14958-0.64346-0.28082 0.0198-0.72002 0.0434-1.1786 0.0681 0.33655 0.19509 0.67981 0.38735 1.0291 0.57538" fill="#d69829"/>
  <path d="m182.41 162.41c0.0279-0.17956 0.0519-0.38347 0.0674-0.59655-0.29033 0.0536-0.6731 0.12983-1.0573 0.2085 0.32808 0.13687 0.65828 0.26634 0.98989 0.38805" fill="#d69829"/>
  <path d="m172.19 168.15c0.68862 0.0258 1.3924-0.0109 2.1004-0.0988-0.43921-1.4182-1.4372-4.4768-2.1004-6.538v6.6368" fill="#696507"/>
  <path d="m166.35 148.15c1.5074 0.81069 4.2058 2.2853 5.8374 3.1351v-3.2833l-5.8374 0.14816" fill="#696507"/>
  <path d="m186.89 138.33c0.44097 0 0.85619 0.0586 1.221 0.16157 7e-3 -1.9918-0.0607-3.5013-0.28434-3.4375-0.23072 0.066-7.3212 0.14394-16.303 0.21626-2.4412 1.9953-7.7752 5.6892-13.404 5.2836 2.8229-0.80892 5.5979-2.0588 8.2155-3.8259 0.63958-0.4318 1.24-0.91193 1.8009-1.4312 0.63852-0.59019 1.2241-1.2333 1.7494-1.9219 1.052-1.3783 1.8669-2.9355 2.3929-4.6122 0.8054-2.5686 1.3219-5.0048 1.5861-7.3039 0.0649-0.56303 0.11466-1.1176 0.14958-1.664 0.0554-0.8703 0.0741-1.7198 0.0572-2.5474-0.0198-0.96767-0.0871-1.9064-0.20002-2.8148-0.0829-0.6671-0.1898-1.318-0.31997-1.9523-13.193 2.6476-33.97-0.037-40.215-0.95286-0.67592 2.2585-1.3314 4.632-2.3692 7.0979-2.5806-0.91334-4.0686-0.0773-4.2753 2.8095-4.65-0.55033-3.8534 6.4135 1.8489 12.206 0.68651 0.69709 1.4443 1.3772 2.2719 2.0253 0.623 0.4879 1.2845 0.95815 1.9865 1.403 2.0278 1.2855 4.3801 2.3675 6.9374 3.1651-5.6952-0.29457-11.029-2.9161-13.499-4.3138l-12.432 0.69074 0.23389 1.7251c0.084-5e-3 0.16863-7e-3 0.25436-7e-3 1.4506 0 2.6264 0.62865 2.6264 1.4048 0 0.75283-1.1091 1.366-2.5008 1.4012l0.11677 0.85901c0.10936-7e-3 0.22013-0.0127 0.33337-0.0127 1.4506 0 2.6264 0.62901 2.6264 1.4048 0 0.76764-1.1515 1.3903-2.5806 1.4037l0.63077 4.6461 13.127-0.33231c0.5902-2.3435 2.172-6.3553 2.172-6.3553-0.0381 0.15205-0.2801 2.8081-0.0815 6.302 0.0409 0.71367 0.0995 1.4616 0.18274 2.2313 0.21519 2.0002 0.59267 4.1412 1.2284 6.174 0.8322-3.8319 2.5707-6.7878 4.7752-8.5619 1.39-1.1187 2.9644-1.7681 4.614-1.8701 2.9626-0.14111 5.3859 0.45261 7.3649 1.5663 0.73025 0.41099 1.3998 0.89288 2.014 1.4351 5.5562 4.905 6.543 14.731 6.4844 21.494-0.0173 1.9748-0.12347 3.6883-0.23107 4.9421h6.8693c7e-4 -9e-3 1e-3 -0.0183 2e-3 -0.0275 0.13829-1.4439 0.87666-2.5545 1.6489-2.4804 0.72883 0.0698 1.227 1.1702 1.1642 2.5079h1.4379c7.1e-4 -9e-3 1e-3 -0.0183 2e-3 -0.0275 0.13829-1.4439 0.8763-2.5545 1.6485-2.4804 0.72919 0.0698 1.2273 1.1702 1.1645 2.5079h1.0594v-14.944c0.66322 2.0613 1.6612 5.1199 2.1004 6.538 5.7242-0.71049 11.702-4.6944 11.702-4.6944-1.0326-0.15311-2.0786-0.4251-3.1136-0.77999-0.15734-0.0536-0.31398-0.10972-0.47026-0.16722-0.33161-0.12171-0.66181-0.25118-0.98989-0.38805-0.58067-0.24201-1.1543-0.50518-1.7166-0.78317-0.25999-0.12841-0.51752-0.26035-0.77258-0.39441-0.0988-0.0522-0.1972-0.10442-0.29492-0.15734-0.34925-0.18803-0.69251-0.38029-1.0291-0.57538-0.61136-0.35419-1.1994-0.71614-1.7582-1.0763-1.4658-0.9458-2.7266-1.8761-3.6576-2.6032v-5.1527c-1.6316-0.84984-4.33-2.3244-5.8374-3.1351l5.8374-0.14816 2.0154-0.0508 13.62-0.34537s0.0579-1.1476 0.12136-2.7478c-0.32385 0.0762-0.68122 0.11924-1.058 0.11924-1.4503 0-2.6261-0.62865-2.6261-1.4048 0-0.77576 1.1758-1.4044 2.6261-1.4044 0.41204 0 0.8008 0.0522 1.1476 0.14252 0.0134-0.43709 0.0258-0.88088 0.0363-1.3226-0.35595 0.0967-0.75742 0.15205-1.1839 0.15205-1.4503 0-2.6261-0.62901-2.6261-1.4044 0-0.77611 1.1758-1.4048 2.6261-1.4048" fill="#94901a"/>
  <g fill="#eaba55">
   <path d="m184.26 139.73c0 0.7754 1.1758 1.4044 2.6261 1.4044 0.4265 0 0.82797-0.0554 1.1839-0.15205 0.0205-0.86254 0.0346-1.7159 0.037-2.4956-0.36477-0.10301-0.77999-0.16157-1.221-0.16157-1.4503 0-2.6261 0.62865-2.6261 1.4048"/>
   <path d="m186.89 142.16c-1.4503 0-2.6261 0.62865-2.6261 1.4044 0 0.77611 1.1758 1.4048 2.6261 1.4048 0.37676 0 0.73413-0.043 1.058-0.11924 0.0303-0.77011 0.0624-1.6446 0.0896-2.5474-0.34678-0.0903-0.73554-0.14252-1.1476-0.14252"/>
   <path d="m116.92 139.73c0-0.77611-1.1758-1.4048-2.6264-1.4048-0.0857 0-0.17039 2e-3 -0.25436 7e-3l0.37995 2.7993c1.3917-0.0353 2.5008-0.6484 2.5008-1.4012"/>
   <path d="m117.5 143.38c0-0.77576-1.1758-1.4048-2.6264-1.4048-0.11324 0-0.22401 5e-3 -0.33337 0.0127l0.37923 2.7958c1.4291-0.0134 2.5806-0.63606 2.5806-1.4037"/>
   <path d="m127.21 173.49c-0.72743-0.27023-1.7268 0.61242-2.2324 1.972-0.12629 0.33937-0.20955 0.67627-0.25258 0.99483h2.8797c2e-3 -5e-3 4e-3 -0.0102 6e-3 -0.0159 0.50553-1.3593 0.32597-2.6804-0.40111-2.951"/>
   <path d="m131.94 173.49c-0.72743-0.27023-1.7268 0.61242-2.2324 1.972-0.12594 0.33937-0.20955 0.67627-0.25224 0.99483h2.8794c2e-3 -5e-3 4e-3 -0.0102 6e-3 -0.0159 0.50553-1.3593 0.32597-2.6804-0.4011-2.951"/>
   <path d="m169.97 173.95c-0.77223-0.0741-1.5102 1.0365-1.6485 2.4804-7.1e-4 9e-3 -1e-3 0.0183-2e-3 0.0275h2.8148c0.0628-1.3377-0.43533-2.438-1.1645-2.5079"/>
   <path d="m165.72 173.95c-0.77223-0.0741-1.5106 1.0365-1.6489 2.4804-7e-4 9e-3 -1e-3 0.0183-2e-3 0.0275h2.8148c0.0628-1.3377-0.43533-2.438-1.1642-2.5079"/>
  </g>
  <path d="m135.5 163.62c-1.3797-1.4916-2.3752-3.3916-3.0889-5.4367-0.15099 0.11112-0.29986 0.22577-0.44662 0.34254-7.0647 5.6349-9.2777 17.936-9.2777 17.936h2.0362c0.043-0.31856 0.12629-0.65546 0.25258-0.99483 0.50553-1.3596 1.505-2.2423 2.2324-1.972 0.72708 0.27058 0.90664 1.5917 0.40111 2.951-2e-3 6e-3 -4e-3 0.0106-6e-3 0.0159h1.8468c0.0427-0.31856 0.1263-0.65546 0.25224-0.99483 0.50553-1.3596 1.505-2.2423 2.2324-1.972 0.72707 0.27058 0.90663 1.5917 0.4011 2.951-2e-3 6e-3 -4e-3 0.0106-6e-3 0.0159h7.3946c0.54892-3.0593 2.2454-5.0331 3.9084-6.2717-4.4027-1.651-6.8569-4.5007-8.1319-6.5701" fill="#94901a"/>
  <path d="m136.07 164.18c-0.19438-0.18097-0.381-0.37006-0.56198-0.56585 1.2749 2.0694 3.7292 4.9191 8.1319 6.5701 0.50695-0.37747 1.0104-0.68721 1.4778-0.93804-3.4322-1.1874-6.6774-2.8607-9.0477-5.0662" fill="#696507"/>
  <path d="m144.8 121.43c0 2.2257-1.4023 4.0386-3.1605 4.1307-0.0452 1e-3 -0.0917 3e-3 -0.13864 3e-3 -1.821 0-3.2974-1.8503-3.2974-4.1338 0-0.3563 0.0356-0.70132 0.10301-1.0298 0.36583-1.7844 1.657-3.1027 3.1944-3.1027 1.8228 0 3.2992 1.8503 3.2992 4.1324" fill="#fff"/>
  <path d="m142.32 123.18c0 0.9218-0.25788 1.7582-0.67698 2.3788-0.0452 1e-3 -0.0917 3e-3 -0.13864 3e-3 -1.821 0-3.2974-1.8503-3.2974-4.1338 0-0.3563 0.0356-0.70132 0.10301-1.0298 0.4191-0.4385 0.9398-0.69956 1.5053-0.69956 1.3829 0 2.5047 1.5582 2.5047 3.4812" fill="#1c8c9e"/>
  <path d="m158.12 121.43c0 2.2257-1.4023 4.0386-3.1605 4.1307-0.0452 1e-3 -0.0917 3e-3 -0.13864 3e-3 -1.8214 0-3.2974-1.8503-3.2974-4.1338 0-0.3563 0.0353-0.70132 0.10301-1.0298 0.36583-1.7844 1.6566-3.1027 3.1944-3.1027 1.8228 0 3.2992 1.8503 3.2992 4.1324" fill="#fff"/>
  <path d="m155.64 123.18c0 0.9218-0.25788 1.7582-0.67698 2.3788-0.0452 1e-3 -0.0917 3e-3 -0.13864 3e-3 -1.8214 0-3.2974-1.8503-3.2974-4.1338 0-0.3563 0.0353-0.70132 0.10301-1.0298 0.4191-0.4385 0.9398-0.69956 1.5053-0.69956 1.3829 0 2.5047 1.5582 2.5047 3.4812" fill="#1c8c9e"/>
  <path d="m165.9 126.69c-2.3304-1.3533-2.4444-4.4926-2.4458-4.5339-4e-3 -0.1778-0.15381-0.31785-0.32984-0.31397-0.17816 4e-3 -0.31856 0.15204-0.31433 0.32984 2e-3 0.0822 0.0402 1.2234 0.5655 2.474-1.0442 0.98496-6.9846 6.3578-13.537 7.6249-0.17462 0.0339-0.28928 0.20285-0.25541 0.37783 0.03 0.15381 0.16475 0.26105 0.31609 0.26105 0.0205 0 0.0409-2e-3 0.0617-6e-3 6.4512-1.2478 12.295-6.3436 13.708-7.6503 0.40958 0.74507 1.0139 1.4746 1.9075 1.9936 0.0512 0.0296 0.10654 0.0437 0.16157 0.0437 0.11113 0 0.21943-0.0575 0.27905-0.16051 0.0892-0.15417 0.0374-0.35137-0.11677-0.44062" fill="#4f4c05"/>
  <path d="m161.05 130.6c-0.64452 0.26741-1.4474-0.10336-2.0468-0.86077-0.0903 0.54292-0.37254 0.95391-0.77999 1.046-0.22437 0.0501-0.45615-3e-3 -0.67205-0.13546 0.28505 1.3892-0.19826 2.6624-1.101 2.8656-0.60924 0.13864-1.2569-0.24977-1.7163-0.9398 0.0628 1.1476-0.40146 2.1131-1.1765 2.2888-0.9204 0.20779-1.9262-0.7754-2.2468-2.1953-6e-3 -0.0258-0.0113-0.0529-0.0176-0.0787 4.0841-1.1201 7.807-3.6153 10.152-5.4508 0.0628 0.11747 0.12277 0.24165 0.17569 0.37041 0.55774 1.3458 0.30127 2.7287-0.57045 3.09" fill="#fff"/>
  <path d="m128.04 126.61c0.41098 0.88795 0.40957 1.7625-4e-3 1.954-0.41311 0.19121-1.0813-0.37324-1.4926-1.2608-0.41134-0.88723-0.40957-1.7621 4e-3 -1.9533 0.41346-0.19156 1.0816 0.37289 1.493 1.2601" fill="#4f4c05"/>
  <path d="m131.59 123.27c0.41134 0.88759 0.40958 1.7621-4e-3 1.9537-0.41346 0.19155-1.0816-0.37289-1.4926-1.2605-0.41134-0.88759-0.40957-1.7621 4e-3 -1.9537 0.4131-0.19121 1.0813 0.37288 1.4926 1.2605" fill="#4f4c05"/>
  <path d="m177.92 153.32c-0.0356-0.28223-0.14535-0.54152-0.27905-0.74648-0.0677-0.10795-0.14182-0.19156-0.2159-0.28046-0.0759-0.0755-0.1531-0.15769-0.23213-0.21907-0.31432-0.26424-0.63182-0.43674-0.94262-0.58174-0.62547-0.28363-1.2411-0.45437-1.8553-0.60289-0.73483-0.16898-1.4683-0.29316-2.1999-0.38841v1.4263c0.62689 0.10336 1.246 0.22895 1.8471 0.38382 0.55104 0.14676 1.0957 0.31927 1.56 0.54787 0.23213 0.11288 0.44168 0.24482 0.58349 0.37394 0.0402 0.0321 0.0628 0.0628 0.0935 0.0917 0.0194 0.0293 0.0466 0.0582 0.0564 0.0808 0.0272 0.0466 0.0321 0.0723 0.0339 0.0903-2e-3 0.0176-5e-3 0.0416-0.0243 0.0917-5e-3 0.0226-0.0272 0.055-0.0402 0.0854-0.0257 0.0339-0.042 0.0677-0.0741 0.10654-0.11465 0.14993-0.29351 0.3175-0.49636 0.47061-0.40816 0.31115-0.90417 0.5849-1.4122 0.83502-0.6798 0.3302-1.3956 0.62019-2.1272 0.88301-0.37077 0.13546-0.74612 0.26282-1.1232 0.38664-2.2451 0.72355-4.5646 1.2816-6.8965 1.7681-2.3304 0.49636-4.6852 0.90417-7.0464 1.2651-1.1797 0.18698-2.3626 0.35313-3.5472 0.51577-1.1832 0.16298-2.3693 0.30973-3.5571 0.44661-2.3738 0.28046-4.7544 0.51082-7.1381 0.67839-2.3823 0.16934-4.7688 0.29351-7.1526 0.32562-2.1516 0.0289-4.305 0.0113-6.4308-0.14676-0.2286-0.0159-0.45755-0.0353-0.68474-0.0547-1.1737-0.10654-2.3421-0.25612-3.4523-0.51082-0.5514-0.13053-1.0975-0.28681-1.5635-0.49812-0.23353-0.10478-0.44308-0.22719-0.58808-0.34819-0.0402-0.0289-0.0645-0.0579-0.097-0.0854-0.0191-0.0275-0.048-0.0529-0.0596-0.0741-0.0289-0.0452-0.037-0.0677-0.0434-0.0854-1e-3 -0.0162-3e-3 -0.0434 0.0131-0.0952 5e-3 -0.024 0.024-0.0579 0.037-0.0903 0.024-0.0353 0.0385-0.0709 0.0709-0.11113 0.10972-0.15769 0.28364-0.33337 0.48331-0.49459 0.40287-0.32738 0.89464-0.61736 1.3991-0.88336 1.0185-0.53022 2.1191-0.96837 3.2329-1.3667 1.1716-0.41416 2.3661-0.78634 3.5715-1.125-0.0935-0.41098-0.17886-0.82338-0.25611-1.2344-1.2587 0.31574-2.5111 0.66534-3.7553 1.07-1.1635 0.38029-2.3174 0.80257-3.4523 1.3522-0.5655 0.28046-1.1282 0.58526-1.6743 1.0008-0.27093 0.20955-0.54328 0.44802-0.78987 0.7754-0.0628 0.079-0.11924 0.17568-0.17568 0.26564-0.0547 0.10337-0.10795 0.20179-0.14817 0.32244-0.0857 0.22895-0.13547 0.50765-0.10478 0.78987 0.0289 0.28187 0.13547 0.54645 0.26741 0.75424 0.0663 0.10971 0.13864 0.19509 0.21273 0.2854 0.0744 0.0787 0.15169 0.16263 0.22895 0.22542 0.31115 0.27235 0.62865 0.45297 0.93803 0.60607 0.62372 0.30128 1.2393 0.48825 1.8535 0.65264 1.112 0.28681 2.2193 0.46743 3.3232 0.60431 0.11606 0.0162 0.23036 0.0293 0.34642 0.0438 2.4416 0.27869 4.8754 0.38347 7.3074 0.39969 4.8609 0.024 9.7039-0.29351 14.523-0.80927 1.204-0.13688 2.4063-0.28504 3.6086-0.44803 1.2008-0.16439 2.3982-0.3496 3.5941-0.54962 2.3918-0.40605 4.7724-0.88477 7.1381-1.4425 2.3643-0.57044 4.7128-1.2167 7.0288-2.0387 0.58667-0.20955 1.1716-0.42862 1.7519-0.67204 0.56374-0.23354 1.125-0.49001 1.681-0.77681 0.56233-0.2981 1.1201-0.61737 1.6598-1.0492 0.26917-0.21766 0.53834-0.46425 0.77999-0.79939 0.0614-0.0808 0.11783-0.17886 0.17251-0.27093 0.0533-0.10478 0.10477-0.20461 0.14499-0.32703 0.0808-0.23213 0.12594-0.51258 0.0938-0.79445" fill="#fe554c"/>
  <g fill="#e7e4e7">
   <path d="m119.45 159.63c-0.031-0.33443 0.0744-0.65723 0.29739-0.90911 0.11783-0.13335 0.10513-0.33726-0.0282-0.45508-0.13335-0.11783-0.3369-0.10513-0.45508 0.0279-0.3369 0.381-0.50306 0.8897-0.45579 1.3959 0.0423 0.45649 0.25153 0.87877 0.58843 1.1889 0.0621 0.0568 0.14006 0.085 0.21802 0.085 0.0871 0 0.17392-0.0349 0.23742-0.10407 0.12065-0.13123 0.11218-0.33514-0.019-0.45579-0.21908-0.20144-0.3556-0.47625-0.38312-0.77364"/>
   <path d="m117.82 159.79c-0.031-0.33479 0.0744-0.65758 0.29703-0.90946 0.11818-0.13335 0.10548-0.3369-0.0275-0.45473-0.13371-0.11783-0.33691-0.10548-0.45509 0.0275-0.33725 0.381-0.50341 0.89005-0.45614 1.3963 0.0423 0.45649 0.25153 0.87842 0.58844 1.1885 0.0621 0.0572 0.1404 0.0854 0.21801 0.0854 0.0871 0 0.17392-0.0353 0.23742-0.10442 0.12065-0.13088 0.11219-0.33479-0.0187-0.45544-0.21942-0.20179-0.3556-0.4766-0.38346-0.77364"/>
   <path d="m180.06 151.6c-0.16016-0.0783-0.35313-0.0123-0.4311 0.14746-0.0783 0.15981-0.0123 0.35313 0.14746 0.43109 0.26776 0.13124 0.47625 0.35631 0.58738 0.63324 0.12523 0.31185 0.11571 0.65123-0.0265 0.95603-0.0748 0.16157-5e-3 0.35313 0.15628 0.42827 0.0441 0.0208 0.0903 0.0303 0.13617 0.0303 0.12101 0 0.23742-0.0691 0.29246-0.18627 0.21448-0.46108 0.2293-0.9966 0.0399-1.4683-0.17039-0.4251-0.49071-0.77047-0.90205-0.9719"/>
   <path d="m182.47 151.96c-0.17074-0.42545-0.49142-0.77082-0.90276-0.97225-0.15945-0.0783-0.35277-0.0116-0.43109 0.14781-0.0783 0.16016-0.012 0.35313 0.14781 0.43145 0.26776 0.13088 0.47625 0.3556 0.58738 0.63288 0.12524 0.31186 0.11571 0.65158-0.0261 0.95603-0.0751 0.16157-5e-3 0.35313 0.15593 0.42827 0.0441 0.0205 0.0903 0.0303 0.13617 0.0303 0.12101 0 0.23742-0.0691 0.2921-0.18626 0.21485-0.46073 0.22966-0.9959 0.0406-1.4683"/>
  </g>
  <path d="m153.03 152.37c-4.4341 1.0555-8.9482 1.355-12.642 1.355-2.9722 0-5.412-0.19296-6.8513-0.34325 0.0998-0.21096 0.20285-0.41557 0.30939-0.61701 3.3009 0.32879 11.129 0.80575 18.765-0.9592 0.14499 0.1838 0.28363 0.37253 0.4191 0.56445" fill="#d69829"/>
  <path d="m157.11 164.89c-2.4564 0.59302-8.6953 1.9159-15.213 1.9159-0.77188 0-1.5473-0.019-2.3209-0.0596-0.39652-0.23036-0.78316-0.47201-1.1571-0.72178 7.6525 0.64453 15.824-1.101 18.615-1.7762 0.0272 0.21449 0.0515 0.42863 0.0758 0.64171" fill="#d69829"/>
  <g fill="#696507">
   <path d="m167.61 162.71c0 0.85337-0.38946 1.5452-0.8703 1.5452-0.48048 0-0.8703-0.69179-0.8703-1.5452 0-0.85372 0.38982-1.5455 0.8703-1.5455 0.48084 0 0.8703 0.6918 0.8703 1.5455"/>
   <path d="m169.69 162.4c0 0.44697-0.20849 0.80928-0.46566 0.80928-0.25718 0-0.46567-0.36231-0.46567-0.80928s0.20849-0.80892 0.46567-0.80892c0.25717 0 0.46566 0.36195 0.46566 0.80892"/>
   <path d="m169.34 165.91c0 0.55633-0.28046 1.0079-0.62618 1.0079s-0.62583-0.45155-0.62583-1.0079 0.28011-1.0079 0.62583-1.0079 0.62618 0.45156 0.62618 1.0079"/>
  </g>
 </g>
</svg>
