<?xml version="1.0" encoding="UTF-8"?>
<!-- Created with Inkscape (http://www.inkscape.org/) -->
<svg width="114.47mm" height="101.73mm" version="1.1" viewBox="0 0 114.47 101.73" xmlns="http://www.w3.org/2000/svg">
 <g transform="translate(291.72 31.567)">
  <path d="m-192.88 5.1232-0.99272-2.0264-1.2993-2.6515c-6.2385 5.9863-15.712 8.9369-19.938 10.093-1.1684-2.1512-2.1163-4.0612-2.6352-5.4635-6.4752 1.1938-13.43-2.6547-13.43-2.6547 8.3365 2.4737 13.009 1.0996 13.009 1.0996s13.009-1.924 15.757-12.642c0.3175-1.2379 0.5775-2.4158 0.79128-3.5369-1.4224 0.127-3.6347-0.02646-5.7891-1.5931-2.7118-1.9724-1.9487-6.3458-1.4171-8.3566-1.8609 0.24694-3.3203-0.15028-4.6316-0.80786-0.3048-0.1531-0.60184-0.31926-0.89394-0.49565-1.2252-0.73907-2.3664-1.6394-3.658-2.3463-0.0529-0.02893-0.10513-0.05856-0.15875-0.08678-0.46708-0.24694-1.0502-0.5521-1.7307-0.87066-2.8988-1.3582-7.5766-2.9654-12.697-1.4337-0.19474 0.05821-0.39018 0.11994-0.58597 0.18732-0.95708 0.32985-1.9276 0.77399-2.903 1.3508-0.23424 0.13864-0.46919 0.2854-0.70414 0.43991-0.28081 0.1845-0.56198 0.381-0.84314 0.58914-0.0466 0.03493-0.0938 0.06844-0.14076 0.10372-0.06 0.04551-0.11818 0.09207-0.17709 0.13794-0.62477 0.48542-1.197 0.99942-1.7205 1.536-0.35348 0.36266-0.68545 0.73519-0.99624 1.1158-0.74437 0.91122-1.3695 1.868-1.8934 2.8406 0.32561 0.1531 0.57009 0.45614 0.63006 0.83114 0.47801 2.9711-0.94756 5.5753-1.6432 6.6336-0.21237 0.3235-0.5655 0.52917-0.95215 0.54257-0.1658 0.0053-0.32808 0.0049-0.4893 0.0018-0.30868 2.5386-0.15734 4.4224-0.0868 4.7748 0.1016 0.50941 0.14675 3.4844-0.0695 6.7024-0.0406 0.60501-0.0907 1.2188-0.15134 1.8263-0.10266 1.0301-0.23566 2.0419-0.40605 2.9647-0.0681 0.36971-0.14252 0.72461-0.22296 1.0612-0.10301 0.42968-0.21625 0.82903-0.34113 1.1867-0.11324 0.3242-0.30833 0.81421-0.56339 1.4422 0.82092-0.22013 1.6813-0.47061 2.0698-0.69568-0.41275 0.52246-1.2464 1.4556-2.7164 2.2811-0.58349 0.32808-1.2675 0.63853-2.0659 0.90029-1.9382 0.63465-4.5476 0.97755-8.0229 0.56092-3.6117-0.43215-6.3567-1.0022-8.3975-1.5589-1.5991-0.43568-2.7651-0.86289-3.575-1.2083-1.0763-0.45932-1.5251-0.77505-1.5251-0.77505l-0.89923 3.1482c0.73131 1.0929 1.2361 2.2758 1.5247 3.4921l1.3998-1.04 0.67133 2.3125-1.7819 1.3233c-0.0169 1.6334-0.40498 3.2523-1.1423 4.7251 3.792 1.1278 10.142 2.6515 16.052 2.3738 0.96096-0.04516 1.9103-0.139 2.8353-0.28892 2.5449-0.41275 4.9043-1.2569 6.8079-2.7316 0.72742-0.56374 1.3469-1.1254 1.8718-1.6813 0 0 0 3.52e-4 -3.6e-4 7.05e-4 -0.84384 2.5912-5.8815 6.0985-9.2389 8.1788-0.16334 0.10125-0.32244 0.19897-0.47696 0.29316-0.14711 0.64805-0.2861 1.2993-0.41416 1.9516-0.14393 0.73166-0.27376 1.4644-0.38947 2.1957-0.0825 0.52211-0.15734 1.0432-0.22366 1.5628-0.14217 1.1197-0.24483 2.231-0.29951 3.3256 0.87489-0.20814 2.0775-0.47978 3.1334-0.71473-0.79058 0.47272-1.5342 0.99907-2.2331 1.572-0.32455 0.266-0.63923 0.54257-0.94509 0.82797 7.1e-4 -0.25929 5e-3 -0.51964 0.0113-0.78176-0.37641 0.01446-0.76694 0.02434-1.1691 0.02857-0.61489 0.0067-1.2573-3.53e-4 -1.9209-0.02434-0.127-0.0046-0.254-0.0095-0.38241-0.01552-0.67804-0.0314-1.3762-0.08184-2.087-0.15522-0.76552-0.07938-1.5462-0.18556-2.3333-0.32385-0.54539-0.09631-1.094-0.20779-1.6425-0.3369-0.22119-0.05221-0.44238-0.10583-0.66322-0.16369-1.0598-0.27728-2.116-0.62406-3.1492-1.0506-0.60889-0.25188-1.21-0.53128-1.7988-0.84173-1.0566-0.5581-2.0736-1.2157-3.026-1.9897-0.53647-0.43568-1.3409-0.07796-1.3774 0.61207-0.22941 4.3526 6e-3 15.673 8.2617 18.785 1.2675-2.0941 4.1409-6.4576 7.6637-9.3571-1.9805 3.0875-3.3489 6.6199-4.2922 10.099-0.14075 0.51823-0.27199 1.0354-0.3944 1.5497-0.97649 4.105-1.3924 8.0293-1.5642 10.937 0.79798-0.75078 1.415-1.2668 1.5515-1.2125 0.32385 0.1295 0.69356 2.2274 0.8823 3.4463 0.0624 0.40322 0.51893 0.60784 0.86254 0.38806l5.5316-3.5391c0.47484-0.30413 1.1035-0.0014 1.162 0.55947 0.17498 1.675 0.47555 4.5515 0.53975 5.1915h9.385c0.3937-4.1526 1.1529-7.6369 2.0729-10.532 0.34043-1.071 0.70273-2.061 1.077-2.9743 1.5261-3.7242 3.2473-6.1697 4.4648-7.5984-0.50412 1.7716-1.3868 5.7714-1.9392 8.4384 3.7451 1.0939 7.8038 1.6305 11.758 1.6284 0.97367-6.71e-4 1.9403-0.03457 2.8949-0.10019-0.89747-0.65084-1.7258-1.4744-2.4917-2.4348-2.5732-3.2276-4.4439-8.0039-5.8769-12.994-2.6564-9.253-1.5572-25.743 8.6117-29.408 2.364-0.85196 4.475-1.0248 6.3235-0.78952 2.1156 0.26952 3.8869 1.0739 5.2987 2.0108 2.6606 1.766 4.0432 4.0005 4.0432 4.0005l2.5471 3.5211c2.7566-0.84032 5.176-1.9255 7.251-3.0798-0.17286-1.9565 0.19615-3.912 1.0396-5.6536l-1.5938-3.1337c-0.36442-0.71649-0.50694-1.4877-0.45438-2.2352 0.0744-1.0523 0.53763-2.0581 1.318-2.8 0.56056 0.31997 1.5081 0.80292 2.504 1.0576l-0.47201 0.23989c-0.58314 0.29669-0.95815 0.83961-1.0679 1.4379-0.0773 0.42051-0.0247 0.86748 0.18344 1.2771l0.99766 1.9611c0.90805-1.0904 2.0465-2.0182 3.3912-2.7026 0.50871-0.25859 1.028-0.47202 1.5536-0.64382l-1.5304-3.1242" fill="#cad66b"/>
  <path d="m-207.41-14.253c2.1544 1.5667 4.3667 1.7201 5.7891 1.5931 1.6372-8.5845 0.42404-13.679-0.79128-14.327-1.3741-0.73272-1.4658 3.4812-5.9549 4.3057-0.15628 0.02858-0.30903 0.05186-0.46002 0.07197-0.53163 2.0108-1.2947 6.3842 1.4171 8.3566" fill="#feae3a"/>
  <path d="m-218.01-26.26c1.0929 0.25329 3.0117 0.80645 4.0686 1.1162 0.88159-3.3524-0.0758-6.6252-1.3264-5.1114-1.076 1.3028-3.3136 2.4476-4.6316 3.0378 0.68051 0.31856 1.2636 0.62371 1.7307 0.87066 0.0536 0.02822 0.10583 0.05786 0.15875 0.08678" fill="#feae3a"/>
  <path d="m-214.35-23.913c0.16651-0.40534 0.30198-0.81844 0.41064-1.2301-1.0569-0.30974-2.9757-0.86289-4.0686-1.1162 1.2915 0.70697 2.4328 1.6073 3.658 2.3463" fill="#d4881c"/>
  <path d="m-233.18-28.463c0.19579-0.06738 0.39123-0.12912 0.58597-0.18732-0.44521-0.97508-1.5275-3.0759-2.3368-2.9069-0.59655 0.12382-0.91934 2.1117-1.0809 3.671 0.95991-0.19756 2.8318-0.57714 2.8318-0.57714v3.53e-4" fill="#feae3a"/>
  <path d="m-233.18-28.463v-3.53e-4s-1.8718 0.37959-2.8318 0.57714c-0.0286 0.27517-0.0522 0.53799-0.0713 0.77399 0.97543-0.57679 1.9459-1.0209 2.903-1.3508" fill="#d4881c"/>
  <path d="m-238.45-26.41c-0.93803-1.0252-2.1766-2.1523-2.7524-1.7685-0.74471 0.49636 0.0949 3.5221 0.53658 4.9883 0.31079-0.38065 0.64276-0.75318 0.99624-1.1158 0.31538-0.71473 0.84208-1.5607 1.2196-2.104" fill="#feae3a"/>
  <path d="m-237.95-25.842c-0.15134-0.17815-0.32033-0.37112-0.50095-0.56797-0.37747 0.54328-0.90417 1.3892-1.2196 2.104 0.52352-0.53658 1.0957-1.0506 1.7205-1.536" fill="#d4881c"/>
  <path d="m-241.93-19.518c-0.06-0.375-0.30445-0.67804-0.63006-0.83114-0.13935-0.06526-0.29175-0.10583-0.45368-0.10866-2.1572-0.03704-7.8045-0.11395-11.178 0.01588-0.12277 0.0046 2.2401 7.9696 9.1768 8.1019 0.16122 0.0032 0.3235 0.0035 0.4893-0.0018 0.38665-0.01341 0.73978-0.21908 0.95215-0.54257 0.69568-1.0583 2.1212-3.6625 1.6432-6.6336" fill="#feae3a"/>
  <path d="m-231.18 2.4199s6.9543 3.8485 13.43 2.6547c-0.23248-0.6283-0.381-1.1571-0.42086-1.555 0 0-4.6722 1.3741-13.009-1.0996" fill="#a09552"/>
  <path d="m-245.17-0.86307c-1.5582 0.39017-4.3967 1.3353-4.603 2.6416-0.13652 0.86536 1.3568 1.5378 2.9041 1.9195 0.47872-0.83891 1.1628-2.0514 1.5476-2.7347 0.0607-0.60748 0.11077-1.2213 0.15134-1.8263" fill="#feae3a"/>
  <path d="m-245.32 0.96326c-0.38488 0.68333-1.0689 1.8958-1.5476 2.7347 0.38559 0.09525 0.774 0.17251 1.1416 0.23001 0.17039-0.92287 0.30339-1.9346 0.40605-2.9647" fill="#d4881c"/>
  <path d="m-244.79 6.9224c-0.38841 0.22507-1.2488 0.47554-2.0698 0.69568-0.18556 0.45755-0.40322 0.98742-0.64664 1.5854 1.47-0.8255 2.3036-1.7586 2.7164-2.2811" fill="#a09552"/>
  <path d="m-270.46 13.763c-0.28858-1.2164-0.7934-2.3992-1.5247-3.4921-0.0991-0.14746-0.20144-0.29386-0.30868-0.4378-0.89948-1.2114-2.0055-2.1784-3.2324-2.8907l1.7665-1.3123c0.8938-0.66357 2.1608-0.4766 2.8244 0.41734l1.3744 1.8503c0.80998 0.34537 1.9759 0.77258 3.575 1.2083-0.12665-0.2861-0.2854-0.56303-0.47943-0.82444l-2.6585-3.5796c-1.4076-1.8955-4.0855-2.2909-5.9811-0.88336l-2.8225 2.0966c-3.1247-0.9084-6.6224-0.39688-9.4362 1.6926-4.7762 3.5468-5.7722 10.294-2.2254 15.07 3.547 4.7759 10.294 5.7722 15.07 2.2253 1.4013-1.0407 2.4746-2.3583 3.2055-3.8192 0.73731-1.4728 1.1254-3.0917 1.1423-4.7251l1.7819-1.3233-0.67133-2.3125-1.3998 1.04" fill="#523844"/>
  <path d="m-178.42 13.609c-1.5889-3.1242-4.4933-5.1393-7.6955-5.7175l-1.5938-3.1337c-1.0707-2.1047-3.6446-2.9429-5.7489-1.8722l-0.41592 0.21131 0.99272 2.0264 0.44591-0.22648c0.99236-0.50482 2.2102-0.1083 2.7146 0.88406l0.99766 1.9611c-0.88054 0.05715-1.7628 0.22331-2.6278 0.50553-0.52564 0.1718-1.0449 0.38523-1.5536 0.64382-1.3448 0.68439-2.4832 1.6122-3.3912 2.7026l-0.99766-1.9611c-0.20814-0.40958-0.2607-0.85654-0.18344-1.2771 0.10971-0.59831 0.48472-1.1412 1.0679-1.4379l0.47201-0.23989c-0.99589-0.25471-1.9434-0.73766-2.504-1.0576-0.78035 0.74189-1.2435 1.7477-1.318 2.8-0.0526 0.74754 0.09 1.5187 0.45438 2.2352l1.5938 3.1337c-0.84349 1.7417-1.2125 3.6971-1.0396 5.6536 0.11748 1.3335 0.48437 2.667 1.1285 3.9331 2.697 5.3022 9.1817 7.4143 14.484 4.7177 5.3026-2.6973 7.4147-9.1825 4.7177-14.485" fill="#523844"/>
  <path d="m-212.59 15.001c1.3416 2.3107 2.7573 4.6782 4.0432 6.8407 0.22472 0.37782 0.4505 0.77893 0.67416 1.1984 0.64064-0.15946 1.2647-0.33232 1.8729-0.51752l-2.5471-3.5211s-1.3825-2.2345-4.0432-4.0005" fill="#a09552"/>
  <path d="m-254.71 64.563c-0.0586-0.56085-0.68721-0.8636-1.162-0.55947l-5.5316 3.5391c-0.34361 0.21978-0.8001 0.01517-0.86254-0.38806-0.18874-1.2189-0.55845-3.3168-0.8823-3.4463-0.13653-0.05429-0.75354 0.46175-1.5515 1.2125-1.3518 1.272-3.2237 3.2173-4.1663 4.208-0.23531 0.24694-0.0744 0.65581 0.26599 0.6744 3.2371 0.17681 14.508 0.736 14.43-0.04865-0.0642-0.63994-0.36477-3.5165-0.53975-5.1915" fill="#feae3a"/>
  <g fill="#a09552">
   <path d="m-241.64 56.248c0.82162 0.3102 1.6658 0.58882 2.5255 0.84003 0.55245-2.667 1.4351-6.6668 1.9392-8.4384-1.2174 1.4288-2.9386 3.8742-4.4648 7.5984"/>
   <path d="m-254.79 36.264c-0.0152 0.30233-0.0257 0.6036-0.0335 0.90346-7e-3 0.26211-0.0106 0.52246-0.0113 0.78176 0.30586-0.2854 0.62054-0.56198 0.94509-0.82797 0.69885-0.57291 1.4425-1.0993 2.2331-1.572-1.0559 0.23495-2.2585 0.50659-3.1334 0.71473"/>
   <path d="m-258.45 42.335c-3.5228 2.8995-6.3962 7.263-7.6637 9.3571 1.0012 0.37782 2.1209 0.63324 3.3715 0.74224 0.94333-3.4794 2.3118-7.0118 4.2922-10.099"/>
  </g>
  <path d="m-265.29 34.757c-0.37642-1.7748-0.92887-3.586-1.5219-3.6015-0.83503-0.02187-2.365 1.9953-3.1584 3.1288 0.58878 0.31044 1.1899 0.58984 1.7988 0.84173 0.81492-0.09984 2.105-0.26035 2.8815-0.369" fill="#feae3a"/>
  <path d="m-265.02 36.176c-0.0741-0.4452-0.16404-0.93098-0.26776-1.4196-0.77647 0.10866-2.0666 0.26917-2.8815 0.369 1.0333 0.42651 2.0895 0.77329 3.1492 1.0506" fill="#d4881c"/>
  <path d="m-258.67 36.191c-0.47343-1.1229-1.1247-2.2927-1.6401-2.196-0.77258 0.14499-1.9075 1.8732-2.4091 2.6818 0.78705 0.13829 1.5678 0.24448 2.3333 0.32385 0.59796-0.30409 1.2502-0.62265 1.7159-0.80962" fill="#feae3a"/>
  <path d="m-258.3 37.156c-0.10195-0.29351-0.2286-0.62689-0.37112-0.96485-0.46567 0.18697-1.118 0.50553-1.7159 0.80962 0.71085 0.07338 1.409 0.12382 2.087 0.15522" fill="#d4881c"/>
  <path d="m-255.91 27.994c-0.90453 0.53834-1.6644 1.1945-1.639 1.8683 0.0314 0.83573 1.3476 1.2365 2.6229 1.4295 0.21731-0.76976 0.6851-1.5727 1.0485-2.1121 0.12806-0.65229 0.26705-1.3035 0.41416-1.9516 0.0307-0.13441 0.0607-0.26882 0.0917-0.40252-0.54716 0.19579-1.6171 0.62054-2.5382 1.1684" fill="#feae3a"/>
  <path d="m-245.62 20.437c-1.9036 1.4746-4.263 2.3188-6.8079 2.7316-0.33796 1.1991-0.65687 2.4218-0.94474 3.6572-0.031 0.1337-0.061 0.26811-0.0917 0.40252 0.15452-0.09419 0.31362-0.19191 0.47696-0.29316 3.3574-2.0803 8.395-5.5876 9.2389-8.1788 3.6e-4 -3.53e-4 3.6e-4 -7.05e-4 3.6e-4 -7.05e-4 -0.52494 0.55598-1.1444 1.1176-1.8718 1.6813" fill="#a09552"/>
  <path d="m-253.88 29.18c-0.36336 0.5394-0.83115 1.3423-1.0485 2.1121 0.22331 0.03387 0.44521 0.06138 0.65899 0.08361 0.11571-0.73131 0.24554-1.464 0.38947-2.1957" fill="#d4881c"/>
  <path d="m-202.91 51.446c-0.51117-1.7374-1.1321-3.4759-1.8866-5.1541-0.66217 1.9614-1.644 3.8506-3.0216 5.5979-1.1469 1.4541-2.739 2.6807-4.6454 3.677l2e-3 6.7e-4s-3.4456 3.1845-8.4332 4.5879c-0.44944 0.12665-0.91158 0.2377-1.3847 0.33196 0.74719 2.6299 1.355 5.7015 1.693 9.2663h9.3849c0.0677-0.67839 0.40146-3.8699 0.56974-5.4796 0.0448-0.42898 0.52564-0.65938 0.889-0.4269l5.6624 3.6227c0.39582 0.2533 0.92181 0.01792 0.99484-0.44633 0.19438-1.2323 0.54963-3.1913 0.86219-3.3161 0.13652-0.05429 0.75353 0.4615 1.5515 1.2125-0.20672-3.5027-0.7687-8.4818-2.238-13.474" fill="#cad66b"/>
  <path d="m-196.53 69.099c-0.95179-0.99907-2.8004-2.9192-4.1388-4.1786-0.79798-0.75103-1.415-1.2668-1.5515-1.2125-0.31256 0.12485-0.66781 2.0839-0.86219 3.3161-0.073 0.46426-0.59902 0.69963-0.99484 0.44633l-5.6624-3.6227c-0.36336-0.23248-0.8442-0.0021-0.889 0.4269-0.16828 1.6097-0.502 4.8012-0.56974 5.4796-0.078 0.78137 11.098 0.23001 14.388 0.05087 0.3563-0.01944 0.52634-0.44732 0.2801-0.70598" fill="#feae3a"/>
  <path d="m-212.46 55.567c-2.9002 1.5151-6.5303 2.4923-10.44 2.9125 0.13441 0.39578 0.26565 0.80257 0.393 1.2216 0.0787 0.25728 0.15522 0.52006 0.23071 0.78645 0.47308-0.09426 0.93522-0.20532 1.3847-0.33196 4.9876-1.4034 8.4332-4.5879 8.4332-4.5879l-2e-3 -6.7e-4" fill="#a09552"/>
  <path d="m-204.79 46.292c-0.66217 1.9611-1.6436 3.8502-3.0219 5.5972-1.1476 1.4555-2.7397 2.6818-4.6447 3.678-2.9012 1.5149-6.5306 2.4914-10.44 2.9118-0.51435 0.0551-1.0333 0.10195-1.5568 0.13723-0.89782-0.65112-1.7247-1.4749-2.4917-2.4351-2.5725-3.227-4.4436-8.0039-5.8766-12.995-0.0272-0.09701-0.0547-0.19368-0.0822-0.29175-0.0593-0.22084-0.11889-0.44662-0.17569-0.67522-0.99271-4.0344-1.3084-9.1966-0.56867-14.052 0.0321-0.21308 0.0677-0.42545 0.10301-0.63676 1.0717-6.2018 3.9165-11.798 9.3352-13.751 2.364-0.85266 4.4753-1.0252 6.3239-0.78987 2.1146 0.26917 3.8876 1.0735 5.2977 2.0115 1.3427 2.311 2.7577 4.6771 4.0439 6.84 0.22543 0.37853 0.44944 0.77999 0.67345 1.1987 0.16934 0.31785 0.33691 0.64523 0.50448 0.98496 0.0935 0.19191 0.18697 0.38664 0.28046 0.58526 1.7438 3.7147 3.2332 8.5482 3.404 13.504 0.01 0.23354 0.0145 0.46708 0.0145 0.70097 0.0258 2.5157-0.30303 5.0528-1.1218 7.4768" fill="#feae3a"/>
  <path d="m-207.09 24.61c-1.2457 0.68333-3.731 1.8838-7.3219 2.8427-2.7767 0.7433-6.5387 1.4086-11.093 1.4086-2.4903 0-5.2155-0.19791-8.147-0.69427 0.0321-0.21308 0.0677-0.42545 0.10301-0.63676 8.1682 1.3811 14.715 0.43356 18.941-0.69144 3.544-0.94474 6.0276-2.1502 7.2379-2.8141 0.0935 0.19191 0.18697 0.38664 0.28046 0.58526" fill="#d4881c"/>
  <path d="m-203.67 38.816c-1.7342 0.78176-4.2386 1.7695-7.3572 2.6204-3.6587 0.99942-8.6695 1.9357-14.586 1.9357-2.3015 0-4.7417-0.14182-7.293-0.47696-0.0593-0.22084-0.11889-0.44662-0.17569-0.67522 9.1158 1.2425 16.813-0.02117 21.885-1.4055 3.2413-0.88477 5.8021-1.9145 7.512-2.6995 0.01 0.23354 0.0145 0.46708 0.0145 0.70097" fill="#d4881c"/>
  <path d="m-229.88-3.0302c-3.3168-0.44944-5.8342-2.5513-5.8342-5.0705 0-0.067381 2e-3 -0.13547 5e-3 -0.20285 0.0261-0.45791 0.15804-0.87983 0.38064-1.2474 0.55422 0.043392 1.1458 0.21414 1.7325 0.49777 0.69144 0.33549 1.3748 0.8315 1.9854 1.4718 0.92992 0.97472 1.5441 2.134 1.7293 3.2618 0.0776 0.46426 0.0759 0.89958 2e-3 1.2894zm9.1239-5.3072c-0.0677-1.2749-0.81068-2.3435-1.9844-2.8624-1.2326-0.54292-2.6494-0.34784-3.6985 0.51082-0.59478 0.48683-1.3458 0.75424-2.1146 0.75424-0.77046 0-1.5215-0.26741-2.1163-0.75424-1.0492-0.85866-2.4656-1.0537-3.6985-0.51082-0.52882 0.23213-0.96873 0.57714-1.2993 1.0026-0.15946 0.20461-0.29316 0.42721-0.3997 0.66393-0.16439 0.36759-0.26247 0.7687-0.28504 1.1959-5e-3 0.079022-7e-3 0.15769-7e-3 0.23671 0 2.8141 2.7062 5.1657 6.2826 5.6928 0.21908 0.032103 0.44309 0.057856 0.66887 0.075847 0.28046 0.023989 0.5655 0.034925 0.85407 0.034925 4.3032 0 7.8038-2.6028 7.8038-5.8035 0-0.079022-2e-3 -0.15769-6e-3 -0.23671" fill="#523844"/>
  <path d="m-229.88-3.0302c-3.3168-0.44944-5.8342-2.5513-5.8342-5.0705 0-0.067381 2e-3 -0.13547 5e-3 -0.20285 0.0261-0.45791 0.15804-0.87983 0.38064-1.2474 0.55422 0.043392 1.1458 0.21414 1.7325 0.49777 0.69144 0.33549 1.3748 0.8315 1.9854 1.4718 0.92992 0.97472 1.5441 2.134 1.7293 3.2618 0.0776 0.46426 0.0759 0.89958 2e-3 1.2894" fill="#fe584c"/>
  <path d="m-213.69-12.641c0.37783 0.81033 0.3556 1.6203-0.0497 1.809-0.40499 0.18874-1.0396-0.31503-1.4171-1.1254-0.37782-0.80998-0.3556-1.6196 0.0497-1.8087 0.40499-0.18909 1.0393 0.31503 1.4171 1.125" fill="#a09552"/>
  <path d="m-211.53-13.648c0.37747 0.81033 0.35525 1.6203-0.0497 1.809-0.40499 0.18909-1.0396-0.31468-1.4171-1.125-0.37782-0.81033-0.3556-1.62 0.0494-1.8087 0.40534-0.18909 1.0396 0.31468 1.4175 1.1247" fill="#a09552"/>
  <path d="m-224.93-17.565c0 2.2257 1.4023 4.039 3.1602 4.1307 0.0452 0.0018 0.0921 0.0035 0.13865 0.0035 1.8214 0 3.2978-1.8503 3.2978-4.1342 0-0.35631-0.0356-0.70097-0.10336-1.0298-0.36583-1.7844-1.6566-3.1027-3.1944-3.1027-1.8228 0-3.2988 1.8503-3.2988 4.1324" fill="#fff"/>
  <path d="m-222.45-15.813c0 0.92146 0.25788 1.7579 0.67662 2.3784 0.0452 0.0018 0.0921 0.0035 0.13865 0.0035 1.8214 0 3.2978-1.8503 3.2978-4.1342 0-0.35631-0.0356-0.70097-0.10336-1.0298-0.41875-0.4385-0.93945-0.6992-1.5053-0.6992-1.3825 0-2.5044 1.5582-2.5044 3.4812" fill="#1c8c9e"/>
  <path d="m-233.45-17.565c0 2.2257 1.4023 4.039 3.1605 4.1307 0.0448 0.0018 0.0917 0.0035 0.13864 0.0035 1.821 0 3.2974-1.8503 3.2974-4.1342 0-0.35631-0.0356-0.70097-0.10301-1.0298-0.36584-1.7844-1.657-3.1027-3.1944-3.1027-1.8228 0-3.2992 1.8503-3.2992 4.1324" fill="#fff"/>
  <path d="m-230.97-15.813c0 0.92146 0.25788 1.7579 0.67698 2.3784 0.0448 0.0018 0.0917 0.0035 0.13864 0.0035 1.821 0 3.2974-1.8503 3.2974-4.1342 0-0.35631-0.0356-0.70097-0.10301-1.0298-0.4191-0.4385-0.9398-0.6992-1.5053-0.6992-1.3829 0-2.5047 1.5582-2.5047 3.4812" fill="#1c8c9e"/>
 </g>
</svg>
