<?xml version="1.0" encoding="UTF-8"?>
<!-- Created with Inkscape (http://www.inkscape.org/) -->
<svg width="83.301mm" height="87.138mm" version="1.1" viewBox="0 0 83.301 87.138" xmlns="http://www.w3.org/2000/svg">
 <g transform="translate(-178 -152.74)">
  <path d="m237.85 168.65c6.5698 0.5334 10.186 3.8767 11.819 8.1269 0.10055 0.26211 0.19615 0.52634 0.28223 0.79516 0.11641 0.36442 0.21978 0.73378 0.30938 1.1081 0.0776 0.3228 0.14394 0.64947 0.20285 0.9779 0.28363 1.5864 0.35384 3.2322 0.24765 4.8581-0.0159 0.24306-0.036 0.48542-0.0593 0.72707-0.0688 0.70732-0.17074 1.4083-0.30021 2.0966-0.0564 0.2988-0.11818 0.59514-0.18486 0.88865-0.23495 1.0294-0.53269 2.0218-0.88229 2.9542-0.15135 0.40358-0.31151 0.79622-0.48084 1.1751-0.1591 0.3556-0.32597 0.69815-0.49918 1.0287-0.49036 0.93521-1.0347 1.7639-1.6154 2.4522-0.40675 0.48189-0.83044 0.89747-1.2661 1.2284-2.3837 1.8105-4.6126 1.4711-6.8414 0.23672-0.22154-0.12277-0.44344-0.25506-0.66498-0.39441-0.46744-0.29316-0.93557-0.62018-1.4055-0.96943-0.56409-0.41875-1.1306-0.86925-1.7032-1.3324-0.69568-0.56268-1.3998-1.1434-2.116-1.706-0.27588-0.2166-0.55351-0.43003-0.83291-0.63923-0.51788-0.3877-1.0435-0.75918-1.5773-1.1017-0.69145-0.44309-1.3981-0.83679-2.1227-1.1546-0.46707-0.20461-0.94156-0.37853-1.4249-0.51188-0.51047-0.15522-1.0142-0.28116-1.5117-0.38453-0.30339-0.0628-0.60431-0.115-0.90346-0.15945-0.86642-0.12947-1.712-0.18451-2.5358-0.17216-0.5648 8e-3 -1.1201 0.0459-1.664 0.11395-0.99589 0.12453-1.9565 0.34537-2.8804 0.64205-0.38876 0.12489-0.77082 0.26282-1.1458 0.41346-0.89429 0.35878-1.7505 0.7874-2.5679 1.2675-0.67945 0.39935-1.3317 0.83361-1.9558 1.294-5.9806 4.4108-9.3871 11.154-9.3871 11.154 0.24201-3.2942 4.2111-14.503 6.8485-22.9 0.10442-0.33267 0.20673-0.66075 0.30692-0.98354 0.19296-0.62442 0.37711-1.2298 0.54998-1.8115 0.19861-0.66781 0.38276-1.3049 0.54821-1.9032 0.10689-0.38523 0.20602-0.7553 0.29669-1.1067 0.18979-0.7359 0.35313-1.4891 0.48577-2.2507 0.0564-0.32455 0.1069-0.65087 0.15205-0.97825 0.061-0.44379 0.11183-0.88935 0.15099-1.3356 0.0741-0.85583 0.10583-1.7131 0.09-2.5615-0.0198-1.0654-0.11501-2.1167-0.29669-3.1337-6.3235-0.73907-15.566-5.2282-18.408-6.6703-0.12806 0.15063-0.24977 0.30056-0.36407 0.44908-0.93027 1.2072-2.3255 1.9551-3.8403 2.1234-5.9884 0.66534-10.565 4.0196-10.699 8.2063-0.15522 4.8295 5.6575 8.9348 12.983 9.1701 1.3243 0.0423 2.6063-0.0462 3.8209-0.24554 0 0 3.6495-0.69673 6.2145-2.6204 0 0-2.3996 3.4431-5.6039 4.4535 0.18874 0.97331 0.20884 2.0218 0.10019 3.1291 0.75212 2.2768 1.6164 6.3084 0.48048 10.892-1.0446 4.215-5.0147 12.674-2.3227 19.454 0.266-0.32737 0.55633-0.67133 0.56692-0.70449-0.12136 0.37888-0.25294 0.75212-0.39194 1.1211-0.0907 0.23989-0.18485 0.47802-0.28257 0.71403-0.67663 1.6358-1.5162 3.1683-2.4451 4.5854-3.017 4.6034-6.9677 7.9985-9.29 9.8273 0.57821-0.16016 1.0844-0.20531 1.294 0.0183 0.41875 0.44661-1.4397 2.6536-2.6497 3.9973 0.26423 0.37571 0.60043 0.7306 0.98954 1.0661 0.80328-0.94933 3.5578-3.6879 4.5918-3.2918 0.90593 0.34678-0.65088 3.5472-1.5826 5.146 3.453 1.6164 7.5678 2.4063 7.5678 2.4063 1.9117-2.4158 4.3536-6.967 6.5197-11.36 0.85125-1.7276 1.6598-3.4301 2.3763-4.9696 0.20038-0.42968 0.39335-0.84666 0.5782-1.2481 0.51788-1.1254 0.97085-2.1251 1.336-2.9351v3.4516c2.34 0.82585 5.1798 1.4527 8.6117 1.8235 6.2473 0.67451 11.58 0.69921 16.173 0.20461l3.8382-5.4317-2.4409 5.2627-0.66604 1.4372-2.4705 5.3262-3.3182 7.1564 1.5903 0.37253c0.40181-0.76765 1.1352-1.8764 1.9925-1.8045 0.80574 0.067 0.81315 1.4157 0.70167 2.4356l1.2492 0.2928c0.34466-0.86077 0.97931-2.0433 1.7544-1.8362 0.67522 0.18062 0.84385 1.4291 0.83467 2.4426l2.5647 0.60113 3.1383-8.6773 0.7112-1.9657 0.93521-2.5866 0.69004-1.9075 0.20461-0.5662 0.59408-1.6422 0.82338-2.2772 1.4587-4.0337-0.71331 3.6717c6.7042-3.3729 10.851-8.5009 14.206-14.067 4.0883-6.7822 5.1005-15.59 5.2666-21.445-3.9395-18.824-22.734-15.001-22.734-15.001" fill="#feae3a"/>
  <path d="m210.73 162.39c-5.4441-1.4199-13.153-4.9332-15.83-6.1902-0.18344 0.12735-0.35983 0.25964-0.52916 0.39581 2.6748 1.2584 11.018 5.0751 16.548 6.392-0.0589-0.20143-0.12277-0.4004-0.18944-0.5976" fill="#1c8c9e"/>
  <path d="m210.91 162.99c-5.5302-1.3169-13.874-5.1336-16.548-6.392-0.37783 0.30269-0.72038 0.62301-1.0301 0.94827 3.2269 1.6157 11.806 5.6822 17.833 6.4347-0.0748-0.33479-0.15945-0.6657-0.2547-0.99096" fill="#fff"/>
  <path d="m211.17 163.98c-6.0268-0.75248-14.606-4.819-17.833-6.4347-0.15134 0.1584-0.29527 0.3182-0.43109 0.47731 2.8413 1.4422 12.084 5.9312 18.408 6.6703-0.043-0.23954-0.0907-0.47731-0.14323-0.71296" fill="#1c8c9e"/>
  <path d="m201.02 175.11c-2.565 1.9237-6.2145 2.6204-6.2145 2.6204 0.28646 0.57432 0.48542 1.1874 0.61066 1.833 3.2043-1.0104 5.6039-4.4535 5.6039-4.4535" fill="#d4881c"/>
  <path d="m201.52 220.35c0.42616 0.17957 0.87101 0.35208 1.336 0.51647v-3.4516c-0.36512 0.80998-0.81809 1.8098-1.336 2.9351" fill="#d4881c"/>
  <path d="m193.59 201.68c-0.57185 2.3417-0.96379 4.8546-0.79939 7.3039 0.0148 0.21766 0.0321 0.43533 0.0582 0.65299 0.12559 1.162 0.38664 2.3047 0.82338 3.4036 0.0564 0.14041 0.11465 0.27905 0.17568 0.41593-0.0903 0.24024-0.1852 0.47871-0.28187 0.71578-0.67698 1.6358-1.5166 3.1669-2.4465 4.585-1.5184-2.9072-2.1678-5.8536-2.4384-8.1661-0.0261-0.22083-0.0469-0.43709-0.0681-0.64487-0.0917-0.99766-0.1143-1.8503-0.1143-2.4948 0-1.8147 0.3609-3.7617 0.92358-5.7764 0.0579-0.21273 0.11924-0.42545 0.18379-0.63959 1.8404-6.2085 5.383-12.966 5.9083-18.341 0.75282 2.2772 1.6164 6.3084 0.48048 10.892-0.45614 1.839-1.4668 4.4838-2.2405 7.4447-0.0564 0.21414-0.11113 0.43039-0.1644 0.64947" fill="#f2e6c7"/>
  <g fill="#d4881c">
   <path d="m194.24 212.33c-0.0106 0.0332-0.30092 0.37712-0.56692 0.70449 0.0554 0.1397 0.11395 0.27834 0.17498 0.41663 0.139-0.369 0.27058-0.74224 0.39194-1.1211"/>
   <path d="m231.47 217.46-3.8382 5.4317c0.47343-0.0508 0.9398-0.10689 1.3974-0.16898l2.4409-5.2627"/>
   <path d="m241.11 219.16 0.71331-3.6717-1.4587 4.0337c0.25188-0.11853 0.50059-0.23883 0.74542-0.36195"/>
  </g>
  <path d="m245.89 221.56c-0.44309 0.31115-0.89394 0.61313-1.3511 0.90734l-4.7452 8.1344c2.0803 1.2464 5.0881 2.3767 9.4107 2.8617l0.42863-1.1582c-0.67557-0.34643-2.0563-1.2111-1.6094-2.201 0.39123-0.86607 1.7219-0.54328 2.5185-0.25577l0.5909-1.5974c-0.69039-0.28011-2.0228-0.93592-1.9286-1.6891 0.0825-0.6604 1.6334-0.42828 2.6307-0.20814l1.156-3.1242s-4.5085-0.57538-7.1011-1.6697" fill="#feae3a"/>
  <path d="m238.05 225.92-0.93521 2.5866c0.64876 0.67522 1.5205 1.4062 2.6804 2.1011l4.7452-8.1344c-2.0405 1.3138-4.2139 2.4624-6.4904 3.4466" fill="#d4881c"/>
  <path d="m261.3 191.02c8e-3 1.8164-0.0903 3.5683-0.28999 5.2557-0.024 0.2159-0.0515 0.43039-0.0804 0.64452-0.44662 3.338-1.288 6.4213-2.4677 9.2527-0.0836 0.2032-0.16898 0.40322-0.25753 0.6029-1.1896 2.7125-2.6935 5.1865-4.4616 7.4249-0.13194 0.1711-0.26705 0.33867-0.40604 0.50447-1.7276 2.1096-3.6954 4.0037-5.8536 5.6829-0.16898 0.13229-0.33831 0.26282-0.51082 0.39158-0.35454 0.266-0.71367 0.52705-1.0784 0.78317-0.44274 0.31115-0.89429 0.61277-1.3522 0.9077-2.0401 1.3134-4.2125 2.4627-6.49 3.4456l0.68968-1.9064 0.20496-0.56727 0.59479-1.6408 0.82338-2.2772c0.25153-0.11959 0.49989-0.23883 0.74472-0.36266 1.1942-0.60113 2.3079-1.2573 3.3489-1.9614 0.17886-0.121 0.35455-0.24342 0.52882-0.36583 1.8598-1.3187 3.4893-2.7933 4.9481-4.3808 0.1464-0.15945 0.29139-0.32208 0.43639-0.48506 1.8923-2.1371 3.4925-4.4644 4.9445-6.8739 0.0388-0.0642 0.0776-0.12876 0.11642-0.19473 0.10936-0.18556 0.21766-0.37254 0.32067-0.56092 1.3003-2.3273 2.261-4.8641 2.9686-7.4189 0.0596-0.21413 0.11782-0.43003 0.1725-0.64452 1.1843-4.5547 1.5875-9.119 1.6873-12.626 0.44979 2.1484 0.70591 4.5918 0.71861 7.3702" fill="#f2e6c7"/>
  <path d="m210.52 230.15-6.9868 2.7217 3.8982 7.0037 0.71226-0.32738c-0.3623-1.1127-0.87842-3.12-0.1016-3.4184 0.69497-0.26741 1.7233 1.2732 2.3248 2.3975l1.3272-0.6096c-0.4565-0.86712-1.0114-2.2754-0.19121-2.643 0.80045-0.35877 1.8994 0.77894 2.4617 1.5998l3.483-1.5998-2.5735-4.9086c-0.36371-3e-3 -0.72742-9e-3 -1.0911-0.018-1.1381-0.0289-2.2246-0.0963-3.2628-0.19791" fill="#feae3a"/>
  <path d="m200.62 227.64 2.9143 5.2363 6.9868-2.7217c-3.9726-0.3884-7.2291-1.2859-9.9011-2.5146" fill="#d4881c"/>
  <path d="m229.03 222.72-0.66534 1.4376-2.4709 5.3262c-1.5261 0.26317-3.0702 0.46778-4.627 0.61277-0.21449 0.0208-0.42721 0.0402-0.6417 0.0579-1.9064 0.15804-3.8276 0.22895-5.7535 0.21272-0.36441-3e-3 -0.72707-8e-3 -1.0915-0.0176-1.1377-0.0289-2.2239-0.0967-3.2618-0.19826-1.0121-0.0984-1.9777-0.23036-2.8995-0.39335-0.21449-0.037-0.42545-0.0758-0.635-0.11747-2.4257-0.47378-4.5336-1.1606-6.3676-2.0034-0.27905-0.12876-0.55457-0.25929-0.82056-0.39475-0.42863-0.21767-0.84103-0.44486-1.2376-0.68016 0.8509-1.7279 1.6598-3.4297 2.3752-4.9689 0.20179-0.43004 0.39335-0.84773 0.57891-1.2492 0.42545 0.18062 0.87031 0.35313 1.336 0.51752 1.5311 0.53975 3.2748 0.99448 5.2574 1.349 0.20955 0.037 0.42051 0.0723 0.635 0.10795 0.86219 0.14005 1.7681 0.26282 2.7189 0.36583 3.2202 0.34819 6.1951 0.52211 8.9528 0.54327 0.2159 1e-3 0.4318 3e-3 0.64488 1e-3 2.3481-3e-3 4.535-0.12065 6.5758-0.34008 0.47343-0.0501 0.93944-0.10619 1.397-0.16898" fill="#f2e6c7"/>
  <g fill="#fe584c">
   <path d="m183.12 228.6c-0.20955-0.22366-0.71578-0.17851-1.294-0.0183-1.1698 0.92075-1.9269 1.445-1.9431 1.5247-0.18238 0.91193 0.0607 1.7417 0.58738 2.491 1.21-1.3437 3.0685-3.5507 2.6497-3.9973"/>
   <path d="m186.06 230.37c-1.034-0.39617-3.7885 2.3424-4.5918 3.2918 0.82056 0.70731 1.8789 1.325 3.0092 1.8542 0.93169-1.5988 2.4885-4.7992 1.5826-5.146"/>
   <path d="m208.04 236.13c-0.77682 0.29845-0.2607 2.3058 0.1016 3.4184l2.2232-1.0209c-0.60149-1.1243-1.6298-2.6649-2.3248-2.3975"/>
   <path d="m211.5 235.28c-0.82021 0.3676-0.26529 1.7759 0.19121 2.643l2.2705-1.0432c-0.56232-0.82091-1.6612-1.9586-2.4617-1.5998"/>
   <path d="m226.16 235.21c-0.85725-0.072-1.5907 1.0368-1.9925 1.8045l2.6942 0.63112c0.11148-1.0199 0.10407-2.3686-0.70167-2.4356"/>
   <path d="m229.87 236.1c-0.77505-0.20709-1.4097 0.97543-1.7544 1.8362l2.589 0.60643c9e-3 -1.0135-0.15945-2.262-0.83467-2.4426"/>
   <path d="m248.03 230.11c-0.44697 0.98989 0.9338 1.8546 1.6094 2.201l0.90911-2.4568c-0.79657-0.28751-2.1272-0.6103-2.5185 0.25577"/>
   <path d="m249.21 226.56c-0.0942 0.75318 1.2382 1.409 1.9286 1.6891l0.70203-1.8972c-0.9973-0.22014-2.5481-0.45226-2.6307 0.20814"/>
   <path d="m205.36 155.96c0.64276 0.0519 1.5374 0.12559 2.0842 0.17709 0.49989-0.97472 0.95744-2.2684 0.38312-3.0173-0.86889-1.1321-3.7112 0.4826-5.0758 1.869 0.0737 0.0183 0.14605 0.0346 0.22013 0.055 0.87207 0.23601 1.6658 0.54505 2.3883 0.91617"/>
  </g>
  <path d="m206.97 156.98c0.13935-0.2219 0.3101-0.51082 0.47696-0.83644-0.54681-0.0515-1.4414-0.12523-2.0842-0.17709 0.58173 0.2988 1.1165 0.63817 1.6072 1.0135" fill="#c22f25"/>
  <path d="m209.22 159.35c0.38876 0.22401 0.83432 0.48436 1.1423 0.67274 0.78951-0.62724 1.7434-1.549 1.5596-2.2288-0.2727-1.0086-2.8561-0.92145-4.1896-0.17462 0.56374 0.52599 1.058 1.106 1.4877 1.7307" fill="#fe584c"/>
  <path d="m209.86 160.4c0.14781-0.10619 0.31961-0.23389 0.50024-0.37783-0.30798-0.18838-0.75354-0.44873-1.1423-0.67274 0.23248 0.33796 0.44662 0.68826 0.64206 1.0506" fill="#c22f25"/>
  <path d="m210.13 160.94c-0.0864-0.18132-0.1778-0.35948-0.27269-0.53551-0.19544-0.36231-0.40958-0.71261-0.64206-1.0506-0.42968-0.62477-0.92392-1.2047-1.4877-1.7307-0.16581-0.15417-0.33726-0.30374-0.51506-0.44874-0.0811-0.066-0.16369-0.13123-0.2473-0.19508-0.49071-0.37536-1.0255-0.71473-1.6072-1.0135-0.72249-0.37112-1.5162-0.68016-2.3883-0.91617-0.0741-0.0205-0.1464-0.0367-0.22013-0.055-3.4406-0.8703-6.012-0.0681-7.8585 1.2136 2.6772 1.2569 10.386 4.7703 15.83 6.1902-0.17039-0.50095-0.36654-0.98849-0.59091-1.4584" fill="#feae3a"/>
  <path d="m211.52 170.39c0.0896 0.4445 0.18979 0.94051 0.27058 1.3476 0.86536-5e-3 1.9773-0.20285 2.1777-1.1497 0.22225-1.0509-1.2806-2.1417-2.3583-2.7594 0.0159 0.84844-0.0159 1.7057-0.09 2.5615" fill="#fe584c"/>
  <path d="m211.37 171.73c0.12912 8e-3 0.27129 0.0127 0.42157 0.012-0.0808-0.40711-0.18097-0.90312-0.27058-1.3476-0.0392 0.44627-0.09 0.89183-0.15099 1.3356" fill="#c22f25"/>
  <path d="m210.09 179.71c1.4083-0.15205 3.2307-0.53834 3.2685-1.5198 0.043-1.1246-1.7664-1.82-2.9231-2.1304-0.16545 0.59831-0.3496 1.2354-0.54821 1.9032 0.0674 0.50764 0.14322 1.2181 0.20284 1.747" fill="#fe584c"/>
  <path d="m209.34 179.78c0.22507-0.0145 0.48083-0.0353 0.75282-0.0646-0.0596-0.52881-0.13546-1.2393-0.20284-1.747-0.17287 0.58173-0.35702 1.1871-0.54998 1.8115" fill="#c22f25"/>
  <path d="m215.99 188.37c-0.15381-1.5067-0.53058-3.0706-1.5148-3.0491-1.7127 0.037-3.9472 3.3782-2.909 7.1882 0.62406-0.46038 1.2764-0.89464 1.9558-1.294 0.61877-0.9906 1.6828-2.117 2.468-2.8452" fill="#fe584c"/>
  <path d="m213.52 191.21c0.81738-0.48013 1.6736-0.90875 2.5679-1.2675-0.0155-0.46108-0.0423-1.0153-0.0998-1.5776-0.78528 0.72813-1.8493 1.8546-2.468 2.8452" fill="#c22f25"/>
  <path d="m224.48 187.45c0.10407-1.645-0.0455-3.5511-1.2866-3.7617-1.9516-0.33125-3.9694 2.135-3.0723 5.2 0.54398-0.0681 1.0992-0.10548 1.664-0.11395 0.78211-0.40146 1.9209-0.97613 2.6949-1.3243" fill="#fe584c"/>
  <path d="m224.32 188.95c0.061-0.41981 0.12453-0.94262 0.1591-1.4965-0.77399 0.3482-1.9128 0.92287-2.6949 1.3243 0.82374-0.0123 1.6694 0.0427 2.5358 0.17216" fill="#c22f25"/>
  <path d="m232.24 191.5c0.9465-1.9678 2.2959-5.3538 0.84596-6.1782-1.4806-0.84173-3.7472 2.6257-4.9269 4.6856 0.72461 0.31785 1.4312 0.71155 2.1227 1.1546 0.65546 0.0967 1.421 0.21978 1.9583 0.33796" fill="#fe584c"/>
  <path d="m231.86 192.26c0.11148-0.21555 0.242-0.47414 0.381-0.76377-0.53728-0.11818-1.3028-0.2413-1.9583-0.33796 0.53375 0.34255 1.0594 0.71403 1.5773 1.1017" fill="#c22f25"/>
  <path d="m238.1 196.3c0.26599-0.99872 0.38805-2.1488-0.22895-2.6169-0.8315-0.63077-2.238 0.2734-3.0618 0.92004 0.57256 0.4632 1.1391 0.9137 1.7032 1.3324 0.5267 0.12029 1.18 0.26952 1.5875 0.36442" fill="#fe584c"/>
  <path d="m237.91 196.91c0.0635-0.18979 0.12594-0.3937 0.18203-0.60501-0.40746-0.0949-1.0608-0.24413-1.5875-0.36442 0.4699 0.34925 0.93803 0.67627 1.4055 0.96943" fill="#c22f25"/>
  <path d="m248.37 192.14c-1.0082-0.49494-2.8028-1.2245-3.5595-0.32279-0.74895 0.89359 0.83573 2.9577 1.8771 4.0241 0.58067-0.68827 1.125-1.517 1.6154-2.4522 0.0215-0.45332 0.0448-0.89006 0.067-1.2492" fill="#fe584c"/>
  <path d="m248.8 192.36c-0.11642-0.061-0.26282-0.13723-0.43215-0.22049-0.0222 0.35913-0.0455 0.79587-0.067 1.2492 0.17321-0.33055 0.34008-0.6731 0.49918-1.0287" fill="#c22f25"/>
  <path d="m250.08 185.23c-0.6096 0.0356-1.2636 0.22895-1.4817 0.86713-0.24695 0.72249 0.7059 1.5734 1.5681 2.1244 0.0667-0.29351 0.12841-0.58985 0.18486-0.88865-0.0956-0.73731-0.19932-1.5406-0.27129-2.1029" fill="#fe584c"/>
  <path d="m250.65 185.24c-0.17427-0.0123-0.37041-0.0176-0.5715-6e-3 0.072 0.56233 0.17569 1.3656 0.27129 2.1029 0.12947-0.68827 0.23142-1.3892 0.30021-2.0966" fill="#c22f25"/>
  <path d="m249.52 177.76c-0.496 0.25611-0.93803 0.64276-0.96132 1.1977-0.0265 0.63605 0.95321 0.75141 1.9043 0.69955-0.0589-0.32843-0.12524-0.6551-0.20285-0.9779-0.21766-0.25188-0.50412-0.61136-0.74013-0.91933" fill="#fe584c"/>
  <path d="m249.95 177.57c-0.14253 0.0526-0.28893 0.11536-0.43075 0.18874 0.23601 0.30797 0.52247 0.66745 0.74013 0.91933-0.0896-0.37429-0.19297-0.74365-0.30938-1.1081" fill="#c22f25"/>
  <g fill="#d4881c">
   <path d="m220.26 195.3c0 0.71403-0.95532 1.2929-2.1332 1.2929-1.1783 0-2.1336-0.57891-2.1336-1.2929 0-0.71402 0.95532-1.2926 2.1336-1.2926 1.1779 0 2.1332 0.57855 2.1332 1.2926"/>
   <path d="m227.36 194.33c0 0.63535-0.76094 1.1504-1.6997 1.1504s-1.7-0.51506-1.7-1.1504c0-0.635 0.7613-1.1501 1.7-1.1501s1.6997 0.51506 1.6997 1.1501"/>
   <path d="m228.26 199.66c0 0.51153-0.73837 0.92604-1.6492 0.92604s-1.6489-0.41451-1.6489-0.92604 0.73801-0.92639 1.6489-0.92639 1.6492 0.41486 1.6492 0.92639"/>
  </g>
  <path d="m186.53 171.52c-1.3003 0-2.4282-0.83503-2.8063-2.0779-0.0519-0.17004 0.0441-0.35031 0.21413-0.40217 0.17004-0.0519 0.35066 0.0441 0.40252 0.21449 0.29492 0.96943 1.1751 1.6207 2.1897 1.6207 1.1328 0 2.0832-0.81033 2.2599-1.9269 0.0282-0.17604 0.19297-0.29492 0.369-0.26811 0.17604 0.0282 0.29598 0.19297 0.26776 0.369-0.22683 1.4316-1.445 2.4709-2.8967 2.4709" fill="#fe584c"/>
  <g fill="#1c8c9e">
   <path d="m193.76 201.03c-0.0564 0.21414-0.11113 0.43039-0.1644 0.64947-0.69956 0.019-1.3649 0.0272-1.9808 0.0272-0.82974 0-1.5695-0.0145-2.1869-0.0321 0.0579-0.21273 0.11924-0.42545 0.18379-0.63959 1.0862 0.0307 2.5224 0.0434 4.1483-5e-3"/>
   <path d="m192.85 209.63c-0.95568 0.26282-2.4194 0.62865-4.1677 0.95426-0.0261-0.22083-0.0469-0.43709-0.0681-0.64487 1.7762-0.33056 3.2494-0.70415 4.1776-0.96238 0.0148 0.21766 0.0321 0.43533 0.0582 0.65299"/>
   <path d="m208.74 222.32-1.1218 7.4394c-0.21449-0.037-0.42545-0.0758-0.635-0.11747l1.1218-7.4298c0.20955 0.037 0.42051 0.0723 0.635 0.10795"/>
   <path d="m221.27 230.1c-0.21449 0.0208-0.42721 0.0402-0.6417 0.0579l-0.21273-6.9268c0.2159 1e-3 0.4318 3e-3 0.64488 1e-3l0.20955 6.8675"/>
   <path d="m247.48 220.39c-0.16898 0.13229-0.33831 0.26282-0.51082 0.39158l-2.5142-3.5793c0.17886-0.121 0.35455-0.24342 0.52882-0.36583l2.4962 3.5535"/>
   <path d="m253.74 214.2c-0.13194 0.1711-0.26705 0.33867-0.40604 0.50447l-3.4018-2.2514c0.1464-0.15945 0.29139-0.32208 0.43639-0.48506l3.3715 2.232"/>
   <path d="m258.46 206.17c-0.0836 0.2032-0.16898 0.40322-0.25753 0.6029l-2.7721-1.8757c0.10936-0.18556 0.21766-0.37254 0.32067-0.56092l2.709 1.8337"/>
   <path d="m261.01 196.27c-0.024 0.2159-0.0515 0.43039-0.0804 0.64452h-2.208c0.0596-0.21413 0.11782-0.43003 0.1725-0.64452h2.116"/>
  </g>
  <path d="m201.72 166.55c-0.71896 1.4362-2.2094 2.1537-3.3743 1.6446-0.0296-0.0134-0.06-0.0275-0.0903-0.0427-1.1751-0.58808-1.5304-2.2592-0.79269-3.7331 0.11501-0.22966 0.24942-0.44098 0.39935-0.63148 0.81244-1.0329 2.0712-1.4668 3.0635-0.97013 1.1765 0.58878 1.5318 2.2599 0.79445 3.7327" fill="#fff"/>
  <path d="m199.56 166.88c-0.29775 0.59514-0.73449 1.0516-1.2054 1.3166-0.0296-0.0134-0.06-0.0275-0.0903-0.0427-1.1751-0.58808-1.5304-2.2592-0.79269-3.7331 0.11501-0.22966 0.24942-0.44098 0.39935-0.63148 0.41204-0.14746 0.8322-0.14746 1.1973 0.0353 0.89253 0.44662 1.113 1.8147 0.49178 3.0554" fill="#1c8c9e"/>
  <path d="m196.7 164.34c-0.71896 1.4365-2.2094 2.1534-3.374 1.645-0.0296-0.0138-0.0603-0.0279-0.0903-0.043-1.1755-0.58808-1.5307-2.2592-0.79305-3.7331 0.11536-0.22966 0.24942-0.44097 0.39935-0.63112 0.81245-1.0333 2.0715-1.4672 3.0639-0.97049 1.1762 0.58878 1.5314 2.2599 0.79411 3.7327" fill="#fff"/>
  <path d="m194.53 164.67c-0.29739 0.59479-0.73413 1.0513-1.2051 1.3166-0.0296-0.0138-0.0603-0.0279-0.0903-0.043-1.1755-0.58808-1.5307-2.2592-0.79305-3.7331 0.11536-0.22966 0.24942-0.44097 0.39935-0.63112 0.41204-0.14782 0.83255-0.14782 1.1973 0.0346 0.89252 0.44697 1.113 1.815 0.49177 3.0561" fill="#1c8c9e"/>
  <path d="m183.68 165.9c0.16863 0.53516 0.037 1.053-0.29386 1.1575-0.3309 0.10407-0.73554-0.24483-0.90417-0.77964s-0.037-1.053 0.29387-1.1571c0.3309-0.10442 0.73554 0.24448 0.90416 0.77929" fill="#fe584c"/>
  <path d="m186.08 165.42c0.16863 0.53481 0.037 1.053-0.29386 1.1571-0.33056 0.10442-0.73555-0.24447-0.90417-0.77928-0.16863-0.53482-0.037-1.053 0.29386-1.1571 0.33091-0.10442 0.73554 0.24448 0.90417 0.77929" fill="#fe584c"/>
 </g>
</svg>
