<?xml version="1.0" encoding="UTF-8"?>
<!-- Created with Inkscape (http://www.inkscape.org/) -->
<svg width="93.413mm" height="81.451mm" version="1.1" viewBox="0 0 93.413 81.451" xmlns="http://www.w3.org/2000/svg">
 <g transform="translate(-99.202 -146.12)">
  <path d="m191.86 159.09c-0.14958-1.3723-1.6916-2.116-2.8508-1.367-4.7847 3.0914-9.1655 7.8588-11.566 10.709-0.8061 0.95708-0.14147 2.42 1.1095 2.4423l3.0533 0.0536c0.46284 8e-3 0.7948 0.44944 0.67063 0.89535-0.63888 2.2927-2.9757 8.5912-10.192 13.188 0.0684 0.0695 0.13476 0.14005 0.20425 0.20814 0.6597 0.64735 0.70415 1.6972 0.11148 2.407-1.8895 2.2638-6.7314 6.3112-16.506 4.9294-1.7385-0.24554-3.6329-0.66287-5.6949-1.2929-0.4766-0.1457-0.96167-0.30163-1.4563-0.47061 0 0-0.16228-0.63853-0.36866-1.7664-0.72284-3.9529-1.9861-13.928 1.3021-23.575 2.3273-6.8273 6.9342-13.49 15.626-17.738 0.0113-0.0755 0.0222-0.15205 0.0328-0.22437 0.139-0.93768-0.82091-1.6549-1.6817-1.258-9.0262 4.1642-14.298 10.424-17.277 17.084-3.4509 7.7188-3.8209 15.976-3.3764 22.14 0.0353 0.48683 0.0751 0.96132 0.11924 1.4206 0.21237 2.2087 0.51611 4.0845 0.7874 5.4846 0.10089 0.52141 0.1972 0.97755 0.28293 1.3592-0.48895-0.51293-0.9144-1.4436-1.2721-2.5079-0.60078-1.7882-1.0111-3.9546-1.2107-5.165-7.4891-4.6881-11.134-11.927-11.134-11.927l0.67592-7.2266c0.01-0.10371 0.0166-0.20708 0.0219-0.31009-0.22578-0.0557-0.47872-0.11889-0.75424-0.18838-3.0434-0.77223-8.8713-2.3925-12.101-4.2072-0.0261 0.0374-0.0533 0.0744-0.0787 0.11254-2.2278 3.3218-4.2506 6.9261-4.4976 6.9342-2.0892 0.0674-5.6663 0.76693-8.4528 1.3804-2.4966 0.54999-4.5707 2.2761-5.5658 4.6306-1.4428 3.4149-0.31845 7.384 2.7171 9.5119 10.057 7.0492 21.562 2.5548 21.562 2.5548s2.9394-1.3226 5.497-5.2522c0 0-1.8842 5.9965-4.8076 9.337 0.11924 0.45791 0.25964 0.94439 0.42369 1.4531 0.33619-1.2464 1.0361-2.1565 2.5516-1.5067 2.8571 1.2241 5.4755 11.974 18.665 14.572 2.7622-3.3584 7.8641-5.5809 7.8641-5.5809-2.0599 1.3564-4.1342 3.5052-6.0459 5.878-0.62724 0.77858-1.2372 1.5815-1.8228 2.3887-0.51294 0.70661-1.0079 1.416-1.4799 2.116-0.84737 1.2562-1.6214 2.4786-2.2983 3.5906-0.96379 1.5829-1.7297 2.9397-2.2271 3.8474 0.1838 0.42616 0.29281 0.71262 0.29281 0.71262l12.083 0.23177s3.5e-4 7.1e-4 7e-4 7.1e-4c0.20673-0.85196 0.49601-1.6954 0.84914-2.5241 0.64699-1.5184 1.5074-2.9863 2.4705-4.3624 0.90946-1.3 1.9092-2.5174 2.9055-3.6192 1.0072-1.1134 2.0091-2.1078 2.9097-2.9471 1.251-1.1656 2.3036-2.0316 2.8967-2.5019 0.12382 0.091-0.45544 1.1913-0.97508 2.1682 14.316-2.7143 18.192-8.9641 21.321-12.901 2.8808-7.396 3.2149-14.742 3.2113-17.805-7e-4 -0.59231 0.68086-0.92498 1.1462-0.5588l1.4887 1.1723c0.55527 0.43745 1.379 0.0885 1.4436-0.61559 0.43145-4.6895-0.18379-11.665-0.60289-15.514" fill="#57c8cc"/>
  <path d="m126.16 159.44c-1.8722-0.53481-3.8269-0.26353-5.4427 0.65687 2.1315 0.71861 6.3518 2.0994 9.8203 2.9739-0.86289-1.7205-2.4169-3.0706-4.3776-3.6308" fill="#57c8cc"/>
  <path d="m130.95 164.1c-0.11254-0.35419-0.25259-0.69744-0.41805-1.0273-3.4685-0.87454-7.6888-2.2553-9.8203-2.9739-0.36936 0.21026-0.72143 0.45403-1.0502 0.73025 2.5509 0.98284 7.9738 3.0028 11.2 3.7073 0.0755 0.0162 0.14958 0.0321 0.22225 0.0469-0.0392-0.16298-0.0833-0.3242-0.13405-0.4833" fill="#fe584c"/>
  <path d="m131.26 165.6c-0.18274-0.0332-0.37359-0.0716-0.57221-0.11465-3.5334-0.76765-9.422-2.9947-11.779-3.912-0.17145 0.19509-0.33302 0.40146-0.48436 0.61807 3.23 1.8147 9.0579 3.435 12.101 4.2072 0.27552 0.0695 0.52846 0.13264 0.75424 0.18838 0.0166-0.33267 9e-3 -0.66216-0.0205-0.98707" fill="#fe584c"/>
  <path d="m131.09 164.58c-0.0727-0.0148-0.14675-0.0307-0.22225-0.0469-3.2265-0.70449-8.6494-2.7245-11.2-3.7073-0.26952 0.22684-0.52317 0.4759-0.75953 0.74436 2.3566 0.91722 8.2451 3.1443 11.779 3.912 0.19862 0.043 0.38947 0.0815 0.57221 0.11465-0.031-0.34537-0.0885-0.68474-0.16863-1.0167" fill="#fff"/>
  <path d="m172.41 187.63c-1.8905 2.2645-6.7321 6.3112-16.507 4.9301-1.7388-0.24483-3.6326-0.66252-5.6956-1.2926-0.37571-0.11607-0.75742-0.23707-1.1458-0.36724-0.10336-0.0325-0.20637-0.0677-0.30938-0.10337 0 0-0.0744-0.28998-0.18556-0.82338-0.0529-0.25964-0.11607-0.57573-0.1838-0.94298-0.72355-3.9536-1.9854-13.928 1.3025-23.576 2.3273-6.827 6.9335-13.49 15.627-17.738-0.40957 2.8187-0.9786 7.8712-0.85443 13.541 6e-3 0.30128 0.0145 0.60572 0.0258 0.91052 0.0226 0.68968 0.0582 1.3892 0.10477 2.092 0.19191 2.8656 0.58526 5.8117 1.283 8.6466 0.0533 0.2159 0.10795 0.43215 0.16581 0.64629 1.1508 4.3547 3.0445 8.4113 6.0568 11.462 0.0677 0.0698 0.1337 0.14041 0.2032 0.20814 0.66075 0.64805 0.70415 1.6972 0.11254 2.4063" fill="#feae3a"/>
  <g fill="#1c8c9e">
   <path d="m124.1 187.31s0.0522 1.6422 0.68933 4.0848c2.9235-3.3404 4.8076-9.337 4.8076-9.337-2.5576 3.9296-5.497 5.2522-5.497 5.2522"/>
   <path d="m146.38 163.32c-6.4555-5.1012-7.0379-12.139-6.8898-15.526 0.0296-0.67381-0.80751-1.0008-1.2527-0.49389-3.7698 4.2937-5.8981 10.486-7.0989 15.923-0.0649 0.29492-0.12806 0.58772-0.18803 0.87771 0.0508 0.1591 0.0949 0.32032 0.13405 0.4833 0.0801 0.33197 0.13759 0.67134 0.16863 1.0167 0.0293 0.32491 0.037 0.6544 0.0205 0.98707-5e-3 0.10301-0.0123 0.20638-0.0219 0.31009l-0.67592 7.2266s3.6452 7.239 11.134 11.927c0.45685 0.28645 0.92675 0.56409 1.4125 0.82903-0.0441-0.45932-0.084-0.93381-0.11924-1.4206-0.4445-6.1637-0.0744-14.421 3.3764-22.14"/>
   <path d="m143.91 192.36c-0.27129-1.4002-0.57503-3.2759-0.7874-5.4846-0.48577-0.26494-0.95567-0.54258-1.4125-0.82903 0.19967 1.2104 0.60995 3.3768 1.2107 5.165 0.35772 1.0643 0.78317 1.995 1.2721 2.5079-0.0857-0.3817-0.18204-0.83784-0.28293-1.3592"/>
   <path d="m163.86 205.32c0.51964-0.97684 1.0989-2.0772 0.97508-2.1682-0.59302 0.47025-1.6457 1.3363-2.8967 2.5019 0.66146-0.10372 1.3003-0.2159 1.9216-0.33373"/>
   <path d="m154.3 200.34s-5.1019 2.2225-7.8641 5.5809c0.58526 0.11536 1.1903 0.21555 1.8182 0.29704 1.9117-2.3728 3.986-4.5216 6.0459-5.878"/>
  </g>
  <path d="m148.25 206.21c-0.62724 0.77858-1.2379 1.5812-1.8228 2.3887-0.51294 0.70591-1.0075 1.415-1.4796 2.1163-1.0784-0.29492-2.1001-0.62371-3.0702-0.98354-0.20496-0.0755-0.40816-0.15275-0.60783-0.23354-2.7785-1.0894-5.1075-2.4335-7.0608-3.9162-0.17216-0.12876-0.34149-0.26105-0.50941-0.39652-2.6674-2.1258-4.5932-4.5096-5.9838-6.8273-0.11465-0.18662-0.2226-0.37359-0.32738-0.55915-0.99412-1.7533-1.6891-3.4505-2.1724-4.9509 0.33514-1.2474 1.0361-2.1565 2.5513-1.5071 0.9652 0.41451 1.9018 1.9131 3.2279 3.8164 0.1196 0.17251 0.24342 0.34819 0.36936 0.52705 1.3084 1.844 2.9912 3.9906 5.3876 5.8794 0.16757 0.13229 0.33867 0.26281 0.51259 0.39334 1.7343 1.2862 3.8245 2.4303 6.3856 3.2445 0.20779 0.066 0.41734 0.13053 0.63183 0.19191 0.68333 0.19615 1.3988 0.37042 2.1498 0.51858 0.58491 0.11642 1.191 0.21626 1.8182 0.2981" fill="#feae3a"/>
  <path d="m152.8 219.1c-3.5e-4 0-7e-4 -7.1e-4 -7e-4 -7.1e-4l-12.083-0.23177s-0.10901-0.28646-0.29281-0.71262c-0.55315-1.282-1.7829-3.8273-2.7608-3.6438-1.3028 0.24412 1.0728 5.5104 0.85514 5.5372-0.60996 0.0751-1.1649 0.19932-1.6711 0.35878 0.49777 0.53622 1.058 1.3578 1.2742 2.5294 0.10724 0.57962 0.13053 1.2439 0.0194 2.002 3.0882 0.0776 6.8023 0.15875 9.7201 0.22013 0.0875-0.84631 0.45826-1.5141 0.98107-2.0398 1.2633-1.2704 3.41-1.7134 4.566-1.8609-0.17674-1.27-0.60325-2.1488-0.60749-2.1579" fill="#fe584c"/>
  <path d="m153.41 221.26c-1.1561 0.14746-3.3027 0.59055-4.566 1.8609-0.52281 0.52564-0.89358 1.1934-0.98107 2.0398 2.8494 0.06 4.9389 0.10125 4.9389 0.10125 0.7239-1.4182 0.76623-2.8663 0.60819-4.0019" fill="#feae3a"/>
  <path d="m152.82 225.94c-9e-3 -0.38241-0.0162-0.68192-0.0162-0.68192s-2.0895-0.0413-4.9389-0.10125c-2.9178-0.0614-6.6319-0.14252-9.7201-0.22013-3.3842-0.0843-6.0149-0.1644-6.0149-0.20814v2.4433s20.724 0.52916 20.724 0.36618c0-0.1016-0.0194-0.96379-0.0342-1.5981" fill="#e7ddc4"/>
  <path d="m138.12 222.94c-0.21625-1.1716-0.77646-1.9932-1.2742-2.5294-3.6795 1.1596-4.7212 4.2164-4.7212 4.3233 0 0.0437 2.6307 0.12382 6.0149 0.20814 0.11113-0.75812 0.0878-1.4224-0.0194-2.002" fill="#feae3a"/>
  <path d="m184.87 213.25c-0.0649-0.0303-0.6223-0.27658-1.0326-0.45791-0.24695-0.10901-0.44098-0.19438-0.44098-0.19438s-0.65334 1.3233-1.5466 3.126c-0.91546 1.8478-2.0835 4.1995-3.0604 6.1517-1.0703 2.1392-1.9114 3.7976-1.9392 3.7846l0.62477 0.29315 0.93733 0.44027s6.5617-13.094 6.4576-13.143" fill="#e7ddc4"/>
  <path d="m177.51 221.29c-0.81421-0.21343-1.5078-0.10195-2.0002 0.0554-0.36371 2.7012 1.2785 4.2852 1.3473 4.3176 0.0279 0.013 0.86889-1.6454 1.9392-3.7846-0.45156-0.2981-0.88336-0.48296-1.2862-0.58844" fill="#feae3a"/>
  <path d="m176.2 208.44c-0.58032-0.55139-1.1303-1.1709-1.597-1.857-0.78669 0.56233-1.6178 1.0926-2.4962 1.5864v3.5e-4s-3.6551 4.7022-7.801 5.8265c0.43992 0.34079 0.92746 0.68933 1.4637 1.0389 1.8821 1.2273 4.3748 2.4642 7.6115 3.4022 1.0499-0.12065 2.2994-0.0268 2.2994-0.0268l3.7458-7.5946c-0.94438-0.5461-2.1375-1.3416-3.2262-2.376" fill="#57c8cc"/>
  <path d="m181.03 214.89c-0.0727-0.1277-0.1337-0.26105-0.18379-0.39899-0.34502-0.94968-0.18627-2.0997 0.0212-2.9238 0.0526-0.20849 0.10795-0.39441 0.15875-0.55245-0.86995-0.26987-1.5632-0.25964-1.5632-0.25964l-0.0307 0.0628-3.7458 7.5946s-1.2495-0.0938-2.2994 0.0268c-0.6992 0.0801-1.3099 0.25577-1.4037 0.61807-0.23495 0.90664 3.8463 0.96873 3.798 1.1162-0.13512 0.41239-0.22225 0.80468-0.27235 1.1762 0.49248-0.15734 1.186-0.26882 2.0002-0.0554 0.40287 0.10548 0.83467 0.29034 1.2862 0.58844 0.97684-1.9523 2.1449-4.3039 3.0604-6.1517-0.37077-0.22331-0.63853-0.51259-0.82586-0.84103" fill="#fe584c"/>
  <path d="m181.02 211.01c-0.0508 0.15804-0.10618 0.34396-0.15875 0.55245-0.20743 0.82409-0.36618 1.9741-0.0212 2.9238 0.0501 0.13794 0.11112 0.27129 0.18379 0.39899 0.18733 0.32844 0.45509 0.61772 0.82586 0.84103 0.89323-1.8027 1.5466-3.126 1.5466-3.126-0.68968-0.88864-1.6027-1.3504-2.3763-1.5903" fill="#feae3a"/>
  <path d="m164.31 213.99c4.1458-1.1243 7.801-5.8265 7.801-5.8265v-3.5e-4c-2.8907 1.6256-6.2922 2.854-10.293 3.5154 0.56727 0.64206 1.3811 1.451 2.4924 2.3114" fill="#1c8c9e"/>
  <path d="m185.18 192.41c-0.90734 2.3336-2.0708 4.6722-3.5571 6.8802-0.12065 0.18239-0.24659 0.36407-0.37535 0.54504-1.6263 2.3139-3.6199 4.4722-6.0646 6.3193-0.17427 0.13053-0.35172 0.26106-0.53022 0.38982-0.0148 0.0116-0.0307 0.0226-0.0469 0.0339-0.7867 0.56091-1.6164 1.0911-2.4948 1.5857-1.6778 0.94298-3.5281 1.7522-5.5668 2.395-0.21096 0.0681-0.42368 0.13229-0.63994 0.19509-1.2876 0.37712-2.648 0.68827-4.0873 0.92533-0.63641 0.10478-1.2876 0.1965-1.9547 0.27235-1.1959 0.13511-2.4419 0.22366-3.7409 0.25929 0.90911-1.2989 1.9099-2.5174 2.9058-3.6181 1.0075-1.1137 2.0084-2.1082 2.9094-2.9478 0.66217-0.10301 1.3003-0.21625 1.9212-0.33373 0.65405-0.12382 1.2873-0.25612 1.8997-0.39476 0.21766-0.0487 0.43039-0.0984 0.6417-0.14993 2.4836-0.59302 4.6126-1.3039 6.4498-2.0888 0.20143-0.0836 0.39828-0.17074 0.5916-0.25788 2.7397-1.2344 4.8091-2.6352 6.4516-4.0566 0.16405-0.14146 0.32527-0.28539 0.4819-0.42686 2.1516-1.9628 3.5391-3.9342 4.8059-5.5266" fill="#feae3a"/>
  <g fill="#1c8c9e">
   <path d="m180.33 183.88c0.33125 0.37148 0.079 1.1363-0.56304 1.7089-0.6417 0.57256-1.4305 0.73554-1.7618 0.36442-0.33126-0.37148-0.079-1.1366 0.56268-1.7092 0.64206-0.57221 1.4309-0.73519 1.7621-0.36407"/>
   <path d="m180.92 189.09c0.27517 0.30868 0.0656 0.94474-0.46778 1.4206-0.53376 0.47555-1.1896 0.61101-1.4647 0.30233-0.27516-0.30868-0.066-0.94438 0.46779-1.4203 0.53375-0.4759 1.1896-0.61136 1.4647-0.30268"/>
   <path d="m176.42 191.23c0.23143 0.25929 0.0554 0.79411-0.39334 1.1938-0.44838 0.40005-0.99978 0.51365-1.2312 0.25436-0.23107-0.2593-0.055-0.79411 0.39335-1.1942 0.44873-0.40005 0.99977-0.51364 1.2312-0.254"/>
  </g>
  <path d="m120.83 169.37c-1.0442 1.8658-2.7707 2.8956-3.9123 2.3576-0.0289-0.0145-0.0589-0.0293-0.0878-0.0459-1.1377-0.63642-1.1917-2.7037-0.11994-4.6179 0.16686-0.2988 0.35101-0.57538 0.54751-0.82726 1.0654-1.3677 2.4906-2.0214 3.4509-1.4841 1.1388 0.63747 1.1924 2.7044 0.12171 4.6175" fill="#fff"/>
  <path d="m118.45 169.97c-0.4325 0.77258-0.98601 1.3836-1.5392 1.7572-0.0289-0.0145-0.0589-0.0293-0.0878-0.0459-1.1377-0.63642-1.1917-2.7037-0.11994-4.6179 0.16686-0.2988 0.35101-0.57538 0.54751-0.82726 0.46743-0.22119 0.9151-0.25788 1.2686-0.06 0.8636 0.4833 0.83291 2.1819-0.0692 3.7938" fill="#523844"/>
  <path d="m125.98 171.35c-1.0442 1.8658-2.7711 2.8956-3.9123 2.358-0.0289-0.0148-0.0589-0.0296-0.0878-0.0459-1.1377-0.63677-1.1917-2.704-0.12029-4.6182 0.16721-0.2988 0.35101-0.57538 0.54751-0.82726 1.0657-1.3677 2.491-2.0214 3.4512-1.4838 1.1384 0.63711 1.1927 2.7044 0.12171 4.6172" fill="#fff"/>
  <path d="m123.61 171.95c-0.43285 0.77258-0.98636 1.3836-1.5392 1.7575-0.0289-0.0148-0.0589-0.0296-0.0878-0.0459-1.1377-0.63677-1.1917-2.704-0.12029-4.6182 0.16721-0.2988 0.35101-0.57538 0.54751-0.82726 0.46778-0.22084 0.91545-0.25788 1.2686-0.06 0.8636 0.4833 0.83326 2.1819-0.0688 3.7938" fill="#523844"/>
  <g fill="#1c8c9e">
   <path d="m103.58 176.61c0 0.53094-0.29065 0.96168-0.64893 0.96168-0.35843 0-0.64894-0.43074-0.64894-0.96168 0-0.53163 0.29051-0.96202 0.64894-0.96202 0.35828 0 0.64893 0.43039 0.64893 0.96202"/>
   <path d="m106.9 176.16c0 0.53128-0.29034 0.96202-0.6489 0.96202-0.35832 0-0.64879-0.43074-0.64879-0.96202 0-0.53129 0.29047-0.96203 0.64879-0.96203 0.35856 0 0.6489 0.43074 0.6489 0.96203"/>
   <path d="m121.31 178.1-2.3216-2.1731c-0.12982-0.1217-0.33408-0.11535-0.45544 0.0152-0.12206 0.12983-0.115 0.33373 0.0148 0.45544l0.96273 0.90135c-0.64664 0.92286-3.6107 4.5385-9.8693 3.7398-0.17533-0.0229-0.33796 0.10231-0.36054 0.27905-0.0226 0.17674 0.10231 0.33796 0.27905 0.36054 0.64135 0.0818 1.2502 0.11924 1.8281 0.11924 5.2003 0 7.8507-3.0339 8.5958-4.0559l0.88582 0.82903c0.0621 0.0582 0.14111 0.0871 0.22049 0.0871 0.0857 0 0.1718-0.0342 0.2353-0.10196 0.12136-0.13017 0.11465-0.33408-0.0152-0.45578"/>
   <path d="m116.62 183.05c-4e-3 1e-3 -0.42052 0.1076-0.99413 0.0667-0.17992-0.0127-0.33197 0.12101-0.34467 0.29845-0.0123 0.17745 0.12136 0.33161 0.29881 0.34431 0.10901 8e-3 0.21307 0.0113 0.31079 0.0113 0.52176 0 0.87701-0.0928 0.89465-0.0974 0.17145-0.0459 0.2734-0.2219 0.22825-0.3937-0.0455-0.17181-0.2219-0.27446-0.3937-0.22966"/>
  </g>
  <g fill="#fe584c">
   <path d="m166.03 173.55c-1.1846 0.67522-2.5658 1.536-4.034 2.5852-3.9889 2.848-9.4672 7.7202-12.942 14.758v4e-3c-0.10336-0.0325-0.20637-0.0677-0.30938-0.10337 0 0-0.0744-0.28998-0.18556-0.82338 1.5667-8.5968 6.0618-16.209 9.6121-21.139 2.4786-3.4428 4.8465-6.0794 6.2791-7.5766 6e-3 0.30128 0.0145 0.60572 0.0258 0.91052-1.4358 1.5342-3.5684 3.9663-5.7905 7.0545-3.3235 4.6158-7.4814 11.609-9.2237 19.537 3.5264-6.1747 8.4804-10.521 12.176-13.158 1.5459-1.1007 2.9944-1.9971 4.2259-2.6949 0.0533 0.2159 0.10795 0.43215 0.16581 0.64629"/>
   <path d="m137.27 201.96-3.0558 3.6248c-0.17216-0.12876-0.34149-0.26105-0.50941-0.39652l3.0526-3.6216c0.16757 0.13229 0.33867 0.26281 0.51259 0.39334"/>
   <path d="m131.37 195.69-3.6488 2.6737c-0.11465-0.18662-0.2226-0.37359-0.32738-0.55915l3.6068-2.6416c0.1196 0.17251 0.24342 0.34819 0.36936 0.52705"/>
   <path d="m144.28 205.4-2.4045 4.3381c-0.20496-0.0755-0.40816-0.15275-0.60783-0.23354l2.3805-4.2965c0.20779 0.066 0.41734 0.13053 0.63183 0.19191"/>
   <path d="m166.54 210.56c-0.21096 0.0681-0.42368 0.13229-0.63994 0.19509l-0.14675-5.8374c0.21766-0.0487 0.43039-0.0984 0.6417-0.14993l0.14499 5.7923"/>
   <path d="m175.18 206.16c-0.17427 0.13053-0.35172 0.26106-0.53022 0.38982l-1.8038-3.8664c0.20143-0.0836 0.39828-0.17074 0.5916-0.25788l1.7424 3.7345"/>
   <path d="m181.62 199.29c-0.12065 0.18239-0.24659 0.36407-0.37535 0.54504l-1.3554-1.4718c0.16405-0.14146 0.32527-0.28539 0.4819-0.42686l1.2488 1.3536"/>
  </g>
 </g>
</svg>
