<?xml version="1.0" encoding="UTF-8"?>
<!-- Created with Inkscape (http://www.inkscape.org/) -->
<svg width="90.716mm" height="95.141mm" version="1.1" viewBox="0 0 90.716 95.141" xmlns="http://www.w3.org/2000/svg">
 <g transform="translate(-30.006 -99.285)">
  <path d="m90.622 127.06c-0.1972-1.9459-0.21837-3.7673-0.03034-5.3104 0 0-3.4812-0.85514-5.008-1.9547 0 0 2.1682 5.4451 5.0384 7.2651" fill="#962b6a"/>
  <path d="m77.189 130.31c-1.2806-0.53975-3.5627-1.2284-4.1261 0.41769-0.39405 1.1518 0.13018 2.1082 0.80998 2.794 0.72214-0.35913 1.7163-0.83785 2.4656-1.1966 0.36407-0.61666 0.64206-1.2958 0.85055-2.0151" fill="#94901a"/>
  <path d="m74.682 134.19c0.68827-0.51188 1.2312-1.1451 1.6559-1.8641-0.7493 0.35877-1.7434 0.83749-2.4656 1.1966 0.26141 0.26388 0.5454 0.48754 0.80962 0.66745" fill="#696507"/>
  <path d="m77.455 120.85c-1.4228 0.17604-3.8587 0.72567-3.5976 2.4229 0.24271 1.5762 1.8574 1.5741 2.9224 1.3942 0.18415-0.69991 0.48966-1.7918 0.79128-2.57-0.0381-0.43427-0.07796-0.85125-0.11606-1.2471" fill="#94901a"/>
  <path d="m77.725 124.44c-0.0314-0.80962-0.08961-1.5984-0.15416-2.3393-0.30162 0.77823-0.60713 1.8701-0.79128 2.57 0.54398-0.0917 0.94474-0.23001 0.94474-0.22754l7.06e-4 -3e-3" fill="#696507"/>
  <path d="m76.986 113.53c-1.0933-0.0159-3.0625 0.11889-2.885 1.3162 0.14252 0.96379 1.2241 1.4471 2.1682 1.6831l0.68545-2.359c0.0064-0.21307 0.01658-0.42615 0.0314-0.64029" fill="#94901a"/>
  <path d="m76.955 114.17-0.68545 2.359c0.27234 0.0677 0.53305 0.11571 0.75671 0.14781-0.06244-0.81315-0.09772-1.6556-0.07126-2.5068" fill="#696507"/>
  <path d="m79.727 106.85c0.19791-0.20602 0.40746-0.40817 0.63288-0.60537-2.8857-2.3872-5.9408-1.0957-5.77 0.77964 0.10795 1.1906 1.5166 1.8482 2.6695 2.1999 0.99378-1.4901 2.4677-2.3742 2.4677-2.3742" fill="#94901a"/>
  <path d="m79.727 106.85s-1.4739 0.88406-2.4677 2.3742c0.25612 0.078 0.49953 0.14111 0.71332 0.19121 0.41592-0.90064 0.98566-1.765 1.7544-2.5654" fill="#696507"/>
  <path d="m84.998 103.66c0.13864-0.0487 0.28081-0.0963 0.42404-0.14323 0.51118-1.9417-0.7874-3.7934-1.7325-4.1271-1.0382-0.36618-3.1147 0.12206-2.6875 2.5414 0.22789 1.2869 0.87207 1.8863 1.4796 2.2109 0.97155-0.3937 1.8376-0.49283 2.5164-0.4819" fill="#94901a"/>
  <path d="m84.998 103.66c-0.67874-0.0109-1.5448 0.0882-2.5164 0.4819 0.23989 0.12841 0.47413 0.21378 0.67486 0.28187 0.56339-0.27411 1.1762-0.52952 1.8415-0.76377" fill="#696507"/>
  <path d="m68.36 146.42c-3.9095 0.9772-8.672 0-8.672 0s-1.5349 1.4044-3.3729 3.5264c8.9581-0.27623 12.045-3.5264 12.045-3.5264" fill="#962b6a"/>
  <path d="m53.538 153.5c-0.99942-0.69708-2.9168-1.8133-3.7832-0.60854-0.81527 1.1335-0.11501 2.3287 1.1374 3.0536 0.56162-0.47908 1.1977-0.81845 1.7134-1.0149 0.29739-0.48578 0.60995-0.96415 0.93239-1.4302" fill="#94901a"/>
  <path d="m52.606 154.93c-0.51576 0.19649-1.1518 0.53586-1.7134 1.0149 0.27764 0.16086 0.58279 0.29845 0.90452 0.40746 0.25118-0.47943 0.52282-0.95427 0.80892-1.4224" fill="#696507"/>
  <path d="m48.323 161.63c-0.0074-0.92393-0.121-2.993-1.6641-3.157-1.1282-0.11995-1.506 1.2739-1.6263 2.4388 0.42369 0.21061 0.94227 0.46708 1.4534 0.71755 0.69109 0.0155 1.3106 0.0123 1.8369 7.1e-4" fill="#94901a"/>
  <path d="m46.486 161.63c-0.51118-0.25047-1.0298-0.50694-1.4534-0.71755-0.02399 0.23283-0.03775 0.45544-0.04515 0.65581 0.5267 0.0314 1.0291 0.0512 1.4986 0.0617" fill="#696507"/>
  <path d="m40.449 161.01c0.1651-0.77999 0.53058-2.6525-0.63112-3.0282-0.78528-0.254-1.5445 0.85513-2.0542 1.8627 0.25435 0.21519 0.55598 0.48048 0.8576 0.75 0.60889 0.16157 1.2206 0.29845 1.8277 0.41557" fill="#94901a"/>
  <path d="m38.621 160.6c-0.30162-0.26952-0.60325-0.53481-0.8576-0.75-0.0762 0.14993-0.14676 0.29774-0.21096 0.43921 0.35419 0.11183 0.71049 0.21554 1.0686 0.31079" fill="#696507"/>
  <path d="m65.595 176.66c-0.22754-1.5589-0.53199-3.1814-0.77682-3.1806-0.0949 0.70344-0.23707 1.833-0.40816 3.211 0.40181-1e-3 0.79657-0.0113 1.185-0.0303" fill="#962b6a"/>
  <path d="m53.434 170.29-2.4328 3.8915c0.31503 0.11465 0.63253 0.22577 0.9525 0.33408l1.4803-4.2256" fill="#962b6a"/>
  <path d="m51.953 174.52-0.52035 1.4859-0.95744 2.7337c-1.5039-0.60925-2.9044-1.3106-4.2083-2.0824-0.19332-0.11254-0.38347-0.2286-0.57044-0.34325-2.2094-1.3698-4.1307-2.9365-5.799-4.5836-0.15804-0.15628-0.31256-0.3122-0.46567-0.46884-2.1064-2.1646-3.7874-4.4499-5.1121-6.5984 1.942 1.457 4.1388 3.0286 6.5804 4.5402 0.18521 0.1143 0.37218 0.22895 0.56092 0.34325 1.76 1.0668 3.6438 2.0969 5.6473 3.0268 0.19509 0.0921 0.39158 0.18204 0.58984 0.26917 1.0686 0.4819 2.1692 0.93134 3.3024 1.3441 0.31574 0.1143 0.63324 0.22577 0.9525 0.33337" fill="#f2e6c7"/>
  <path d="m92.26 179.99-1.6704-4.6069c-0.69921 0.57008-1.4474 1.1067-2.2423 1.608-1.3356 1.3825-3.6819 3.7317-5.7806 5.7916-1.2294 1.2065-2.3731 2.3132-3.1782 3.0681 1.2354 4.2824 2.4694 8.5714 2.4694 8.5714h4.7614c0.23777-1.4474 0.72672-3.0261 1.7314-3.0593 1.101-0.0356 1.9569 1.6461 2.479 3.0593h0.99624c0.23777-1.4474 0.72672-3.0261 1.7314-3.0593 1.101-0.0356 1.9569 1.6461 2.479 3.0593h1.4566l-5.2331-14.432" fill="#db56a5"/>
  <path d="m77.982 180.99c0.24977 0.86254 0.52776 1.8246 0.81703 2.8268 0.19332 0.66851 0.39123 1.3543 0.58949 2.0408 0.80504-0.75495 1.9487-1.8616 3.1782-3.0681 2.0987-2.0599 4.445-4.409 5.7806-5.7916-2.8889 1.8214-6.3888 3.1789-10.365 3.992" fill="#962b6a"/>
  <g fill="#f2e6c7">
   <path d="m53.336 191.05c-1.179-0.0384-2.0761 1.8926-2.5841 3.3539 1.4002-4e-3 2.9111-6e-3 4.36-8e-3 -0.21908-1.5173-0.70414-3.3105-1.7759-3.3458"/>
   <path d="m48.13 191.05c-1.1832-0.0384-2.0828 1.9061-2.5894 3.3694 0.81421-3e-3 2.4402-8e-3 4.3663-0.013-0.21837-1.5198-0.70273-3.321-1.7769-3.3563"/>
   <path d="m88.35 191.37c-1.0047 0.0332-1.4937 1.6118-1.7314 3.0593h4.2104c-0.52211-1.4132-1.378-3.0949-2.479-3.0593"/>
   <path d="m93.557 191.37c-1.0047 0.0332-1.4937 1.6118-1.7314 3.0593h4.2104c-0.52211-1.4132-1.378-3.0949-2.479-3.0593"/>
  </g>
  <path d="m98.975 149.65c-0.81315-1.3935-1.8838-3.1997-2.8159-4.7473 0.64629 1.8584 1.215 3.9384 1.5801 6.2152 0.44274 0 0.91264-0.0109 1.403-0.0377 0.20849-0.0113 0.42016-0.025 0.63535-0.0427-0.21414-0.37536-0.4893-0.85055-0.80257-1.3875" fill="#962b6a"/>
  <path d="m98.166 156.54v2e-3c-0.0018 0.21766-0.0032 0.43497-0.0099 0.65581-0.06914 3.0508-0.56868 6.35-1.7018 9.8541-0.88159 2.7234-2.4451 5.146-4.5819 7.2027-0.16792 0.16086-0.33867 0.32032-0.51259 0.47836h-0.0018c-0.248 0.22402-0.50624 0.44309-0.7687 0.65758-0.69921 0.57044-1.4474 1.1074-2.2433 1.6083-2.8882 1.8214-6.3874 3.1785-10.365 3.992-0.37712 0.0776-0.75918 0.14852-1.1458 0.21625-0.1644 0.0293-0.32879 0.0564-0.49495 0.084-0.05292 8e-3 -0.10619 0.0176-0.15946 0.0254-3.7779 0.59655-7.9393 0.7239-12.381 0.32068 0.11889-0.97014 0.2353-1.9191 0.34643-2.8152 0.09349-0.75459 0.18027-1.4718 0.26247-2.1308 0.40322-2e-3 0.79798-0.0113 1.1864-0.0307 3.3475-0.16439 6.1951-0.97508 8.5824-2.2694 0.20461-0.11112 0.40605-0.22542 0.60396-0.34466 2.5982-1.5473 4.6193-3.6876 6.1196-6.1828 0.1143-0.18839 0.22437-0.37853 0.33232-0.57186 1.6535-2.9587 2.6158-6.3726 2.975-9.8732 0.02575-0.25753 0.05186-0.51258 0.07408-0.76553 0.0194-0.21907 0.0374-0.43497 0.05327-0.65122 0.36089-4.6397 0.1016-8.5369 0.11465-11.799 0-0.21907 0.0014-0.43497 0.0046-0.64805 0.05327-3.1782 0.43674-5.7277 2.0436-7.7569 1.9438-2.4546 4.058-2.092 5.6102-1.2086 0.53164 1.8292 1.1751 3.605 1.905 5.2123 0.08079 0.17391 0.15946 0.34607 0.24201 0.5154 0.4833 1.0107 0.98601 2.1452 1.4633 3.3927 0.08043 0.20814 0.15946 0.41733 0.23671 0.63182 0.06914 0.18697 0.13723 0.37536 0.2032 0.56727 0.64629 1.8584 1.2136 3.9374 1.5794 6.2145 0.0889 0.55316 0.1658 1.1151 0.22895 1.6905 0.13053 1.1963 0.20108 2.437 0.19826 3.7264" fill="#f2e6c7"/>
  <path d="m56.268 124.68c1.0269 1.838 2.1978 4.2496 3.9409 6.3359 1.3698-0.889 2.2768-2.431 2.2768-4.1857 0-2.7545-2.2331-4.9876-4.9876-4.9876-1.2323 0-2.359 0.44732-3.2293 1.1878 0.80539 0.23531 1.5117 0.77752 1.9992 1.6496" fill="#57c8cc"/>
  <path d="m86.56 103.18c-0.39546 0.1069-0.77364 0.2212-1.1381 0.34043-0.14323 0.0469-0.2854 0.0945-0.42404 0.14323-0.66534 0.23425-1.2781 0.48966-1.8415 0.76377-0.34819 0.16898-0.67592 0.34537-0.98742 0.5281-0.68545 0.40182-1.2862 0.83432-1.8094 1.2926-0.22542 0.1972-0.43498 0.39935-0.63288 0.60537-0.7687 0.80045-1.3384 1.6648-1.7544 2.5654-0.19297 0.41769-0.35384 0.84278-0.48507 1.2732-0.28434 0.93169-0.43568 1.8867-0.5013 2.837-0.01482 0.21414-0.02505 0.42722-0.0314 0.64029-0.02646 0.85126 0.0088 1.6937 0.07126 2.5068 0.01729 0.22508 0.03634 0.44768 0.05715 0.66816 0.09984 1.0559 0.23142 2.0507 0.31574 2.9365 0.01764 0.18379 0.03634 0.37465 0.05539 0.56973 0.0381 0.39582 0.07796 0.8128 0.11606 1.2471 0.06456 0.74084 0.12277 1.5296 0.15416 2.3393 0.0099 0.25083 0.01658 0.50342 0.02046 0.75742 0.02646 1.7311-0.09525 3.519-0.55633 5.1124-0.20849 0.71931-0.48648 1.3984-0.85055 2.0151-0.42474 0.71896-0.96767 1.3522-1.6559 1.8641-0.36019 0.26776-0.75953 0.50307-1.2037 0.69886-0.85972 0.37888-1.8842 0.61348-3.1023 0.66463-4.869 0.20426-7.9721-1.9071-10.168-4.5353-1.7431-2.0863-2.9139-4.4979-3.9409-6.3359-0.48754-0.87207-1.1938-1.4143-1.9992-1.6496-2.2532-0.65863-5.2839 1.0926-6.4805 4.8112 0.72002-0.40323 1.5494-0.63395 2.4331-0.63395 0.86466 0 1.6775 0.22014 2.3865 0.60713 1.2732 0.69533 2.2098 1.9294 2.5037 3.3958 0.0635 0.31856 0.09772 0.6477 0.09772 0.98461 0 2.7548-2.2334 4.9879-4.9879 4.9879-0.79939 0-1.554-0.18909-2.2236-0.52317 1.5198 5.83 5.2973 9.0632 11.69 9.7624 0 0 4.7625 0.9772 8.672 0 0 0-3.0868 3.2501-12.045 3.5264-0.901 1.0396-1.8747 2.2518-2.7764 3.5556-0.32244 0.46602-0.635 0.94439-0.93239 1.4302-0.2861 0.46813-0.55774 0.94297-0.80892 1.4224-0.19297 0.369-0.37324 0.74048-0.53904 1.1127-0.6103 1.3691-1.0199 2.7506-1.0926 4.0704 0 0-0.6985 0.066-1.8429 0.0914-0.52634 0.0116-1.1458 0.0148-1.8369-7.1e-4 -0.46955-0.0106-0.9719-0.0303-1.4986-0.0617-0.24659-0.0148-0.49848-0.0317-0.7553-0.0522-1.1867-0.0935-2.473-0.25012-3.7825-0.50271-0.60713-0.11712-1.2188-0.254-1.8277-0.41557-0.35807-0.0952-0.71438-0.19896-1.0686-0.31079-0.33655-0.10654-0.67098-0.22049-1.0015-0.34396-2.6384-0.98214-5.0465-2.5121-6.5458-4.8793 0 0 1.1137 4.403 4.3134 9.5973 4.3332 3.2487 9.9307 7.0707 16.682 9.5236l2.4328-3.8915-1.4803 4.2256-0.5207 1.4852-0.95744 2.734-1.1906 3.3983-4.3053 12.29s0.20144-7.1e-4 0.56092-2e-3c0.50659-1.4633 1.4062-3.4078 2.5894-3.3694 1.0742 0.0353 1.5586 1.8366 1.7769 3.3563 0.27622-1e-3 0.55845-2e-3 0.84526-2e-3 0.508-1.4612 1.4051-3.3923 2.5841-3.3539 1.0717 0.0353 1.5568 1.8284 1.7759 3.3458 3.623-5e-3 6.852-1e-3 6.9578 0.0254 0.11395 0.0286 0.71684-4.639 1.3416-9.6562 0.12982-1.0435 0.2607-2.1018 0.38841-3.1362 0.11959-0.97085 0.23636-1.9191 0.34678-2.8152 0.09313-0.75494 0.18133-1.4711 0.26352-2.1311 0.1711-1.378 0.31327-2.5075 0.40816-3.211 0.24483-7.1e-4 0.54928 1.6217 0.77682 3.1806 12.061-0.59019 17.621-9.5906 18.614-19.242 1.0686-10.383-1.191-17.223 2.2902-21.62 1.9431-2.4546 4.0573-2.0923 5.6102-1.2086-0.72708-2.5058-1.2435-5.1125-1.488-7.5279-2.8702-1.82-5.0384-7.2651-5.0384-7.2651 1.5268 1.0996 5.008 1.9547 5.008 1.9547s13.925 2.9316 15.88-8.062c1.9544-10.993-8.1844-13.68-19.91-10.505" fill="#db56a5"/>
  <path d="m55.111 131.21c-0.29386-1.4665-1.2305-2.7005-2.5037-3.3958-0.70908-0.38699-1.5219-0.60713-2.3865-0.60713-0.88371 0-1.7131 0.23072-2.4331 0.63395-1.5236 0.85336-2.5545 2.4828-2.5545 4.3536 0 1.9554 1.1257 3.647 2.764 4.4648 0.66957 0.33408 1.4242 0.52317 2.2236 0.52317 2.7545 0 4.9879-2.2331 4.9879-4.9879 0-0.33691-0.03422-0.66605-0.09772-0.98461" fill="#57c8cc"/>
  <path d="m114.16 134.38c-0.60043-2.08-2.5174-3.6022-4.7911-3.6022-2.7548 0-4.9879 2.2331-4.9879 4.9879 0 0.81386 0.1965 1.5815 0.54187 2.2602 4.7293-2.7972 6.7807-4.5156 9.2371-3.646" fill="#57c8cc"/>
  <path d="m114.35 135.75c0.27976-0.0804 0.56903-0.13829 0.86643-0.16898-0.17745-0.5775-0.49918-0.98813-0.97014-1.1666-0.0307-0.0116-0.0614-0.0208-0.0921-0.0318-2.4564-0.86959-4.5078 0.84879-9.2371 3.646-0.3623 0.21449-0.73907 0.43462-1.1349 0.66111-2.0535 1.1754-4.1607 1.5554-6.0149 1.5663-1.458 8e-3 -2.7594-0.21061-3.7536-0.45438 0.07937 0.17392 0.15946 0.34643 0.24095 0.51647 0.63394 1.3257 1.3018 2.8624 1.9029 4.5903 0.93204 1.5476 2.0027 3.3539 2.8159 4.7473 0.31327 0.53693 0.58843 1.0121 0.80257 1.3875 2.7115-0.21731 5.9454-0.93521 8.7697-2.8448 1.585-1.0717 2.9058-2.4246 3.9508-3.8622-1.0675-0.91123-1.7459-2.2638-1.7512-3.7758 0-6e-3 -7e-4 -0.012-7e-4 -0.0183 0-2.2751 1.5236-4.1928 3.6054-4.7921" fill="#db56a5"/>
  <path d="m115.73 135.55c-0.17427 0-0.34608 9e-3 -0.51576 0.0265-0.2974 0.0307-0.58667 0.0885-0.86643 0.16898-2.0817 0.59937-3.6054 2.5171-3.6054 4.7921 0 6e-3 7e-4 0.0123 7e-4 0.0183 5e-3 1.512 0.68368 2.8646 1.7512 3.7758 0.87101 0.74365 2.0002 1.1938 3.2357 1.1938 2.7548 0 4.9879-2.2331 4.9879-4.9879 0-2.7545-2.2331-4.9876-4.9879-4.9876" fill="#57c8cc"/>
  <g fill="#ccbf9d">
   <path d="m95.956 144.34c-1.2136 0.0935-2.577 0.12877-3.9582 0.12877-2.8078 0-5.6928-0.14817-7.5473-0.26741 0-0.21907 0.0014-0.43497 0.0046-0.64805 2.6998 0.1711 7.6556 0.40957 11.264 0.15487 0.08043 0.20814 0.15946 0.41733 0.23671 0.63182"/>
   <path d="m98.166 156.54c-0.0018 0.21766-0.0032 0.43497-0.0099 0.65581-1.3585 0.19967-2.8317 0.27905-4.3159 0.27905-3.6117 0-7.2912-0.46919-9.5575-0.82374 0.0194-0.21907 0.0374-0.43497 0.05327-0.65122 3.1764 0.49177 9.2544 1.2248 13.83 0.5401"/>
   <path d="m81.234 167.29c-0.10795 0.19333-0.21802 0.38347-0.33232 0.57186 0.71438 0.61453 1.718 1.4383 2.951 2.3516 1.9487 1.4457 4.6514 3.2477 7.5057 4.5177h0.0018c0.17392-0.15804 0.34466-0.3175 0.51259-0.47836-4.3064-1.8602-8.46-5.0849-10.639-6.9628"/>
   <path d="m76.835 181.2c-0.1644 0.0293-0.32879 0.0564-0.49495 0.084-0.05292 8e-3 -0.10619 0.0176-0.15946 0.0254-1.1539-2.7284-1.7505-5.0976-2.0031-6.9254 0.20461-0.11112 0.40605-0.22542 0.60396-0.34466 0.21943 1.7759 0.78987 4.221 2.0535 7.1607"/>
   <path d="m47.698 172.84c-0.47061 1.0908-1.0266 2.485-1.4312 3.8146-0.19332-0.11254-0.38347-0.2286-0.57044-0.34325 0.41099-1.3215 0.9525-2.6772 1.4118-3.7405 0.19509 0.0921 0.39158 0.18204 0.58984 0.26917"/>
   <path d="m40.9 169.2c-0.48366 0.61736-1.0072 1.3427-1.4683 2.0581 0.15311 0.15664 0.30762 0.31256 0.46567 0.46884 0.4886-0.76552 1.0608-1.5455 1.5635-2.1837-0.18874-0.1143-0.37571-0.22895-0.56092-0.34325"/>
  </g>
  <g fill="#962b6a">
   <path d="m60.989 159.05c0.70344 0.48472 0.63747 1.8009-0.14746 2.9404-0.78493 1.1391-1.9914 1.6697-2.6952 1.1846-0.70344-0.48471-0.63782-1.8009 0.14711-2.9404 0.78493-1.1391 1.9918-1.6697 2.6956-1.1846"/>
   <path d="m68.596 158.21c0.43462 0.2995 0.39405 1.1123-0.09066 1.8164-0.48507 0.70344-1.2301 1.0308-1.6648 0.73166-0.43462-0.29951-0.39405-1.113 0.09102-1.8164 0.48472-0.70344 1.2298-1.0315 1.6644-0.73166"/>
   <path d="m62.902 165.58c0.33267 0.22895 0.30127 0.85125-0.06985 1.3896-0.37077 0.53869-0.94156 0.78951-1.2739 0.56021-0.33267-0.22931-0.30162-0.85125 0.0695-1.3903 0.37112-0.53834 0.94156-0.78916 1.2742-0.5595"/>
  </g>
  <path d="m86.71 107.34c0 1.3921 0.877 2.5262 1.977 2.5838 0.02822 7e-4 0.0575 2e-3 0.08678 2e-3 1.1388 0 2.062-1.1571 2.062-2.5855 0-0.22295-0.02187-0.4385-0.06421-0.64417-0.22895-1.1158-1.0365-1.9406-1.9978-1.9406-1.1405 0-2.0638 1.1575-2.0638 2.5848" fill="#fff"/>
  <path d="m88.263 108.43c0 0.57644 0.16122 1.0996 0.42369 1.488 0.02822 7e-4 0.0575 2e-3 0.08678 2e-3 1.1388 0 2.062-1.1571 2.062-2.5855 0-0.22295-0.02187-0.4385-0.06421-0.64417-0.26211-0.27446-0.58773-0.43744-0.94156-0.43744-0.86466 0-1.5667 0.97472-1.5667 2.1773" fill="#94901a"/>
  <path d="m91.942 107.34c0 1.3921 0.877 2.5262 1.977 2.5838 0.02822 7e-4 0.0575 2e-3 0.08678 2e-3 1.1388 0 2.062-1.1571 2.062-2.5855 0-0.22295-0.02187-0.4385-0.06421-0.64417-0.22895-1.1158-1.0365-1.9406-1.9978-1.9406-1.1405 0-2.0638 1.1575-2.0638 2.5848" fill="#fff"/>
  <path d="m93.495 108.43c0 0.57644 0.16122 1.0996 0.42369 1.488 0.02822 7e-4 0.0575 2e-3 0.08678 2e-3 1.1388 0 2.062-1.1571 2.062-2.5855 0-0.22295-0.02187-0.4385-0.06421-0.64417-0.26211-0.27446-0.58773-0.43744-0.94156-0.43744-0.86466 0-1.5667 0.97472-1.5667 2.1773" fill="#94901a"/>
  <path d="m99.101 110.97c0 0.96097-0.25541 1.7399-0.56974 1.7399-0.31503 0-0.57009-0.77893-0.57009-1.7399 0-0.96096 0.25506-1.7399 0.57009-1.7399 0.31432 0 0.56974 0.77894 0.56974 1.7399" fill="#962b6a"/>
  <path d="m101.97 110.97c0 0.96097-0.25506 1.7399-0.57009 1.7399-0.31468 0-0.57009-0.77893-0.57009-1.7399 0-0.96096 0.25541-1.7399 0.57009-1.7399 0.31503 0 0.57009 0.77894 0.57009 1.7399" fill="#962b6a"/>
  <path d="m90.751 114.28c-0.49953 0.12735-1.0897 0.0808-1.6619-0.13194-0.57185-0.21272-1.0492-0.56268-1.3437-0.98495-0.04833-0.0691-0.09031-0.13865-0.12594-0.20779 0.77505 0.35454 1.6344 0.63324 2.5255 0.81527 0.41592 0.0857 0.83185 0.14852 1.2442 0.18874-0.16122 0.14499-0.37712 0.2547-0.63818 0.32067zm-3.2427 2.3855c-1.76-0.51435-3.0138-1.6986-3.0914-3.1334-0.0049-0.0741-0.0049-0.14958-0.0014-0.22401 0.248-0.0981 0.51576-0.15134 0.79269-0.15134 1.3268 0 2.4049 1.2185 2.4049 2.7157 0 0.27552-0.03704 0.54151-0.10478 0.79304zm7.5523-2.8526c-0.2547-0.40322-0.70414-0.61101-1.1733-0.53834h-0.0014c-0.49001 0.0741-1.0058 0.10619-1.5378 0.0967-0.21096-4e-3 -0.42545-0.013-0.64135-0.0289-0.47237-0.0374-0.9525-0.10513-1.4326-0.2032-1.0044-0.20638-1.9614-0.53834-2.7919-0.96556-0.19967-0.10301-0.39299-0.21272-0.57644-0.32561-0.18415-0.11289-0.35983-0.23177-0.52564-0.35454-0.39158-0.28857-0.88653-0.37712-1.3571-0.24342-0.46708 0.13406-0.83785 0.46602-1.0153 0.91229-0.09525 0.23847-0.16122 0.48189-0.20002 0.72672-0.03528 0.22436-0.04798 0.45155-0.03528 0.67874 0.0018 0.0402 0.0049 0.0804 0.0095 0.121 0.14993 1.6372 1.5508 2.9831 3.4911 3.5747 0.20638 0.0642 0.41875 0.11924 0.63641 0.16263 0.50941 0.10795 1.0495 0.1644 1.6055 0.1644 0.14499 0 0.29139-3e-3 0.43991-0.0113 2.1678-0.11748 4.118-1.0816 5.0881-2.5142 0.25788-0.38029 0.26423-0.86078 0.01764-1.252" fill="#523844"/>
  <path d="m91.389 113.96c-0.16122 0.14499-0.37712 0.2547-0.63818 0.32067-0.49953 0.12735-1.0897 0.0808-1.6619-0.13194-0.57185-0.21272-1.0492-0.56268-1.3437-0.98495-0.04833-0.0691-0.09031-0.13865-0.12594-0.20779 0.77505 0.35454 1.6344 0.63324 2.5255 0.81527 0.41592 0.0857 0.83185 0.14852 1.2442 0.18874" fill="#fff"/>
  <path d="m87.613 115.87c0 0.27552-0.03704 0.54151-0.10478 0.79304-1.76-0.51435-3.0138-1.6986-3.0914-3.1334-0.0049-0.0741-0.0049-0.14958-0.0014-0.22401 0.248-0.0981 0.51576-0.15134 0.79269-0.15134 1.3268 0 2.4049 1.2185 2.4049 2.7157" fill="#fe584c"/>
 </g>
</svg>
