<?xml version="1.0" encoding="UTF-8"?>
<!-- Created with Inkscape (http://www.inkscape.org/) -->
<svg width="99.884mm" height="86.627mm" version="1.1" viewBox="0 0 99.884 86.627" xmlns="http://www.w3.org/2000/svg">
 <g transform="translate(122.63 -40.568)">
  <path d="m-122.63 127.2h76.465l16.978-10.138h-67.759l-25.684 10.138" fill="#1c8c9e"/>
  <path d="m-33.66 86.137c-0.35631 0.74154-1.1878 1.2471-2.0158 1.1748-1.5032-0.13018-2.3199-2.3012-0.55386-2.7009 0.58843-0.133 0.9204-0.50024 1.0453-0.9338 0.28504 0.5394 0.84772 0.93768 1.5868 0.83679 0.01129 0.0095 0.03528 0.03245 0.06209 0.08537 0.06668 0.13264 0.08537 0.31044 0.09666 0.45226 0.03069 0.37324-0.06103 0.75212-0.22119 1.0855zm-73.138 3.2103c-0.67662 0.4826-1.6496 0.47025-2.3329 0.0127-0.30727-0.20602-0.57926-0.48578-0.74259-0.82232-0.0617-0.12806-0.13653-0.29034-0.14641-0.43886-4e-3 -0.05927 5e-3 -0.09102 0.0102-0.10513 0.68792-0.28857 0.97014-0.91793 0.94157-1.5272 0.32738 0.31009 0.8001 0.45755 1.3744 0.27305 1.724-0.55316 2.1244 1.7318 0.8957 2.6077zm84.011 1.4316c-0.23283-0.85901-1.0622-1.2086-1.8782-1.0788-1.3328 0.21237-2.6853 0.11642-3.9719-0.23354 0.35983-0.06491 0.71896-0.14852 1.0763-0.25718 1.3917-0.42298 2.9983-1.1056 3.6982-2.467 0.89958-1.7501-1.7713-3.2494-2.6748-1.4915-0.32244 0.62724-1.4467 0.90382-2.0832 1.0767-0.63359 0.17216-1.2993 0.26917-1.9622 0.27411 0.0575-0.20426 0.10336-0.41346 0.13511-0.62759 0.3549-2.3869-1.1536-4.9763-3.8358-4.4341-0.58984 0.11924-0.92287 0.4759-1.0492 0.90276-0.2981-0.56444-0.90205-0.96802-1.6965-0.78846-2.3312 0.5274-3.7155 2.9249-3.145 5.2158 0.14288 0.57397 0.39934 1.0975 0.73836 1.5554-0.61419 1.1049-1.9932 2.5379-5.0754 3.7133-3.8439 1.4661-8.6469-2.4832-11.547-5.4384-0.28152 0.14534-0.59196 0.27481-0.92745 0.39017-0.39864 0.13758-0.83256 0.25506-1.2958 0.35384-5.7542 1.2294-16.017-0.34008-18.953-0.83644 1.9403 0.11748 10.991 0.42792 18.272-3.3609 1.174-0.61066 2.3012-1.3282 3.3457-2.1703 1.0753-0.86713 2.0634-1.8648 2.9214-3.0155 7.512-10.077 9.7109-22.261 7.7872-28.125-1.9237-5.8632-7.5124-5.8632-10.444-3.6647-2.9312 2.1989-4.8553 4.8556-6.9624 3.6647-0.74542-0.42157-2.3756-1.9674-4.7096-3.4396-5.6123 6.3306-22.618 8.0215-27.519 8.3824-0.24906 0.37359-0.48507 0.74824-0.70732 1.1243-0.18591 0.31327-0.3623 0.62689-0.52987 0.94121-0.54998 1.0287-1.0061 2.062-1.3787 3.0893-0.11007 0.30445-0.21308 0.6089-0.30939 0.91228-0.38065 1.2061-0.64946 2.3999-0.81986 3.5659-0.09631 0.6604-0.16122 1.3116-0.19756 1.9512-0.07232 1.2591-0.03422 2.4719 0.09384 3.6146 0.03881 0.34361 0.08537 0.68016 0.1397 1.0104 0.08326 0.50906 0.1838 1.0019 0.30092 1.476 0.05821 0.23707 0.12418 0.47202 0.19473 0.70591 0.21519 0.71296 0.4893 1.4104 0.81562 2.0902 0.47237 0.9846 1.058 1.9315 1.7575 2.8289 0.30339 0.38947 0.62865 0.76941 0.97402 1.1395 0.4251 0.45579 0.88265 0.89535 1.3702 1.3187 0.40922 0.35595 0.83961 0.70062 1.2926 1.0319 0.87136 0.63747 1.8217 1.2277 2.8501 1.7632 0.33232 0.17286 0.67416 0.33937 1.0227 0.50094 0.30339 0.1404 0.61419 0.27587 0.93028 0.40746-0.12841 0.28681-0.26317 0.5909-0.40464 0.91299-1.7314 2.0676-4.8976 5.4719-7.953 6.7934-3.2371 1.3995-6.6827-0.70944-8.3778-2.0193 0.51435-1.0224 0.66922-2.2183 0.3302-3.3577-0.67275-2.2627-3.0836-3.6241-5.359-2.8935-0.77576 0.24871-1.0904 0.90346-1.0604 1.5409-0.32561-0.30374-0.79375-0.44132-1.3628-0.24412-2.5855 0.89606-2.5682 3.8929-1.0495 5.7683 0.13617 0.16792 0.28187 0.32491 0.43497 0.47166-0.57361 0.33267-1.1956 0.58738-1.8288 0.76129-0.63606 0.17427-1.7452 0.5073-2.3414 0.13088-1.6715-1.0545-3.2099 1.5938-1.5459 2.6441 1.2947 0.81668 3.0254 0.58808 4.4394 0.24518 0.3623-0.08784 0.71402-0.19826 1.0573-0.32561-0.93062 0.95568-2.0468 1.7251-3.302 2.2197-0.76905 0.30339-1.3053 1.0255-1.0696 1.8835 0.20144 0.73237 1.1098 1.3744 1.8835 1.0696 1.2622-0.49742 2.4289-1.1599 3.4696-1.9756 2.2867 5.7429 9.4439 5.4779 14.177 4.5868 1.3049-1.7995 4.2185-5.8335 5.5633-7.6969-0.84843 2.2662-1.682 4.6351-2.413 6.9472-0.12136 0.38241-0.23883 0.76306-0.35384 1.1416-0.09419 0.31009-0.18627 0.61842-0.27587 0.92499-0.51894 1.7769-0.95814 3.489-1.2753 5.0588 1.2996 0.34255 3.3814 0.91898 5.3979 1.4838 0.72214 0.20214 1.4355 0.40287 2.1018 0.59055 0.63782 0.0924 1.276 0.18662 1.9121 0.28258-0.10125-5.3809 0.86184-20.282 11.023-20.684 10.097-0.3997 14.765 11.88 15.972 16.387 2.7347-0.64382 5.2222-1.0439 7.3244-1.1779-0.10724-0.57397-0.22296-1.173-0.34749-1.7932-0.26423-1.313-0.56762-2.7182-0.91299-4.1734-0.50412-2.123-1.0971-4.3501-1.7865-6.544 1.1 1.8059 2.4987 4.3116 3.3256 6.8908 0.09948 0.31009 0.17004 0.60113 0.21661 0.87383 2.443 1.4746 5.6222 2.5016 9.555 1.9777 8.3781-1.1158 9.6337-8.5806 9.9303-11.447 2.4289 1.1448 5.1103 1.4767 7.7837 1.0516 0.82127-0.13088 1.2774-1.1451 1.0788-1.8782" fill="#f6a466"/>
  <g fill="#e1464e">
   <path d="m-91.043 94.866c-1.3448 1.8634-4.2584 5.8974-5.5633 7.6969 1.2725-0.23989 2.3703-0.52423 3.1503-0.74966 0.73096-2.3121 1.5646-4.681 2.413-6.9472"/>
   <path d="m-58.64 83.792v0.0011c-0.10619-0.18486-0.21343-0.36724-0.32209-0.54645-7.2806 3.7888-16.331 3.4784-18.272 3.3609 2.9362 0.49636 13.199 2.0659 18.953 0.83644 0.4632-0.09878 0.89711-0.21625 1.2958-0.35384 0.33549-0.11536 0.64594-0.24483 0.92745-0.39017-1.5699-1.5995-2.5823-2.9079-2.5823-2.9079"/>
   <path d="m-54.677 93.31c0.68933 2.1939 1.2823 4.421 1.7865 6.544 0.53552 0.42439 1.1211 0.83749 1.7558 1.2206-0.04657-0.2727-0.11712-0.56374-0.21661-0.87383-0.82691-2.5792-2.2257-5.0849-3.3256-6.8908"/>
  </g>
  <path d="m-58.954 107c-0.68792 0.16263-1.3921 0.34008-2.1078 0.53199-6.8432 1.8355-13.551 4.6157-14.815 5.436-2.7174-0.49459-6.3436-1.1074-10.073-1.6697-0.02575-1.3681 0.01764-3.3507 0.26247-5.5552 0.02399-0.21131 0.05009-0.42545 0.07585-0.6417 0.26282-2.05 0.70273-4.2531 1.428-6.3066 0.07267-0.21096 0.14958-0.42051 0.23036-0.62689 1.5635-4.0435 4.2997-7.3671 9.0255-7.554 5.3107-0.20955 9.119 3.085 11.712 6.9127 0.12912 0.19015 0.2547 0.38206 0.37747 0.57538 1.2442 1.947 2.1837 3.992 2.8571 5.7552 0.07937 0.20955 0.15522 0.41416 0.22754 0.6156 0.35137 0.97543 0.6156 1.8408 0.79904 2.5273" fill="#f2e6c7"/>
  <path d="m-70.754 115.81c-1.6055-0.66852-2.9517-1.2661-3.8901-1.73-0.37818-0.18627-0.68862-0.35102-0.92463-0.49001 0 0 0.24095 0.22225 0.63712 0.58561 0.49671 0.45508 1.2368 1.1324 2.0553 1.8757 1.1282 1.0248 2.4021 2.1724 3.3874 3.0349 1.9689-0.45684 3.5168-0.8262 4.4076-1.0379-2.0599-0.7747-4.0058-1.5445-5.6727-2.2384" fill="#e1464e"/>
  <path d="m-89.963 110.42c-2.0165-0.5648-4.0982-1.1412-5.3979-1.4838-0.07514 0.37183-0.14323 0.73554-0.20391 1.0904 1.7096 0.17957 3.5856 0.41275 5.5146 0.67593 0.72425 0.0988 1.4559 0.20179 2.189 0.30797-0.6664-0.18768-1.3797-0.38841-2.1018-0.59055" fill="#e1464e"/>
  <path d="m-45.488 106.86c-1.0587-0.89852-3.2307-1.2227-6.1419-1.0375-2.1022 0.13406-4.5896 0.53411-7.3244 1.1779-0.68792 0.16192-1.391 0.33902-2.1075 0.53128-6.8428 1.8358-13.551 4.6157-14.814 5.4363-2.7171-0.49459-6.3429-1.107-10.073-1.6697-0.63606-0.096-1.2742-0.19015-1.9121-0.28258-0.73307-0.10618-1.4647-0.2092-2.189-0.30797-1.929-0.26318-3.8051-0.49636-5.5146-0.67593-0.50024-0.0529-0.98637-0.10054-1.4552-0.14322-3.4819-0.31786-6.017-0.34996-6.428 0.14711-0.8449 1.0206-0.95885 4.7195-0.29633 8.103 0.48683 2.4871 1.3942 4.8038 2.7393 5.7609 2.3922 1.7022 21.937-2.5904 31.515-4.8126-0.98531-0.86254-2.2592-2.0101-3.3874-3.0349-0.81844-0.74331-1.5586-1.4206-2.0553-1.8757-0.39617-0.36336-0.63712-0.58561-0.63712-0.58561 0.23601 0.13899 0.54645 0.30374 0.92463 0.49001 0.93839 0.4639 2.2846 1.0615 3.8901 1.73 1.6669 0.69391 3.6128 1.4637 5.6727 2.2384 0.51329 0.19297 1.0336 0.38629 1.5586 0.57891 7.2143 2.6462 15.272 5.1375 17.485 4.5995 4.2753-1.0379 2.565-14.658 0.54963-16.367" fill="#f6a466"/>
  <path d="m-104.3 107.42c-0.15452-0.91793-0.31715-2.6649-1.7868-2.3523-0.92816 0.19685-1.421 1.2305-1.6813 2.196 0.81809 0.0942 1.93 0.19261 2.9199 0.2734 0.18415-0.0381 0.36689-0.0769 0.54822-0.11712" fill="#57c8cc"/>
  <path d="m-112 108.29c-0.0656-1.1557-0.26035-3.193-1.5261-3.223-0.95074-0.0229-1.6743 1.2122-2.1301 2.3142 0.52741 0.22189 1.2206 0.52846 1.9294 0.84596 0.57714 0.0395 1.1532 0.0593 1.7268 0.0628" fill="#57c8cc"/>
  <path d="m-113.73 108.23c-0.70873-0.3175-1.4019-0.62407-1.9294-0.84596-0.0868 0.2099-0.16404 0.41486-0.23142 0.60536 0.72002 0.11254 1.4408 0.19121 2.1608 0.2406" fill="#1c8c9e"/>
  <path d="m-104.85 107.54c-0.98989-0.0808-2.1018-0.17921-2.9199-0.2734-0.0737 0.2734-0.12911 0.5408-0.17004 0.78246 1.0583-0.12912 2.0923-0.30339 3.09-0.50906" fill="#1c8c9e"/>
  <path d="m-104.3 107.42c-0.18133 0.0402-0.36407 0.079-0.54822 0.11712-0.99765 0.20567-2.0316 0.37994-3.09 0.50906-0.254 0.0314-0.50941 0.0596-0.76588 0.0854-1.0809 0.10795-2.1833 0.16545-3.2956 0.1591-0.57361-4e-3 -1.1497-0.0233-1.7268-0.0628-0.72002-0.0494-1.4408-0.12806-2.1608-0.2406-0.35454-0.0554-0.70908-0.12029-1.0626-0.19261-1.2573-0.25753-2.5037-0.6223-3.7218-1.119 0 0 4.6965 11.159 16.927 11.462-0.66252-3.3835-0.54857-7.0824 0.29633-8.103 0.41099-0.49707 2.946-0.46497 6.428-0.14711 0.46884 0.0427 0.95497 0.0903 1.4552 0.14322 0.06068-0.35489 0.12876-0.7186 0.20391-1.0904 0.31715-1.5699 0.75636-3.2819 1.2753-5.0588-1.626 0.78775-5.4733 2.4941-10.214 3.5384" fill="#e1464e"/>
  <path d="m-92.839 80.647c-1.2774 0.85125-3.9416 2.8801-2.5876 4.203 0.92851 0.90699 3.1866 0.24448 5.0719-0.58984-0.60008-0.63218-1.0273-1.8426-1.1917-2.5813-0.45297-0.33126-0.88336-0.67592-1.2926-1.0319" fill="#57c8cc"/>
  <path d="m-91.546 81.679c0.1644 0.73872 0.59161 1.9491 1.1917 2.5813 0.61136-0.27058 1.1836-0.55915 1.6584-0.81809-1.0283-0.53552-1.9787-1.1257-2.8501-1.7632" fill="#1c8c9e"/>
  <path d="m-97.756 73.27c-1.3705 0.69286-6.0032 3.1337-5.4469 4.2108 0.39899 0.77329 3.962 0.85866 6.6435 0.77152l-0.381-2.8921c-0.32632-0.6798-0.60043-1.3772-0.81562-2.0902" fill="#57c8cc"/>
  <path d="m-96.941 75.36 0.381 2.8921c0.49812-0.01623 0.9652-0.03845 1.3765-0.06315-0.69956-0.89747-1.2852-1.8443-1.7575-2.8289" fill="#1c8c9e"/>
  <path d="m-98.288 64.512c-1.7057 0.21272-6.5641 1.0562-6.4625 3.5634 0.0706 1.7434 2.746 2.0824 4.9879 2.0588 0.29422-0.9084 0.87312-2.715 1.2771-3.671 0.03634-0.63959 0.10125-1.2908 0.19756-1.9512" fill="#57c8cc"/>
  <path d="m-98.486 66.463c-0.40393 0.95603-0.98284 2.7626-1.2771 3.671 0.48789-0.0053 0.95568-0.02752 1.3709-0.05645-0.12806-1.1426-0.16616-2.3555-0.09384-3.6146" fill="#1c8c9e"/>
  <path d="m-95.78 56.944c0.16757-0.31432 0.34396-0.62794 0.52987-0.94121-1.3624-0.22825-4.6228-0.66358-5.3065 0.67134-0.5073 0.99025 1.2319 2.195 2.7316 3.0117 0.7493-0.98742 2.0443-2.7418 2.0443-2.7418h7.05e-4" fill="#57c8cc"/>
  <path d="m-95.78 56.944h-7.05e-4s-1.295 1.7544-2.0443 2.7418c0.23072 0.12559 0.45614 0.24236 0.6664 0.34749 0.37253-1.0273 0.82868-2.0606 1.3787-3.0893" fill="#1c8c9e"/>
  <path d="m-90.481 50.118c0.4706-0.44132 0.96449-0.877 1.4845-1.3056-1.4609-0.79657-5.7983-2.8395-7.7336-1.1762-1.0022 0.86184-0.11254 2.0881 1.2308 3.1933 1.0799-0.18803 2.4402-0.38735 4.1441-0.59796 0.29528-0.03634 0.58561-0.07479 0.87418-0.1136" fill="#57c8cc"/>
  <path d="m-80.837 44.133c-1.3074-1.6058-4.4048-4.7565-7.2609-3.0932-2.4148 1.4065-0.59302 3.798 0.96908 5.2938 0.87454-0.2353 1.9886-0.52423 2.8056-0.73448 1.1952-0.64876 2.359-1.1299 3.4862-1.4661" fill="#57c8cc"/>
  <g fill="#1c8c9e">
   <path d="m-68.364 45.709c-3.2198 1.7861-11.789 6.0223-22.356 7.1289-0.48789 0.0508-0.98037 0.0956-1.4767 0.133-0.3295 0.02469-0.66075 0.04586-0.99378 0.06385-0.48895 0.60925-0.93945 1.2248-1.3526 1.8443 4.9015-0.36089 21.907-2.0518 27.519-8.3824-0.42369-0.26741-0.87066-0.53234-1.3402-0.78775"/>
   <path d="m-71.427 44.352c-2.2592 1.2478-7.9685 4.0555-17.546 5.5464-0.49248 0.07655-0.99483 0.14993-1.5074 0.21908-0.66252 0.62124-1.2785 1.2531-1.8468 1.8937 0.75353-0.05539 1.4982-0.12876 2.2324-0.21625 9.4978-1.1328 17.261-4.7773 20.688-6.6178-0.63959-0.30374-1.3134-0.5842-2.0207-0.82515"/>
   <path d="m-91.355 50.231c-1.7039 0.21061-3.0642 0.40993-4.1441 0.59796 0.55033 0.45297 1.1765 0.88582 1.7808 1.2644 0.30057 0.18874 0.59514 0.36371 0.87207 0.52105 0.16898-0.20144 0.34078-0.40287 0.51858-0.60325 0.56832-0.64064 1.1843-1.2725 1.8468-1.8937-0.28857 0.03881-0.57891 0.07726-0.87418 0.1136"/>
  </g>
  <path d="m-69.407 45.177c-3.4272 1.8404-11.19 5.485-20.688 6.6178-0.73413 0.08749-1.4788 0.16087-2.2324 0.21625-0.1778 0.20038-0.3496 0.40181-0.51858 0.60325-0.11677 0.1397-0.23142 0.27975-0.34431 0.42016 0.33302-0.01799 0.66428-0.03916 0.99378-0.06385 0.49636-0.0374 0.98884-0.0822 1.4767-0.133 10.566-1.1067 19.136-5.3428 22.356-7.1289-0.3362-0.18309-0.68404-0.36089-1.0428-0.53164" fill="#fff"/>
  <path d="m-85.767 46.455c0.48648-0.31432 0.96767-0.5969 1.4439-0.85584-0.81703 0.21026-1.9311 0.49918-2.8056 0.73448 0.2286 0.21837 0.45085 0.41769 0.6544 0.59231 0.23213-0.15804 0.46708-0.31538 0.70732-0.47096" fill="#1c8c9e"/>
  <path d="m-80.837 44.133c-1.1271 0.3362-2.2909 0.81739-3.4862 1.4661-0.47625 0.25894-0.95744 0.54151-1.4439 0.85584-0.24024 0.15558-0.47519 0.31291-0.70732 0.47096-0.393 0.26705-0.774 0.53763-1.1441 0.81139-0.47731 0.35313-0.93698 0.71155-1.378 1.0749-0.52 0.42862-1.0139 0.8643-1.4845 1.3056 0.51259-0.06914 1.0149-0.14252 1.5074-0.21908 9.5772-1.4908 15.287-4.2986 17.546-5.5464-2.7009-0.9204-5.8787-1.2711-9.4093-0.21943" fill="#f6a466"/>
  <g fill="#523844">
   <path d="m-61.371 66.584c-0.1658-0.06562-0.35278 0.01587-0.41839 0.18133l-2.6606 6.7384-5.5471-3.816-3.3546 4.7445-5.6981-4.1219-3.7003 3.641-3.4495-5.2737c1.7628-1.1656 2.8346-2.6815 2.8963-2.77 0.1016-0.1464 0.06562-0.34713-0.08043-0.44873-0.1457-0.10195-0.34678-0.06597-0.44838 0.08008-0.02011 0.02857-2.0091 2.8441-4.9474 3.629-0.1718 0.04586-0.27411 0.2226-0.22825 0.39441 0.03845 0.14429 0.16898 0.23954 0.3115 0.23954 0.02752 0 0.05539-0.0039 0.08325-0.01129 0.67416-0.17992 1.2982-0.45473 1.8634-0.77576l3.8908 5.9478 3.8728-3.8107 5.7845 4.1846 3.3634-4.7572 5.6903 3.9144 2.958-7.4919c0.06526-0.16545-0.01588-0.35278-0.18133-0.41804"/>
   <path d="m-77.3 62.772c0.22825 0 0.43991-0.04198 0.63112-0.12524 1.5318-0.66569 1.4386-3.4551-0.25012-7.4609-0.0695-0.16404-0.25894-0.2413-0.42228-0.1718-0.1644 0.06914-0.24095 0.25823-0.1718 0.42192 1.6919 4.0139 1.5138 6.217 0.58738 6.6199-0.99519 0.4318-3.332-1.1-5.1262-5.1058-0.07303-0.16192-0.26388-0.2353-0.42616-0.16192-0.16263 0.07267-0.23495 0.26317-0.16228 0.4258 1.6944 3.7828 3.859 5.558 5.3404 5.558"/>
   <path d="m-69.023 61.348c0.22789 0 0.43956-0.04198 0.63077-0.12524 1.5321-0.66569 1.4386-3.4551-0.25012-7.4609-0.06915-0.16404-0.25859-0.24095-0.42228-0.1718-0.16404 0.06914-0.24095 0.25788-0.17145 0.42228 1.6916 4.0136 1.5138 6.2163 0.58702 6.6192-0.99589 0.43321-3.3316-1.0996-5.1262-5.1054-0.07303-0.16228-0.26388-0.23495-0.4258-0.16228-0.16263 0.07267-0.2353 0.26352-0.16263 0.42616 1.6947 3.7828 3.859 5.558 5.3407 5.558"/>
  </g>
  <path d="m-56.378 58.854c0.49107 0.98037 0.58949 1.9251 0.21978 2.11-0.36936 0.18486-1.0668-0.45967-1.5575-1.44-0.49107-0.98002-0.58949-1.9248-0.21978-2.1096 0.36936-0.18521 1.0668 0.45967 1.5575 1.4397" fill="#e1464e"/>
  <path d="m-52.225 56.609c0.49107 0.98037 0.58949 1.9251 0.22013 2.11-0.36936 0.18521-1.0672-0.45967-1.5579-1.44-0.49071-0.98002-0.58914-1.9248-0.21978-2.1096 0.36936-0.18521 1.0672 0.45967 1.5575 1.4397" fill="#e1464e"/>
  <path d="m-84.183 98.792c0.07267-0.21096 0.14958-0.42051 0.23036-0.62689 4.5194 0.387 13.82 0.89464 20.737-0.64135 0.12912 0.19015 0.2547 0.38206 0.37747 0.57538-7.1205 1.6372-16.808 1.088-21.345 0.69286" fill="#57c8cc"/>
  <path d="m-59.753 104.47c-1.2781 0.42228-3.1492 0.93804-5.612 1.354-2.3594 0.3997-5.5167 0.73978-9.4089 0.73978-3.1605 0-6.8093-0.22402-10.913-0.82339 0.02399-0.21131 0.05009-0.42545 0.07585-0.6417 13.29 1.9487 21.956-0.042 25.63-1.2442 0.07937 0.20955 0.15522 0.41416 0.22754 0.6156" fill="#57c8cc"/>
 </g>
</svg>
