<?xml version="1.0" encoding="UTF-8"?>
<!-- Created with Inkscape (http://www.inkscape.org/) -->
<svg width="89.91mm" height="97.111mm" version="1.1" viewBox="0 0 89.91 97.111" xmlns="http://www.w3.org/2000/svg">
 <g transform="translate(273.96 66.92)">
  <path d="m-214.86 22.472c-5.6473 1.3634-11.865 1.3378-17.619-0.0082-0.2787-0.0642-0.55774-0.13229-0.83503-0.20327h-2e-3c-1.2245-0.3157-2.4239-0.69272-3.5906-1.1296-1.1928-0.44482-2.3516-0.95388-3.4618-1.5247-2.9027-1.4909-5.4846-3.4022-7.5572-5.7231-0.36583-0.40915-0.71578-0.83153-1.046-1.2668-0.14358-0.18697-0.28364-0.37536-0.41769-0.56727-0.37042-0.51717-0.71685-1.0509-1.0361-1.602-0.39017-0.67028-0.74471-1.3635-1.0555-2.0821-0.46602-1.0767-0.84314-2.1823-1.1412-3.3073-0.73801-2.7817-0.9913-5.6875-0.9024-8.6032 5e-3 -0.15487 0.0113-0.30939 0.0176-0.46426 8e-3 -0.2159 0.0194-0.4318 0.0339-0.6477 0.27235-4.5371 1.3346-9.0576 2.6624-13.123 1.7261-2.6557 3.9582-4.9689 6.2308-4.3935 4.8253 1.222 4.458 8.3682 4.1532 12.887-0.0515 0.76271-0.0402 1.6796 0.0727 2.6949 0.0272 0.23036 0.0579 0.46567 0.0949 0.70591 0.27728 1.7921 0.877 3.8262 1.9985 5.8152 0.23883 0.42227 0.50129 0.84455 0.7881 1.2605-0.25118 0.13652-0.51223 0.26106-0.78634 0.36583-0.20638 0.077258-0.40287 0.15593-0.58985 0.23671-0.34007-0.83644-1.162-1.428-2.1209-1.428-1.2654 0-2.2902 1.0252-2.2902 2.2902 0 1.0283 0.67839 1.8986 1.6115 2.1869 0.0727 0.35631 0.26776 0.70767 0.58032 1.0495 0.16122 0.17709 0.42545 0.32068 0.76729 0.42862 0.0145 0.57538 0.24165 1.0957 0.60431 1.4891 0.15487 0.1711 0.3369 0.31785 0.53799 0.43215 0.33725 0.1965 0.72707 0.30762 1.1444 0.30762 1.2636 0 2.2902-1.0266 2.2902-2.2916v-0.00353c0.24165-0.052917 0.48507-0.11254 0.72849-0.18168 0.60748-0.16933 1.2121-0.38382 1.7907-0.64805 0.47201 0.32561 0.97366 0.63641 1.505 0.93486 1.5441 0.85901 3.3429 1.5889 5.4412 2.1287 0.43039 0.11148 0.86078 0.21308 1.2862 0.30515 0.21272 0.046214 0.42404 0.091369 0.635 0.13335 0.93168 0.18732 1.8521 0.33232 2.7591 0.44168 0.41452 0.050095 0.82691 0.091722 1.2365 0.12594-0.14676 1.1765-0.19861 2.5269-0.0356 3.9388 0.34184 2.9636 1.6326 6.2001 4.9914 8.6741 0.17075 0.12732 0.34643 0.24846 0.52529 0.36587" fill="#feae3a"/>
  <path d="m-184.91 16.976c-1.8323-0.67204-6.7183 0.73272-9.2833-0.06131-0.81915-0.25368-2.2373-0.6259-3.7634-1.2679-0.90805-0.38174-1.8546-0.85937-2.7365-1.464-1.7939-1.2302-3.3186-2.988-3.708-5.5403-0.0713-0.46567-0.10513-0.95709-0.0949-1.4771 5e-3 -0.24553 0.0183-0.49706 0.0423-0.7553 0.0868-0.91758-7.1e-4 -1.6796-0.2212-2.3121 3.6e-4 -3.528e-4 1e-3 -0.00282 1e-3 -0.00282s0.69073 1.4492 1.252 2.5986c1.9988-0.92957 3.5856-1.9748 4.6478-2.9711 2.6959-2.5273 4.6651-6.9427 5.648-9.5 0.0342-4.9244-1.1187-9.0801-2.358-11.55-0.30128-0.59972-1.1973-0.43744-1.2764 0.22966-0.23883 2.0133-0.92816 5.1908-2.9034 7.9269-0.17851 0.2473-0.36866 0.49036-0.56868 0.72919-0.58985 0.70414-1.2753 1.3674-2.074 1.9583-0.45156 0.33373-0.9398 0.64382-1.4658 0.92639-1.0096 0.54187-2.1615 0.9779-3.4759 1.2718-0.17075 0.038453-0.34502 0.073731-0.52141 0.10689-0.63394 0.11959-1.3039 0.20779-2.013 0.25823-0.79481 0.056797-1.6397 0.067028-2.534 0.026811-0.98143-0.044097-2.0228-0.14817-3.1309-0.3235-0.54187-0.086078-1.0672-0.18133-1.5801-0.28399-0.28292-0.056444-0.56162-0.11571-0.83643-0.17745-0.96732-0.21661-1.8814-0.46426-2.7453-0.74013-0.71332-0.22754-1.3935-0.47378-2.0394-0.73836-1.9156-0.78528-3.5391-1.7276-4.9078-2.7922-0.31927-0.24836-0.62477-0.50306-0.91652-0.76447-0.89112-0.79728-1.658-1.6528-2.3118-2.5538-0.45438-0.62618-0.85549-1.2739-1.2054-1.9399-0.56692-1.0781-1.003-2.2034-1.3268-3.3567-0.16898-0.60219-0.30621-1.2125-0.41663-1.8277-0.15311-0.85408-0.25259-1.7177-0.30515-2.5848-0.0596-0.98848-0.0593-1.9808-7e-3 -2.9679 0.0614-1.1772 0.19473-2.3463 0.38241-3.4897-0.71614-0.242-1.4753-0.63041-2.092-0.97296 0.79269-0.04621 1.5699-0.15134 2.3276-0.31256 0.84419-0.17956 1.6644-0.42792 2.4536-0.73907 3.405-1.3416 6.2389-3.8477 7.9982-7.0249 0.22296-0.40287 0.42898-0.81598 0.6163-1.2393 0.35314-0.79728 0.641-1.6291 0.85761-2.4892 0.15275-0.60642 0.26952-1.2273 0.34854-1.8595 0.0487-0.38982 0.0822-0.78387 0.1016-1.1815 3e-3 -0.06562 7e-3 -0.13123 9e-3 -0.19685 0.0109-0.30692 0.01-0.61172 3e-3 -0.91475-0.0219-1.0051-0.139-1.9865-0.3422-2.9362-0.0773-0.36089-0.1651-0.7179-0.2667-1.0689-0.18485-0.63782-0.40816-1.2598-0.66957-1.8616-0.1778-0.40958-0.37218-0.81033-0.58349-1.2009-0.26776-0.49636-0.56339-0.97437-0.88089-1.4365-0.35066-0.50906-0.73025-0.99589-1.1374-1.4587-0.59901-0.68227-1.2559-1.3113-1.9643-1.88-0.3048-0.24518-0.61913-0.47942-0.94227-0.70168-0.45544-0.31221-0.92746-0.60219-1.416-0.86642-0.76094-0.41134-1.56-0.76059-2.3904-1.0428-0.49213-0.16686-0.99378-0.31327-1.5064-0.43145-0.97119-0.22366-1.9756-0.3563-3.006-0.39052-0.15911-0.0053-0.31856-0.0081-0.47908-0.0085-0.0145 0-0.0286-7.06e-4 -0.043-7.06e-4 -0.78105 0-1.5483 0.05856-2.299 0.16898-0.7747 0.1143-1.5304 0.28751-2.2641 0.51082-2.2507 0.68615-4.2877 1.8634-5.9803 3.4103-1.1091 1.0139-2.0719 2.1848-2.8518 3.4777-0.91722 1.5205-2.1908 2.8025-3.7208 3.7042-2.2768 1.3416-4.8824 2.1033-7.6507 2.1033-3.1461 0-6.0808-0.98249-8.5626-2.6832-1.6665-1.1416-3.9508 0.0025-3.9585 2.0225v0.04974c0 9.7476 10.663 17.65 23.819 17.65 0.47943 0 0.95532-0.01058 1.428-0.0314 0.43321-0.01905 0.86642-0.02928 1.2996-0.03422 0.64382-0.0071 1.2873 0.0018 1.9304 0.02469 1.1829 0.04269 2.3636 0.13547 3.5391 0.27764l-4.5025 1.6055c-1.3557 2.7351-3.0014 6.4318-4.3677 10.613 1.7254-2.6568 3.9571-4.9682 6.2301-4.3928 4.8249 1.2213 4.4584 8.3672 4.1529 12.887-0.15029 2.2267 0.23389 5.7877 2.166 9.2146 1.3522-0.61807 3.7881-1.8055 4.4249-2.5908-0.65193 1.1571-1.8546 2.8783-3.6357 3.852-0.25118 0.13688-0.51259 0.26106-0.78705 0.36512h-7.1e-4c-0.20637 0.078317-0.40216 0.15734-0.58914 0.23812-2.1509 0.92639-3.0134 2.0024-2.7996 3.0494 0.0727 0.35525 0.26776 0.70697 0.57997 1.0485 0.16192 0.17709 0.42545 0.32068 0.76658 0.42898-3.5e-4 -0.021167-3e-3 -0.041275-3e-3 -0.062442 0-1.2651 1.0255-2.2902 2.2906-2.2902 1.2633 0 2.2878 1.0231 2.2899 2.286 0.24272-0.053269 0.48649-0.11324 0.72955-0.18098 0.60748-0.16969 1.2125-0.38488 1.79-0.64876 1.5261-0.69815 2.8624-1.736 3.5578-3.1665 0.12488-0.25682 0.22154-0.50482 0.29457-0.74436-0.18415 0.63041-1.0767 3.5186-2.3463 4.8447 1.543 0.86042 3.3429 1.5896 5.4412 2.1294 1.5886 0.40887 3.1521 0.69638 4.6792 0.88018 0.93698-1.6461 2.0017-3.4558 2.2359-3.853-0.18168 0.36477-0.73802 1.8979-0.99872 3.9797-0.14711 1.1762-0.19896 2.5266-0.036 3.9391 0.34219 2.9627 1.6326 6.199 4.9908 8.6738 0.17145 0.12622 0.34783 0.24723 0.52634 0.36587 0.79834 0.53015 1.664 0.98421 2.5774 1.3718 8.5552 3.6304 21.251 1.4549 21.143 2.0486-0.12206 0.67165-2.1985 1.4052-1.5878 2.7485 0.61101 1.3437 5.7411 1.0993 6.9624 0 1.2213-1.0993 2.6875-10.993 0.85513-11.665" fill="#7fa6a5"/>
  <path d="m-220.34 9.4936c0.2607-2.0817 0.81704-3.6149 0.99872-3.9797-0.23425 0.39723-1.2989 2.207-2.2359 3.853 0.41522 0.050094 0.82762 0.091722 1.2372 0.12665" fill="#53807e"/>
  <path d="m-204.46 6.4103c-0.024 0.25823-0.0377 0.50976-0.0423 0.7553 0.37007-0.15311 0.72814-0.3108 1.0746-0.47166-0.56127-1.1494-1.252-2.5986-1.252-2.5986s-1e-3 0.00247-1e-3 0.00282c0.22049 0.63253 0.30798 1.3945 0.2212 2.3121" fill="#53807e"/>
  <path d="m-247.93 13.883c-0.9465-1.0608-1.7861-2.2062-2.5005-3.436-1.0806 0.20391-2.5686 0.55139-4.2072 1.1084-5.3781 1.8284-12.361 5.9126-11.75 14.582 0 0-2.6264 2.26-2.0158 3.2978 0.61102 1.0386 14.902 0.97758 15.147 0 0.17498-0.69924 0.97684-6.2829 6.3941-8.715 0.76094-0.34149 1.6136-0.62054 2.5675-0.81499-1.9752-1.7508-3.0829-4.344-3.6347-6.0219" fill="#7fa6a5"/>
  <path d="m-240.37 19.607c-2.902-1.4905-5.4853-3.4029-7.5572-5.7235 0.55175 1.6779 1.6595 4.2711 3.6347 6.0219 1.1525-0.23566 2.4525-0.34879 3.9225-0.29834" fill="#53807e"/>
  <path d="m-193.13-5.7775c-0.0321 4.627-1.112 9.931-4.1533 15.158-0.15486 0.26423-0.31291 0.52705-0.47871 0.79128-0.8382 1.349-1.8115 2.6917-2.9348 4.0114-1.7939-1.2298-3.3186-2.988-3.7088-5.5407-0.0709-0.46602-0.10442-0.95744-0.0949-1.4767 0.37077-0.15275 0.72848-0.31115 1.0749-0.47202 1.2185-0.56727 2.2835-1.1765 3.1718-1.7939 0.1852-0.12735 0.36265-0.25435 0.53022-0.38382 0.35137-0.26564 0.66569-0.52987 0.94615-0.79269 2.6963-2.5273 4.6658-6.943 5.6473-9.5007" fill="#feae3a"/>
  <path d="m-233.84-2.6621c-0.63676 0.78528-3.0727 1.9727-4.4249 2.5908 0.23883 0.42333 0.5013 0.84455 0.78917 1.2612 1.7812-0.97367 2.9838-2.6949 3.6357-3.852" fill="#53807e"/>
  <path d="m-229.65 2.257c-0.69533 1.4305-2.0316 2.4684-3.5578 3.1665 0.47237 0.32526 0.97402 0.63712 1.506 0.9338 1.2696-1.3261 2.1622-4.2143 2.3463-4.8447-0.073 0.23954-0.16969 0.48754-0.29457 0.74436" fill="#53807e"/>
  <g fill="#fe554c">
   <path d="m-235.73 6.2533c-2e-3 -1.2629-1.0266-2.286-2.2899-2.286-1.2651 0-2.2906 1.0252-2.2906 2.2902 0 0.021167 3e-3 0.041275 3e-3 0.062442 0.0335 1.2358 1.0435 2.2278 2.2874 2.2278 1.2647 0 2.2902-1.0252 2.2902-2.2902 0-0.00141-3.6e-4 -0.00282-3.6e-4 -0.00423"/>
   <path d="m-238.85 1.7931c-0.34043-0.83749-1.1613-1.4287-2.1212-1.4287-1.2651 0-2.2902 1.0252-2.2902 2.2899 0 1.0291 0.67804 1.899 1.6118 2.1883-0.21378-1.047 0.64876-2.123 2.7996-3.0494"/>
   <path d="m-255.87 6.2533c-2e-3 -1.2629-1.0269-2.286-2.2902-2.286-1.2651 0-2.2902 1.0252-2.2902 2.2902 0 0.021167 2e-3 0.041275 3e-3 0.062442 0.0332 1.2358 1.0432 2.2278 2.2871 2.2278 1.2647 0 2.2902-1.0252 2.2902-2.2902v-0.00423"/>
   <path d="m-258.99 1.7931c-0.34078-0.83749-1.1614-1.4287-2.1216-1.4287-1.2651 0-2.2902 1.0252-2.2902 2.2899 0 1.0291 0.67839 1.899 1.6122 2.1883-0.21378-1.047 0.64841-2.123 2.7996-3.0494"/>
  </g>
  <path d="m-253.53-3.5451c-0.22225 0.48366-0.72672 1.476-1.5236 2.4867-0.81068 1.028-1.9233 2.0729-3.3517 2.6134-0.20637 0.077964-0.40287 0.15734-0.58949 0.23812-2.1512 0.92639-3.0134 2.0024-2.7996 3.0494 0.0723 0.35525 0.26741 0.70697 0.57997 1.0485 0.16157 0.17709 0.42545 0.32068 0.76659 0.42898-7.1e-4 -0.021167-3e-3 -0.041275-3e-3 -0.062442 0-1.2651 1.0252-2.2902 2.2902-2.2902 1.2633 0 2.2878 1.0231 2.2902 2.286 0.0303-0.0067 0.061-0.013406 0.0914-0.020108 1.0774-0.24448 2.1731-0.63077 3.1507-1.1751-0.73766-2.7817-0.99096-5.6882-0.90135-8.6032" fill="#7fa6a5"/>
  <path d="m-245.48-30.276c-0.29633 0.56127-0.62054 1.191-0.96344 1.8831l4.5025-1.6055c-1.1755-0.14217-2.3562-0.23495-3.5391-0.27764" fill="#53807e"/>
  <path d="m-236.68-61.517c-0.16016-2.2684-0.58278-5.377-1.6937-5.4031-1.3166-0.03069-2.4024 4.6337-2.8607 6.9508 0.73378-0.22331 1.4894-0.39652 2.2641-0.51082 0.74401-0.34819 1.6559-0.768 2.2902-1.0368" fill="#feae3a"/>
  <path d="m-236.67-60.649c0.0145 0 0.0286 7.06e-4 0.043 7.06e-4 -0.013-0.26741-0.03-0.56021-0.0519-0.86854-0.63429 0.26882-1.5462 0.68862-2.2902 1.0368 0.75071-0.11042 1.518-0.16898 2.299-0.16898" fill="#fe584c"/>
  <path d="m-227.49-58.393c1.336-1.948 3.2875-5.492 1.0439-6.9384-2.2507-1.451-4.2425 2.9552-5.1929 5.5139 0.83043 0.28222 1.6295 0.63147 2.3904 1.0428 0.59055 0.13088 1.2382 0.2727 1.7586 0.38171" fill="#feae3a"/>
  <path d="m-227.83-57.909c0.10689-0.14676 0.22225-0.30939 0.34254-0.48472-0.52034-0.10901-1.168-0.25082-1.7586-0.38171 0.48859 0.26423 0.96061 0.55421 1.416 0.86642" fill="#fe584c"/>
  <path d="m-222.27-52.887c1.8468-1.3705 5.2698-4.2845 3.32-5.8078-2.0567-1.6069-4.8482 1.7568-5.9715 3.368 0.40711 0.46284 0.7867 0.94968 1.1374 1.4587 0.44662 0.28434 1.0206 0.6537 1.5141 0.98108" fill="#feae3a"/>
  <path d="m-222.9-52.432c0.17321-0.12065 0.38946-0.27446 0.63323-0.45544-0.49353-0.32738-1.0675-0.69674-1.5141-0.98108 0.3175 0.46214 0.61313 0.94015 0.88089 1.4365" fill="#fe584c"/>
  <path d="m-221.38-48.301 1.0481 2.7284c1.8002-0.55986 4.0644-1.5085 3.8657-2.6991-0.25153-1.5099-3.6107-1.3187-5.1837-1.0975 0.1016 0.35101 0.18944 0.70802 0.2667 1.0689l3e-3 -7.06e-4" fill="#feae3a"/>
  <path d="m-221.39-48.3c0.2032 0.94968 0.32032 1.9311 0.3422 2.9362 0.2226-0.06174 0.46143-0.13123 0.70908-0.20849l-1.0481-2.7284-3e-3 7.06e-4" fill="#fe584c"/>
  <path d="m-221.32-38.906c1.5582-0.33408 3.4668-1.0125 3.5888-2.1586 0.15381-1.4478-2.1851-1.9163-3.4265-2.0059-0.079 0.63218-0.19579 1.2531-0.34854 1.8595 0.0497 0.63394 0.12629 1.5917 0.18626 2.305" fill="#feae3a"/>
  <path d="m-222.36-38.722c0.30692-0.04198 0.66499-0.10301 1.0439-0.18415-0.06-0.71332-0.13652-1.6711-0.18626-2.305-0.21661 0.86007-0.50447 1.6919-0.85761 2.4892" fill="#fe584c"/>
  <path d="m-235.76-29.407c0.61665 0.34255 1.3758 0.73096 2.092 0.97296 0.0709-0.4325 0.14993-0.86113 0.23566-1.2855-0.75777 0.16122-1.5349 0.26635-2.3276 0.31256" fill="#53807e"/>
  <path d="m-234.04-21.976c0.46214 0.72143 0.91863 1.3307 1.2675 1.753 1.4781-1.324 3.2593-3.1588 2.9919-4.1074-0.34714-1.2291-3.0589-0.84808-4.2668-0.61348-0.0519 0.98707-0.0522 1.9794 7e-3 2.9679" fill="#feae3a"/>
  <path d="m-233.74-19.391c0.28399-0.23707 0.61419-0.52 0.96238-0.83185-0.3489-0.42228-0.80539-1.0315-1.2675-1.753 0.0526 0.86713 0.15204 1.7307 0.30515 2.5848" fill="#fe584c"/>
  <path d="m-227.71-10.952c1.1197-1.9216 2.3043-4.5357 1.2633-5.4797-1.4817-1.3437-4.4492 1.1402-5.5495 2.2246 0.34995 0.66604 0.75106 1.3137 1.2054 1.9399 1.0068 0.43956 2.2634 0.98284 3.0808 1.3152" fill="#feae3a"/>
  <path d="m-228.48-9.7131c0.23107-0.35031 0.49777-0.77399 0.76906-1.2386-0.81739-0.33232-2.074-0.8756-3.0808-1.3152 0.6537 0.90099 1.4206 1.7565 2.3118 2.5538" fill="#fe584c"/>
  <path d="m-217.85-5.418c-1e-3 -1.6334-0.20885-3.973-1.3829-4.0915-1.2644-0.12841-2.6762 2.0422-3.4145 3.3532 0.64594 0.26458 1.3261 0.51082 2.0394 0.73836h2.758" fill="#feae3a"/>
  <path d="m-217.87-4.6779c8e-3 -0.21837 0.013-0.46919 0.0127-0.74013h-2.758c0.86395 0.27587 1.778 0.52352 2.7453 0.74013" fill="#fe584c"/>
  <path d="m-209.79-3.9197c0.63747-0.35631 1.3166-0.73519 1.7981-0.99836-0.44626-1.354-1.3402-3.1933-2.5975-2.8751-1.4873 0.37677-1.7364 2.769-1.7346 3.9003 0.89429 0.040217 1.7392 0.029986 2.534-0.026811" fill="#feae3a"/>
  <path d="m-207.77-4.178c-0.0526-0.21237-0.12453-0.46567-0.21484-0.74013-0.48154 0.26317-1.1606 0.64206-1.7981 0.99836 0.70908-0.050447 1.379-0.13864 2.013-0.25823" fill="#fe584c"/>
  <path d="m-200.87-9.0759c-0.92886-0.85266-2.2271-1.7254-3.1164-1.106-1.2231 0.85302-0.28469 3.5225 0.21344 4.6253 0.52599-0.28258 1.0142-0.59267 1.4658-0.92639 0.63464-0.98637 1.1451-2.0235 1.4372-2.5929" fill="#feae3a"/>
  <path d="m-200.23-8.4413c-0.1778-0.19262-0.39476-0.41275-0.63677-0.63465-0.2921 0.56938-0.80257 1.6066-1.4372 2.5929 0.79869-0.5909 1.4841-1.2541 2.074-1.9583" fill="#fe584c"/>
  <path d="m-245.34-35.07c5e-3 -0.51929 0.14217-1.0527 0.40781-1.5684 0.4886-0.94756 1.349-1.7216 2.4239-2.1823 0.65616-0.27869 1.3395-0.42086 2.0066-0.42086 0.42721 0 0.84807 0.05821 1.2474 0.17568 0.2226 0.06632 0.43356 0.14852 0.63041 0.24836-1.1363 1.7713-3.6184 3.1619-6.7162 3.7476zm1.5265-7.0065c0.18062 0.91405-0.0628 1.6715-0.41099 1.7473-0.16439 0.03704-0.37394-0.07585-0.57361-0.30798-0.23072-0.26423-0.4191-0.65758-0.52388-1.0894 0.51576-0.0949 1.0202-0.21096 1.5085-0.34996zm-5.2927 2.5418c-0.6043 0-1.1137-0.80398-1.1137-1.7551 0-0.07056 3e-3 -0.14041 0.01-0.20779 0.52564 0.04516 1.0573 0.06738 1.5924 0.06738 0.20637 0 0.4124-0.0032 0.61877-0.0095 4e-3 0.04974 5e-3 0.09984 5e-3 0.14993 0 0.95109-0.50906 1.7551-1.112 1.7551zm-4.0308-0.36759c-0.51258 0-1.083-0.83291-1.083-2.0274 0-0.1337 6e-3 -0.26423 0.0208-0.38806 0.67875 0.23178 1.3959 0.42051 2.1389 0.56374-0.0515 1.0993-0.59161 1.8517-1.0767 1.8517zm-2.4836-2.9492c-0.15311 0.42721-0.40781 0.80257-0.69956 1.0301-0.14675 0.1143-0.43356 0.28998-0.70908 0.19156-0.27411-0.09666-0.38382-0.41734-0.42545-0.59796-0.0677-0.30445-0.0501-0.67204 0.0497-1.0347 0.13547-0.02399 0.27411-0.03704 0.41099-0.03704 0.36935 0 0.73836 0.08714 1.0798 0.26106 0.10019 0.05151 0.2032 0.1016 0.30656 0.14993-5e-3 0.01305-8e-3 0.02434-0.0131 0.03704zm18.313 1.6344c-0.0501-0.98002-0.57221-1.8263-1.4312-2.3223-0.88618-0.51259-1.9614-0.54046-2.8751-0.07444-0.54786 0.28046-1.1395 0.52388-1.7632 0.72849-0.2032 0.0695-0.40922 0.13229-0.61877 0.19191-0.45932 0.13053-0.93487 0.24024-1.4217 0.32879-0.21096 0.04022-0.42545 0.07585-0.64135 0.10478-0.45755 0.06773-0.92357 0.11783-1.3942 0.14676-0.22084 0.01623-0.44485 0.02575-0.6671 0.0321-0.16616 0.0046-0.33196 0.0063-0.49812 0.0063-0.49001 0-0.97825-0.0194-1.4584-0.05785-0.2226-0.01976-0.44344-0.04198-0.66075-0.0695-0.23248-0.02575-0.46284-0.05785-0.69003-0.0949-0.22402-0.03528-0.44485-0.07585-0.66217-0.121-0.68685-0.13688-1.3476-0.31574-1.9745-0.53516-0.20638-0.07055-0.40781-0.1464-0.60607-0.22895-0.0614-0.02222-0.12383-0.04798-0.18521-0.07549-0.21096-0.08855-0.41734-0.18203-0.61736-0.28363-0.0501-0.02293-0.0998-0.04692-0.14993-0.07267-0.47202-0.24024-0.98637-0.3496-1.4954-0.32561-0.26599 0.0081-0.53058 0.05468-0.78669 0.13899-0.20461 0.06421-0.40288 0.15134-0.59302 0.26106-0.85902 0.496-1.3811 1.3423-1.4298 2.3223-5e-3 0.07232-6e-3 0.14676-6e-3 0.21908 0 3.7892 5.0768 6.8721 11.316 6.8721 0.92992 0 1.8341-0.06773 2.6994-0.1965 0.21449-0.0321 0.42722-0.0695 0.63818-0.10795 3.2879-0.61912 5.9408-2.1241 7.1946-4.0552 0.121-0.18521 0.22754-0.37394 0.32103-0.56586 0.30127-0.61701 0.46249-1.2714 0.46249-1.9466 0-0.07232-2e-3 -0.14499-5e-3 -0.21908" fill="#523844"/>
  <path d="m-238.62-38.817c-1.1363 1.7713-3.6184 3.1619-6.7162 3.7476 5e-3 -0.51929 0.14217-1.0527 0.40781-1.5684 0.4886-0.94756 1.349-1.7216 2.4239-2.1823 0.65616-0.27869 1.3395-0.42086 2.0066-0.42086 0.42721 0 0.84807 0.05821 1.2474 0.17568 0.2226 0.06632 0.43356 0.14852 0.63041 0.24836" fill="#fe584c"/>
  <g fill="#fff">
   <path d="m-244.22-40.329c-0.16439 0.03704-0.37394-0.07585-0.57361-0.30798-0.23072-0.26423-0.4191-0.65758-0.52388-1.0894 0.51576-0.0949 1.0202-0.21096 1.5085-0.34996 0.18062 0.91405-0.0628 1.6715-0.41099 1.7473"/>
   <path d="m-247.99-41.289c0 0.95109-0.50906 1.7551-1.112 1.7551-0.6043 0-1.1137-0.80398-1.1137-1.7551 0-0.07056 3e-3 -0.14041 0.01-0.20779 0.52564 0.04516 1.0573 0.06738 1.5924 0.06738 0.20637 0 0.4124-0.0032 0.61877-0.0095 4e-3 0.04974 5e-3 0.09984 5e-3 0.14993"/>
   <path d="m-252.06-41.754c-0.0515 1.0993-0.59161 1.8517-1.0767 1.8517-0.51258 0-1.083-0.83291-1.083-2.0274 0-0.1337 6e-3 -0.26423 0.0208-0.38806 0.67875 0.23178 1.3959 0.42051 2.1389 0.56374"/>
   <path d="m-255.6-42.888c-5e-3 0.01305-8e-3 0.02434-0.0131 0.03704-0.15311 0.42721-0.40781 0.80257-0.69956 1.0301-0.14675 0.1143-0.43356 0.28998-0.70908 0.19156-0.27411-0.09666-0.38382-0.41734-0.42545-0.59796-0.0677-0.30445-0.0501-0.67204 0.0497-1.0347 0.13547-0.02399 0.27411-0.03704 0.41099-0.03704 0.36935 0 0.73836 0.08714 1.0798 0.26106 0.10019 0.05151 0.2032 0.1016 0.30656 0.14993"/>
  </g>
  <path d="m-269.02-44.418c-0.34502 0.65017-0.93063 1.0156-1.3081 0.81562s-0.40393-0.8897-0.0589-1.5406c0.34466-0.65088 0.93062-1.016 1.3077-0.81598 0.37783 0.20038 0.40393 0.89006 0.0593 1.5409" fill="#53807e"/>
  <path d="m-265.7-43.185c-0.34467 0.65017-0.93063 1.0156-1.3081 0.81562s-0.40393-0.88971-0.0589-1.5406c0.34502-0.65088 0.93063-1.016 1.3081-0.81598 0.37748 0.20038 0.40393 0.89006 0.0589 1.5409" fill="#53807e"/>
  <path d="m-240.38-50.435c-1.0425 1.9664-3.1306 2.9118-4.7272 2.1692-0.0406-0.0194-0.0825-0.03986-0.12382-0.06209-1.609-0.85266-2.0468-3.1789-0.97719-5.1968 0.16686-0.31468 0.35948-0.6029 0.57361-0.86148 1.1585-1.4051 2.9168-1.9653 4.2753-1.2453 1.6104 0.85372 2.0482 3.1799 0.97931 5.1964" fill="#fff"/>
  <path d="m-243.39-50.05c-0.4318 0.81421-1.0513 1.4326-1.7124 1.7844-0.0406-0.0194-0.0825-0.03986-0.12382-0.06209-1.609-0.85266-2.0468-3.1789-0.97719-5.1968 0.16686-0.31468 0.35948-0.6029 0.57361-0.86148 0.57538-0.1912 1.1578-0.1778 1.6577 0.08714 1.2217 0.6477 1.4827 2.5499 0.58209 4.2489" fill="#94901a"/>
  <path d="m-232.99-48.657c-1.0425 1.9664-3.1306 2.9118-4.7269 2.1692-0.0409-0.01976-0.0829-0.04022-0.12418-0.06174-1.609-0.85302-2.0468-3.1796-0.9772-5.1971 0.16687-0.31468 0.35984-0.6029 0.57362-0.86184 1.1589-1.4051 2.9168-1.9653 4.2753-1.245 1.6104 0.85372 2.0482 3.1799 0.97932 5.1964" fill="#fff"/>
  <path d="m-236-48.273c-0.4318 0.81421-1.0513 1.4326-1.712 1.7847-0.0409-0.01976-0.0829-0.04022-0.12418-0.06174-1.609-0.85302-2.0468-3.1796-0.9772-5.1971 0.16687-0.31468 0.35984-0.6029 0.57362-0.86184 0.57538-0.19085 1.1575-0.1778 1.6574 0.08714 1.222 0.6477 1.4831 2.5499 0.58244 4.2489" fill="#94901a"/>
  <g fill="#fe584c">
   <path d="m-240.26-5.8858c-0.77188 0.45297-1.784 0.94615-3.0364 1.3607-1.494 0.49283-3.4893 0.91334-5.9517 0.91334-1.2926 0-2.7143-0.11606-4.2598-0.39793 8e-3 -0.2159 0.0194-0.4318 0.0339-0.6477 6.5708 1.2213 10.976-0.62724 13.119-1.9343 0.0272 0.23036 0.0579 0.46567 0.0949 0.70591"/>
   <path d="m-239.16 8.2409c-2.6092 1.7117-6.0128 3.4971-9.8132 4.3755-0.14358-0.18697-0.28364-0.37536-0.41769-0.56727 3.6297-0.79128 6.9561-2.4642 9.6929-4.2404 0.15487 0.1711 0.3369 0.31785 0.53799 0.43215"/>
   <path d="m-224.34 8.9256c-0.1644 1.0654-0.41734 2.2419-0.80434 3.4717-0.99906 3.1733-3.0653 7.143-7.3378 10.066-0.2787-0.0642-0.55774-0.13229-0.83503-0.20327 3.641-2.3078 6.1726-5.668 7.5509-10.034 0.38206-1.2121 0.63182-2.3788 0.79128-3.4343 0.21272 0.046214 0.42404 0.091369 0.635 0.13335"/>
   <path d="m-197.28 9.3803c-0.15486 0.26423-0.31291 0.52705-0.47871 0.79128-0.44309-2.087-1.5843-4.0033-2.4917-5.2719 0.1852-0.12735 0.36265-0.25435 0.53022-0.38382 0.85443 1.1867 1.9018 2.9192 2.4402 4.8645"/>
  </g>
 </g>
</svg>
