<?xml version="1.0" encoding="UTF-8"?>
<!-- Created with Inkscape (http://www.inkscape.org/) -->
<svg width="84.943mm" height="92.535mm" version="1.1" viewBox="0 0 84.943 92.535" xmlns="http://www.w3.org/2000/svg">
 <g transform="translate(-5.8235 -46.852)">
  <path d="m62.804 115.03c1.155-0.16863 2.2511-0.41063 3.2861-0.71049 8.5686-2.4818 13.022-8.8403 13.022-8.8403l-3.9963-5.3347c-0.15769 0.58385-0.29386 1.1328-0.40781 1.6425-0.14217 0.63817-0.70802 1.0724-1.3356 1.0724-0.09878 0-0.19897-0.0109-0.29916-0.0332-0.73836-0.16475-1.204-0.89676-1.0396-1.6351 0.21026-0.94333 0.49212-2.0077 0.83785-3.1687-3.2519 3.1277-6.52 4.5434-9.3553 5.1029-0.36654 0.0723-0.72602 0.13088-1.0767 0.17639-2.1407 0.27798-3.9762 0.0931-5.2857-0.13512 1.0689-0.64311 3.018-1.8069 4.2256-2.4723-0.56797-1.1635-1.2411-2.2691-2.0084-3.3045-1.8736 1.657-4.8613 4.0474-7.167 4.7001-7.05e-4 3.6e-4 -0.0018 7.1e-4 -0.0025 7.1e-4 0.74577-0.52352 1.4534-1.0964 2.1146-1.7216 1.4083-1.3321 2.727-2.806 3.9257-4.3773 0.4953-0.64946 0.96908-1.3159 1.4213-1.9953 1.162-1.747 2.1749-3.5825 2.9993-5.4554 3.4371-7.8073 3.6202-16.252-2.1188-21.519 0.54222 2.2768 1.1963 4.669 1.803 5.9588 0.13476 0.28575 0.09842 0.64064-0.09419 0.89535-0.68016 0.89994-2.5919 2.6134-6.7229 1.2922-0.29069-0.09313-0.48542-0.39758-0.4766-0.74577 0.03916-1.5868 0.31291-6.1225 2.0923-9.8397-2.5351-1.4623-4.9685-2.1572-7.2499-2.2719 0.44344 0.84138 0.877 1.5773 1.2615 2.0856 0.17392 0.23001 0.18803 0.54046 0.03316 0.78387-0.54539 0.85937-2.1943 2.5732-6.471 1.9449-0.30092-0.0441-0.53693-0.28258-0.57785-0.5842-0.08467-0.62477-0.20849-1.7826-0.20179-3.1821-2.8102 1.1656-5.2045 3.175-7.0291 5.4755-0.11924 0.15028-0.24941 0.28716-0.38559 0.41592-1.1878 1.1261-2.969 1.434-4.4905 0.73484-0.67381-0.30974-1.3892-0.7045-2.0849-1.2047-2.2899-1.6471-5.0849-2.3294-7.7855-1.9392 0.22754 0.39617 0.43356 0.71085 0.58949 0.9331 0.18344 0.26211 0.2279 0.59725 0.11924 0.89817-1.8105 5.0098-5.3809 6.5994-7.0757 7.0834-0.51964 0.14817-1.0587-0.15663-1.2111-0.67451-0.23566-0.79834-0.41381-1.5589-0.54398-2.2849-0.1905 0.3997-0.35948 0.81174-0.49953 1.2372-1.7357 5.2712-3.4131 14.293 1.6866 21.837 0.04022 0.05962 0.07973 0.11994 0.12136 0.17956 0.10195 0.14711 0.20708 0.29175 0.31362 0.43603 0.86924 1.1807 1.8785 2.261 2.9997 3.2378 0.84208 0.73378 1.7466 1.409 2.7033 2.0242 3.9469 2.5382 8.7704 4.0569 13.655 4.4524-0.0011 3.5e-4 -0.0021 3.5e-4 -0.0032 7e-4 -6.6298 1.3469-11.936-0.24518-14.664-1.4076-0.2921 1.18-0.4826 2.3985-0.56303 3.646-0.02822 0.44379-0.04445 0.89041-0.04445 1.3413 0 0.58808 0.02575 1.1702 0.07408 1.7462 0.13864 1.6559 0.47308 3.2576 0.98072 4.784 0.87207-1.5628 2.19-2.757 3.7514-3.5895 5.9002-3.1471 15.26-1.1476 17.059 5.5062 1.3589 5.0288 2.2726 9.2308 4.6919 12.301 2.147 2.7245 5.479 4.5586 11.361 5.2885 12.511 1.5529 18.026-13.42 18.026-13.42l-9.476-4.1698c-1.3476 1.8277-2.9609 2.9993-4.5208 3.7483-1.5296 1.7212-4.2753 4.3272-7.4722 5.158 1.7025-1.1698 3.2254-2.5703 4.5201-4.1547 0.73554-0.89958 1.397-1.8588 1.977-2.8688 0.70697-1.2312 1.2915-2.5375 1.7378-3.9042-3.1814-0.26776-7.4048-1.2217-7.4048-1.2217s0.0021-7e-4 0.0046-1e-3c2.8229 0.42122 5.4067 0.387 7.7463 0.0455" fill="#ff6e95"/>
  <path d="m67.966 60.516c0.8382-2.0553-0.13441-2.8102-2.8818-2.2902 0.60889-0.83644 1.1472-1.6394 1.597-2.389 0.3055-0.50835 0.56903-0.99166 0.78634-1.4439 2.0588-4.2827-0.08008-5.7623-11.411 1.0435-0.09137-3.1905-1.6782-3.5401-5.3132 0 3.6428-11.035-5.1304-13.742-11.91 5.9111-2.8571-2.6741-4.3473 2.8363-2.3086 7.9008 0.13617-0.12876 0.26635-0.26564 0.38559-0.41592 1.8246-2.3005 4.2189-4.3099 7.0291-5.4755 0.01129-2.3241 0.38241-5.3135 1.8898-7.6323 0.28152-0.43286 0.93733-0.36442 1.1328 0.11395 0.61489 1.506 1.8062 4.33 2.9333 6.4703 2.2814 0.11465 4.7149 0.80962 7.2499 2.2719 0.37641-0.78564 0.81809-1.5353 1.3409-2.2123 0.34925-0.45226 0.98742-0.28116 1.1028 0.28998 0.21484 1.0643 0.55421 2.6815 0.95462 4.3614 5.739 5.2666 5.5559 13.712 2.1188 21.519 7.2274 0.83467 9.9882-1.4616 6.2198-4.2414 9.7106-3.8104 9.1602-8.3132 1.9237-10.131 2.7256-1.4323 1.9202-2.3936 0-3.206 11.148-2.7626 13.65-11.193-2.8402-10.444" fill="#c93e64"/>
  <g fill="#f6cc84">
   <path d="m22.754 67.772c-0.15593-0.22225-0.36195-0.53693-0.58949-0.9331-0.75882-1.3222-1.7558-3.5666-1.9106-6.4251-0.02787-0.51788-0.59866-0.81492-1.0418-0.54539-2.1018 1.2792-6.5864 5.0038-5.1696 12.926 0.13018 0.72602 0.30833 1.4866 0.54398 2.2849 0.1524 0.51788 0.69144 0.82268 1.2111 0.67451 1.6947-0.48401 5.2652-2.0736 7.0757-7.0834 0.10866-0.30092 0.06421-0.63606-0.11924-0.89817"/>
   <path d="m51.158 64.394c-0.38453-0.50835-0.81809-1.2442-1.2615-2.0856-1.1271-2.1403-2.3185-4.9643-2.9333-6.4703-0.19544-0.47837-0.85125-0.5468-1.1328-0.11395-1.5074 2.3188-1.8785 5.3082-1.8898 7.6323-0.0067 1.3995 0.11712 2.5573 0.20179 3.1821 0.04092 0.30162 0.27693 0.5401 0.57785 0.5842 4.2767 0.6283 5.9256-1.0855 6.471-1.9449 0.15487-0.24342 0.14076-0.55386-0.03316-0.78387"/>
   <path d="m62.347 72.979c-0.60678-1.2898-1.2608-3.6819-1.803-5.9588-0.4004-1.6799-0.73978-3.2971-0.95462-4.3614-0.11536-0.57115-0.75353-0.74224-1.1028-0.28998-0.52282 0.67698-0.9645 1.4266-1.3409 2.2123-1.7794 3.7172-2.0532 8.2529-2.0923 9.8397-0.0088 0.34819 0.18591 0.65264 0.4766 0.74577 4.131 1.3212 6.0427-0.39229 6.7229-1.2922 0.19262-0.2547 0.22895-0.6096 0.09419-0.89535"/>
  </g>
  <g fill="#c93e64">
   <path d="m20.356 104.79c2.7273 1.1624 8.0338 2.7545 14.664 1.4076 0.0011-3.5e-4 0.0021-3.5e-4 0.0032-7.1e-4 -4.8846-0.39546-9.7081-1.9142-13.655-4.4524-0.41275 0.98072-0.75212 1.9981-1.0118 3.0455"/>
   <path d="m54.317 100.37c-0.66111 0.62512-1.3688 1.198-2.1146 1.7216 7.05e-4 0 0.0018-3.5e-4 0.0025-7.1e-4 2.3058-0.65264 5.2934-3.0431 7.167-4.7001-0.35666-0.4819-0.73342-0.94791-1.1292-1.3981-1.1987 1.5713-2.5174 3.0452-3.9257 4.3773"/>
   <path d="m62.44 103.3c-0.29563-0.89676-0.65017-1.7671-1.0601-2.6074-1.2076 0.66534-3.1567 1.8292-4.2256 2.4723 1.3095 0.22825 3.145 0.4131 5.2857 0.13511"/>
   <path d="m55.058 114.98c-0.0025 3.6e-4 -0.0046 1e-3 -0.0046 1e-3s4.2235 0.95391 7.4048 1.2217c0.1263-0.38805 0.24236-0.78034 0.34608-1.1772-2.3396 0.34149-4.9234 0.37571-7.7463-0.0455"/>
   <path d="m54.223 127.13c3.1969-0.83079 5.9425-3.4368 7.4722-5.158-1.0396 0.49883-2.0549 0.81033-2.952 1.0033-1.2947 1.5843-2.8176 2.9849-4.5201 4.1547"/>
  </g>
  <path d="m46.305 130.53c-1.5117 0.32068-3.0819 0.49178-4.6916 0.49178-0.87066 0-1.7279-0.0519-2.5725-0.14676-3.7571-0.42863-7.2238-1.7808-10.15-3.8213-0.25435-0.17568-0.50412-0.35807-0.75106-0.54469-1.3568-1.0333-2.5852-2.2176-3.6569-3.5299-0.68968-0.84279-1.3148-1.7388-1.8697-2.6783-0.11606-0.19861-0.23036-0.3997-0.33972-0.6029-0.12594-0.23036-0.24836-0.46425-0.36442-0.69956-0.42862-0.86395-0.79904-1.7614-1.1053-2.6868 0.87171-1.5632 2.19-2.7577 3.7518-3.5892 4.1857-2.2334 10.115-1.8743 13.848 0.89782 0.17709 0.1323 0.35101 0.27094 0.51894 0.41417 1.27 1.0862 2.2306 2.4871 2.6917 4.1938 0.32844 1.215 0.63006 2.3802 0.93451 3.4939 0.05786 0.21449 0.11606 0.42721 0.17568 0.63641 0.89923 3.2251 1.8584 5.9859 3.5814 8.1714" fill="#f6cc84"/>
  <path d="m13.512 101.71c0.61348-1.6577 1.3335-3.4431 2.1523-5.226-0.10654-0.14429-0.21167-0.28892-0.31362-0.43603-0.04163-0.05962-0.08114-0.11994-0.12136-0.17956-0.89641 1.9163-1.6768 3.8417-2.3336 5.6212 0.10513 0.0109 0.21061 0.0325 0.31503 0.0691 0.10901 0.0384 0.2092 0.0903 0.30127 0.15134" fill="#b0b83d"/>
  <path d="m90.457 59.496c-0.81033-3.1228-3.1866-5.5605-7.0633-7.2457-6.52-2.8353-12.176-0.55951-15.926 2.1424-0.21731 0.45226-0.48084 0.93557-0.78634 1.4439 0.75565-0.629 1.6207-1.2658 2.5816-1.8464 3.1535-1.9046 8.1206-3.6502 13.874-1.149 3.6855 1.6027 5.9387 3.8957 6.6964 6.8167 1.4093 5.4296-2.6793 11.562-4.5029 13.946-3.0787 4.0255-6.7673 11.725-9.3775 18.624 0.10336 0.01199 0.20673 0.03493 0.30868 0.07197 0.10583 0.0388 0.2032 0.09031 0.29316 0.15028 2.5862-6.8393 6.2396-14.469 9.2879-18.455 1.8807-2.4596 6.0949-8.7958 4.6147-14.5" fill="#b0b83d"/>
  <path d="m13.512 101.71c-0.09207-0.061-0.19226-0.11289-0.30127-0.15134-0.10442-0.0367-0.2099-0.0582-0.31503-0.0691-0.61595-0.0631-1.2178 0.29775-1.4316 0.90735-0.5842 1.6616-1.1254 3.3775-1.5159 4.7332-0.37394 1.3003-0.60925 2.2701-0.60925 2.5414 0 0.75635 0.61348 1.3698 1.3698 1.3698 0.70168 0 1.2799-0.52705 1.3607-1.2072 0.04022-0.20603 0.20426-0.86537 0.4826-1.8415 0.33655-1.1786 0.83996-2.8194 1.4965-4.687 0.21308-0.60501-0.02505-1.2573-0.53658-1.5956" fill="#523844"/>
  <path d="m76.555 92.45c-0.08996-0.05997-0.18732-0.11148-0.29316-0.15028-0.10195-0.03704-0.20532-0.05997-0.30868-0.07197-0.61736-0.07303-1.2256 0.28187-1.4471 0.89112-0.63888 1.7568-1.1892 3.4082-1.6337 4.9008-0.34572 1.161-0.62759 2.2253-0.83785 3.1686-0.1644 0.73837 0.30127 1.4704 1.0396 1.6351 0.10019 0.0222 0.20038 0.0332 0.29916 0.0332 0.62759 0 1.1934-0.43427 1.3356-1.0724 0.11395-0.50976 0.25012-1.0587 0.40781-1.6425 0.47378-1.7547 1.1412-3.8245 1.9643-6.0861 0.21978-0.60501-0.01376-1.2629-0.52599-1.6055" fill="#523844"/>
  <path d="m20.201 114.08c-0.17745-0.83573-0.30551-1.6887-0.37818-2.5573-0.04833-0.57609-0.07408-1.1582-0.07408-1.7462 0-0.45085 0.01623-0.89747 0.04445-1.3413-1.7064 0.22154-4.2884 0.30585-7.2404-0.44486-0.27834 0.97614-0.44238 1.6355-0.4826 1.8415-0.08079 0.68016-0.65899 1.2072-1.3607 1.2072-0.75636 0-1.3698-0.61348-1.3698-1.3698 0-0.27128 0.2353-1.2411 0.60925-2.5414-0.47484-0.19509-0.95426-0.41345-1.4379-0.65899l-2.6871 12.158s3.5193 0.69638 7.5858 0.94509c2.1124 0.12947 4.3716 0.13759 6.3623-0.13511 0.18344-0.025 0.36512-0.0529 0.54398-0.0829-0.52317-1.8263-0.36054-3.8488-0.11501-5.2744" fill="#ff6e95"/>
  <path d="m20.803 116.31c-0.2413-0.72567-0.44203-1.469-0.60254-2.2267-0.24553 1.4256-0.40816 3.448 0.11501 5.2744 0.56021-0.0945 1.0947-0.21308 1.5931-0.36054-0.42898-0.86466-0.79834-1.7625-1.1056-2.6871" fill="#c93e64"/>
  <path d="m24.482 122.98c-0.24377 1.3395-0.25259 2.6942-0.10442 4.0153 1.4189 0.38488 3.7257 0.91899 6.1637 1.1031-2.3308-1.3321-4.3857-3.0713-6.0593-5.1185" fill="#c93e64"/>
  <path d="m39.042 130.87c-3.0738-0.34996-5.9521-1.3201-8.5002-2.7764-2.438-0.18415-4.7449-0.71826-6.1637-1.1031 0.67592 6.0304 4.6394 11.362 4.6394 11.362 11.223 2.8706 13.695-1.1582 13.695-1.1582-2.5837-2.3135-3.478-4.5484-3.6707-6.3246" fill="#ff6e95"/>
  <g fill="#c93e64">
   <path d="m55.053 119.71c0 0.73378-0.39052 1.3286-0.87242 1.3286-0.48154 0-0.87207-0.59478-0.87207-1.3286 0-0.73343 0.39052-1.3282 0.87207-1.3282 0.4819 0 0.87242 0.59478 0.87242 1.3282"/>
   <path d="m57.967 120.86c-0.20214 0.44062-0.63359 0.67522-0.96273 0.52388-0.32985-0.15134-0.43286-0.63148-0.23036-1.0721 0.2025-0.44062 0.63359-0.67487 0.96308-0.52353 0.32985 0.15134 0.43286 0.63112 0.23001 1.0717"/>
   <path d="m54.026 123.51c0 0.30762-0.21555 0.55739-0.48084 0.55739-0.266 0-0.48119-0.24977-0.48119-0.55739s0.21519-0.55739 0.48119-0.55739c0.26529 0 0.48084 0.24977 0.48084 0.55739"/>
  </g>
  <path d="m38.922 114.03c-1.7713 1.3296-7.27 4.935-16.309 6.2664-0.11606-0.19861-0.23036-0.3997-0.33972-0.6029 8.8484-1.2506 14.279-4.7142 16.13-6.0777 0.17709 0.1323 0.35101 0.27094 0.51894 0.41417" fill="#e3ad52"/>
  <path d="m42.724 122.36c-2.7333 1.5201-7.6119 3.7666-13.833 4.6951-0.25435-0.17568-0.50412-0.35807-0.75106-0.54469 6.5518-0.86254 11.664-3.2463 14.409-4.7868 0.05786 0.21449 0.11606 0.42721 0.17568 0.63641" fill="#e3ad52"/>
  <path d="m48.042 81.61c-0.22401 0-0.4258-0.02858-0.60325-0.08079-0.54892-0.16192-0.91687-0.56903-1.01-1.1172-0.22119-1.3032 1.0132-3.0628 3.3024-4.7064 0.14499-0.10372 0.34572-0.07056 0.44979 0.07408 0.10372 0.14429 0.07056 0.34572-0.07373 0.44979-2.4571 1.7642-3.1746 3.2974-3.0431 4.0746 0.05256 0.30903 0.24024 0.51329 0.55668 0.60678 0.97614 0.28787 2.9556-0.50694 5.1752-2.9316 0.11994-0.13123 0.32385-0.14041 0.45544-0.02011 0.13123 0.11994 0.1404 0.32385 0.02011 0.45508-2.1678 2.3678-4.0217 3.1958-5.2296 3.1958" fill="#523844"/>
  <path d="m40.632 77.253c-0.22401 0-0.42545-0.02858-0.60325-0.08079-0.54892-0.16157-0.91687-0.56903-1.01-1.1172-0.22119-1.3032 1.0132-3.0625 3.3024-4.7061 0.14499-0.10407 0.34572-0.07091 0.44979 0.07373 0.10372 0.14464 0.07056 0.34608-0.07373 0.44979-2.4571 1.7642-3.1746 3.2978-3.0431 4.0746 0.05292 0.30939 0.24024 0.51364 0.55668 0.60713 0.97614 0.28751 2.9556-0.50729 5.1752-2.9319 0.11994-0.13123 0.32385-0.1404 0.45544-0.02011 0.13123 0.1203 0.1404 0.3242 0.02011 0.45544-2.1675 2.3678-4.0217 3.1955-5.2296 3.1955" fill="#523844"/>
  <path d="m25.821 76.462c0.25506 0.31115-0.16898 1.0802-0.94721 1.718-0.77823 0.63818-1.6161 0.90276-1.8711 0.59196-0.25506-0.3115 0.16898-1.0806 0.94721-1.7184 0.77893-0.63818 1.6164-0.90311 1.8711-0.59161" fill="#c93e64"/>
  <path d="m28.081 78.925c0.25541 0.3115-0.16898 1.0806-0.94721 1.7184-0.77823 0.63782-1.6161 0.90276-1.8711 0.59161-0.2547-0.31115 0.16969-1.0802 0.94791-1.7184 0.77823-0.63782 1.6157-0.90276 1.8704-0.59161" fill="#c93e64"/>
  <path d="m35.816 97.843c0.0032-2.437 2.2176-4.8899 5.4317-5.781 0.80574-0.22401 1.6178-0.33549 2.4077-0.33549 0.54786 0 1.0844 0.05327 1.5988 0.15946-1.1571 3.259-4.9061 5.7072-9.4382 5.957zm-0.6283-8.7401c-0.36266 0.01588-0.74471-0.25788-1.0509-0.756-0.27587-0.44803-0.46602-1.0252-0.5528-1.6616 0.56868 0.06914 1.1458 0.10478 1.7279 0.10478 0.4124 0 0.82338-0.01799 1.2312-0.05503-0.09984 1.3088-0.65758 2.3357-1.3554 2.3678zm5.4733-3.3669c0.12065-0.05151 0.24483-0.09525 0.36901-0.13229 0.0081 0.07408 0.01305 0.14993 0.01588 0.22578 0.04057 0.8315-0.09984 1.6168-0.39158 2.2098-0.25929 0.52529-0.61383 0.83467-0.97508 0.85231-0.36266 0.01446-0.74471-0.25929-1.0506-0.75565-0.26952-0.4385-0.4579-0.99942-0.54504-1.6168 0.89606-0.17709 1.7649-0.43991 2.5774-0.78317zm-10.47 2.2243c-0.4191 0.40746-0.8576 0.58173-1.2023 0.47696-0.34678-0.10478-0.6156-0.49142-0.7366-1.064-0.13194-0.61701-0.08678-1.3667 0.12559-2.1241 0.40816 0.03069 0.80927 0.1337 1.185 0.30798 0.53622 0.24977 1.0975 0.46249 1.6778 0.63818-0.24377 0.71896-0.61101 1.3409-1.0495 1.7649zm20.14 0.77682c-0.09349-0.15169-0.29175-0.19826-0.44344-0.10478-0.80116 0.4946-1.723 0.75565-2.6688 0.75565-0.33055 0-0.6544-0.0321-0.96873-0.09172-0.22542-0.04516-0.44626-0.10301-0.66075-0.17568-1.6471-0.55915-2.9189-1.9438-3.3186-3.6583-0.04974-0.21131-0.08678-0.42898-0.10936-0.64982-0.01623-0.16757-0.02434-0.33655-0.02434-0.50765 0-0.84772 0.21272-1.6873 0.6156-2.4271 0.08572-0.15628 0.02752-0.35137-0.12876-0.43674-0.15628-0.08537-0.35313-0.02752-0.43674 0.12876-0.45438 0.83326-0.69462 1.7794-0.69462 2.7351 0 0.07585 0.0014 0.14993 0.0049 0.22578 0.0032 0.10478 0.01094 0.20955 0.02081 0.31432-0.19509 0.02399-0.39017 0.06279-0.58032 0.11606-0.17886 0.04833-0.35631 0.10936-0.52846 0.18203-0.75106 0.3175-1.554 0.56233-2.382 0.73025-0.21131 0.04339-0.42545 0.08185-0.6417 0.11571-0.06279 0.0081-0.12559 0.01764-0.18874 0.02575-0.21237 0.03069-0.42545 0.05503-0.64135 0.07267-0.41099 0.03881-0.82691 0.05821-1.2439 0.05821-0.59972 0-1.1945-0.03881-1.7794-0.11642-0.21766-0.02716-0.43215-0.06103-0.64629-0.09984-0.28716-0.05151-0.5708-0.11289-0.85125-0.1838-0.2092-0.04974-0.41557-0.10795-0.62018-0.17074-0.54645-0.16439-1.0749-0.36583-1.5797-0.60113-0.39476-0.1838-0.81527-0.30127-1.2425-0.35137-0.22578-0.02716-0.45438-0.03528-0.68157-0.02399-0.44168 0.02081-0.88018 0.11289-1.2961 0.27552-1.0379 0.40605-1.8419 1.1942-2.2595 2.2162-0.35278 0.86042-0.53164 1.7582-0.53164 2.6705 0 4.8253 5.0348 8.7496 11.222 8.7496 0.05786 0 0.11606 0 0.17392-0.0014 0.21766-0.0018 0.43356-0.0095 0.64805-0.02258 4.8094-0.27234 8.7884-2.9189 10.01-6.4403 0.07267-0.2032 0.1337-0.40958 0.18521-0.61877 0.11924-0.47872 0.18838-0.9719 0.20144-1.4746 0.30939 0.05292 0.62865 0.08043 0.95426 0.08043 1.0654 0 2.1047-0.29492 3.0074-0.85266 0.15169-0.09349 0.19791-0.29175 0.10478-0.44309" fill="#523844"/>
  <g fill="#fff">
   <path d="m31.241 86.195c-0.24377 0.71896-0.61101 1.3409-1.0495 1.7649-0.4191 0.40746-0.8576 0.58173-1.2023 0.47696-0.34678-0.10478-0.6156-0.49142-0.7366-1.064-0.13194-0.61701-0.08678-1.3667 0.12559-2.1241 0.40816 0.03069 0.80927 0.1337 1.185 0.30798 0.53622 0.24977 1.0975 0.46249 1.6778 0.63818"/>
   <path d="m36.543 86.735c-0.09984 1.3088-0.65758 2.3357-1.3554 2.3678-0.36266 0.01588-0.74471-0.25788-1.0509-0.756-0.27587-0.44803-0.46602-1.0252-0.5528-1.6616 0.56868 0.06914 1.1458 0.10478 1.7279 0.10478 0.4124 0 0.82338-0.01799 1.2312-0.05503"/>
   <path d="m40.654 88.039c-0.25929 0.52529-0.61383 0.83467-0.97508 0.85231-0.36266 0.01446-0.74471-0.25929-1.0506-0.75565-0.26952-0.4385-0.4579-0.99942-0.54504-1.6168 0.89606-0.17709 1.7649-0.43991 2.5774-0.78317 0.12065-0.05151 0.24483-0.09525 0.36901-0.13229 0.0081 0.07408 0.01305 0.14993 0.01588 0.22578 0.04057 0.8315-0.09984 1.6168-0.39158 2.2098"/>
  </g>
  <path d="m45.254 91.886c-1.1571 3.259-4.9061 5.7072-9.4382 5.957 0.0032-2.437 2.2176-4.8899 5.4317-5.781 0.80574-0.22401 1.6178-0.33549 2.4077-0.33549 0.54786 0 1.0844 0.05327 1.5988 0.15946" fill="#fe584c"/>
 </g>
</svg>
